<svg width="84" height="82" viewBox="0 0 84 82" fill="none" xmlns="http://www.w3.org/2000/svg">
<path d="M41.59 79.2748C63.1788 79.2748 80.68 62.0882 80.68 40.8874C80.68 19.6866 63.1788 2.5 41.59 2.5C20.0012 2.5 2.5 19.6866 2.5 40.8874C2.5 62.0882 20.0012 79.2748 41.59 79.2748Z" stroke="#FF5900" stroke-width="5" stroke-miterlimit="10"/>
<path d="M24.2924 22.9114L18.4716 16.4089L20.6724 14.4462C21.1813 13.9924 21.6766 13.7067 22.1585 13.5891C22.6385 13.4694 23.0915 13.4898 23.5175 13.6505C23.9434 13.8111 24.3279 14.083 24.6709 14.4661C25.0138 14.8493 25.2395 15.2589 25.3479 15.6952C25.4562 16.1315 25.424 16.5789 25.2512 17.0375C25.0765 17.4941 24.7368 17.9473 24.2322 18.3974L22.4512 19.9856L21.8145 19.2744L23.5701 17.7088C23.9178 17.3987 24.1522 17.0983 24.2733 16.8077C24.3965 16.5151 24.4224 16.2331 24.3511 15.9618C24.28 15.6864 24.1279 15.4185 23.8948 15.1582C23.6618 14.8978 23.4093 14.7138 23.1375 14.606C22.8656 14.4982 22.5752 14.4869 22.2664 14.5721C21.9556 14.6551 21.6242 14.8535 21.2722 15.1674L19.8856 16.404L25.0811 22.208L24.2924 22.9114ZM24.7435 17.2562L28.9612 18.7478L28.0453 19.5647L23.853 18.0504L24.7435 17.2562Z" fill="#FF5900"/>
<path d="M27.86 10.1218L31.7804 17.919L30.8355 18.3923L26.9151 10.5952L27.86 10.1218Z" fill="#FF5900"/>
<path d="M37.9314 7.11557L38.9462 6.82036L40.566 12.3671C40.7332 12.9398 40.7475 13.4904 40.6088 14.0189C40.4721 14.5439 40.1974 15.007 39.7848 15.4081C39.3714 15.8065 38.836 16.1013 38.1786 16.2925C37.5212 16.4838 36.9109 16.5223 36.3478 16.408C35.7838 16.291 35.3015 16.0481 34.9009 15.6795C34.5021 15.3073 34.2192 14.8349 34.0519 14.2622L32.4321 8.71544L33.4469 8.42023L35.0428 13.8852C35.1622 14.2942 35.3586 14.6321 35.6318 14.8988C35.9042 15.1627 36.2335 15.3376 36.6196 15.4235C37.0077 15.5059 37.435 15.4792 37.9014 15.3435C38.3679 15.2078 38.7426 15.0012 39.0256 14.7236C39.3077 14.4433 39.4913 14.1192 39.5762 13.7512C39.6631 13.3798 39.6468 12.9896 39.5273 12.5805L37.9314 7.11557Z" fill="#FF5900"/>
<path d="M50.2154 10.6637C50.1825 10.3637 50.1143 10.0868 50.0107 9.833C49.9106 9.577 49.7742 9.34826 49.6017 9.14679C49.4319 8.9459 49.2264 8.77674 48.9853 8.6393C48.7442 8.50187 48.4693 8.40091 48.1606 8.33644C47.6545 8.23072 47.1668 8.26526 46.6977 8.44008C46.2285 8.61489 45.8182 8.93115 45.4668 9.38885C45.1154 9.84656 44.8622 10.4452 44.7071 11.1848C44.552 11.9244 44.5449 12.5745 44.6857 13.135C44.8265 13.6955 45.0809 14.1506 45.4488 14.5003C45.8167 14.8499 46.2648 15.0799 46.7932 15.1903C47.2826 15.2925 47.7355 15.2783 48.1519 15.1476C48.5716 15.0147 48.926 14.7782 49.215 14.438C49.5074 14.0957 49.7084 13.6632 49.818 13.1404L50.121 13.2734L47.5515 12.7367L47.7439 11.8191L50.9975 12.4987L50.8051 13.4163C50.6576 14.1197 50.3792 14.7001 49.9698 15.1573C49.5633 15.6151 49.0672 15.9323 48.4815 16.1089C47.8993 16.2833 47.2689 16.2996 46.5903 16.1579C45.8339 15.9999 45.2066 15.6831 44.7083 15.2075C44.2129 14.7326 43.874 14.1336 43.6918 13.4106C43.5124 12.6882 43.5171 11.8766 43.706 10.9757C43.8477 10.3 44.0654 9.7114 44.3593 9.20975C44.6565 8.7059 45.0119 8.29836 45.4255 7.98715C45.839 7.67593 46.2951 7.46647 46.7938 7.35876C47.2924 7.25105 47.8156 7.25441 48.3635 7.36884C48.814 7.46294 49.2196 7.61877 49.5804 7.83634C49.9445 8.0517 50.2535 8.31506 50.5076 8.62642C50.7649 8.93558 50.9607 9.28264 51.0947 9.66762C51.2294 10.0498 51.2922 10.4562 51.2832 10.8868L50.2154 10.6637Z" fill="#FF5900"/>
<path d="M51.9966 18.0319L56.6998 10.6803L61.1414 13.5111L60.6362 14.3008L57.0858 12.038L55.4966 14.522L58.8171 16.6383L58.3118 17.428L54.9914 15.3118L53.393 17.8101L57.001 20.1096L56.4957 20.8993L51.9966 18.0319Z" fill="#FF5900"/>
<path d="M58.171 22.4558L63.5491 15.5826L65.8748 17.3956C66.4126 17.8148 66.7822 18.2506 66.9837 18.703C67.1869 19.1533 67.2471 19.6018 67.1643 20.0488C67.0815 20.4957 66.8817 20.9217 66.5648 21.3267C66.2479 21.7316 65.8841 22.0261 65.4732 22.2101C65.0623 22.3941 64.6154 22.4419 64.1325 22.3537C63.6514 22.2632 63.1442 22.0101 62.611 21.5944L60.7289 20.1273L61.3171 19.3756L63.1723 20.8217C63.5398 21.1082 63.8775 21.285 64.1856 21.3523C64.496 21.4213 64.7786 21.3967 65.0335 21.2784C65.2923 21.1596 65.5294 20.9626 65.7448 20.6874C65.9601 20.4122 66.0968 20.1315 66.1548 19.8453C66.2128 19.5592 66.1724 19.2719 66.0336 18.9837C65.8966 18.6931 65.6421 18.4029 65.2702 18.113L63.8049 16.9707L59.0045 23.1056L58.171 22.4558ZM63.8268 21.8939L63.1047 26.3018L62.1368 25.5473L62.8858 21.1603L63.8268 21.8939Z" fill="#FF5900"/>
<path d="M19.6154 28.1938L12.7324 22.8282L15.9572 18.707L16.6966 19.2834L14.1231 22.5723L16.4488 24.3853L18.7807 21.4051L19.5201 21.9815L17.1882 24.9616L20.2667 27.3615L19.6154 28.1938Z" fill="#FF5900"/>
<path d="M37.3896 33.7016C37.1896 34.1308 36.9896 34.56 36.9696 35.0191C36.9596 35.3485 37.0396 35.6778 37.1596 35.9873C37.6196 37.1451 38.6996 38.0933 40.0196 38.5125C41.3396 38.9317 42.8796 38.8019 44.0796 38.1731C46.6396 36.8456 47.0496 33.1925 44.4596 31.6754C41.8696 30.1583 38.4596 31.4159 37.3896 33.6916V33.7016Z" stroke="#FF5900" stroke-width="0.5" stroke-miterlimit="10"/>
<path d="M25.9898 39.2698C25.7598 39.5592 25.6298 39.9186 25.5198 40.2679C25.3598 40.767 25.1998 41.296 25.3098 41.805C25.5098 42.7432 26.4898 43.2822 27.4198 43.5018C28.2398 43.7014 29.1398 43.7314 29.9098 43.392C30.6798 43.0526 31.3098 42.2841 31.2898 41.4457C31.2398 39.2399 27.5498 37.3434 25.9898 39.2698Z" fill="#FF5900" stroke="#FF5900" stroke-width="0.5" stroke-miterlimit="10"/>
<path d="M53.6799 38.6322C53.6699 39.0714 53.7199 39.5305 53.8999 39.9297C54.1899 40.5486 54.7799 40.9877 55.4099 41.2473C56.3399 41.6265 57.4199 41.6764 58.3399 41.2872C60.7999 40.2591 60.3499 37.8337 58.3899 36.5561C56.8899 35.578 53.7299 36.7358 53.6799 38.6322Z" fill="#FF5900" stroke="#FF5900" stroke-width="0.5" stroke-miterlimit="10"/>
<path d="M56.3604 50.67C56.2904 48.6738 55.8104 46.4879 54.2004 45.2802C53.7604 44.9408 53.2504 44.7113 52.7704 44.4318C51.2504 43.5534 49.9804 42.2559 49.1204 40.7188C48.8104 40.1599 48.5604 39.4512 48.9104 38.9222C49.3904 38.1836 50.6004 38.4331 51.2004 39.0819C51.8004 39.7307 52.0804 40.619 52.6604 41.2778C53.9904 42.7749 56.3104 42.6152 58.3004 42.7949C58.6704 42.8248 59.0504 42.8847 59.3604 43.0843C59.5804 43.2241 59.7504 43.4237 59.9104 43.6333C61.6304 45.8591 62.3604 48.8035 61.8904 51.5783C61.8404 51.8877 61.7604 52.2071 61.5904 52.4766C61.3804 52.8059 61.0304 53.0255 60.7304 53.2751C59.3304 54.4528 58.8804 56.3792 58.5004 58.1758C57.9804 60.6611 59.5004 62.4577 59.8404 64.9729C59.8704 65.1825 59.8804 65.4021 59.7804 65.5918C59.6404 65.8513 59.3204 65.9411 59.0304 66.011C57.8004 66.3104 56.2704 66.51 55.5004 65.5119C55.2504 65.1825 55.1304 64.7833 55.0204 64.384C53.8004 59.7129 56.5004 55.5108 56.3304 50.68L56.3604 50.67Z" fill="#FF5900" stroke="#FF5900" stroke-width="0.25" stroke-miterlimit="10"/>
<path d="M29.0203 53.0938C29.0903 51.0976 29.5703 48.9117 31.1803 47.704C31.6203 47.3647 32.1303 47.1351 32.6103 46.8556C34.1303 45.9773 35.4003 44.6797 36.2603 43.1426C36.5703 42.5837 36.8203 41.875 36.4703 41.346C35.9903 40.6074 34.7803 40.857 34.1803 41.5057C33.5803 42.1545 33.3003 43.0428 32.7203 43.7016C31.3903 45.1988 29.0703 45.0391 27.0803 45.2187C26.7103 45.2487 26.3303 45.3085 26.0203 45.5082C25.8003 45.6479 25.6303 45.8475 25.4703 46.0571C23.7503 48.2829 23.0203 51.2273 23.4903 54.0021C23.5403 54.3115 23.6203 54.6309 23.7903 54.9004C24.0003 55.2298 24.3503 55.4494 24.6503 55.6989C26.0503 56.8767 26.5003 58.803 26.8803 60.5996C27.4003 63.0849 25.8803 64.8815 25.5403 67.3968C25.5103 67.6064 25.5003 67.8259 25.6003 68.0156C25.7403 68.2751 26.0603 68.3649 26.3503 68.4348C27.5803 68.7342 29.1103 68.9338 29.8803 67.9357C30.1303 67.6064 30.2503 67.2071 30.3603 66.8079C31.5803 62.1367 28.8803 57.9347 29.0503 53.1038L29.0203 53.0938Z" fill="#FF5900" stroke="#FF5900" stroke-width="0.25" stroke-miterlimit="10"/>
<path d="M63.7399 53.9918C64.4199 54.5707 65.2299 55.0598 66.1899 55.2195C67.1899 55.3892 68.2499 55.1696 69.2799 55.1297C70.3099 55.0897 71.4699 55.2694 72.0099 55.988C72.4599 56.5869 72.3499 57.4253 71.8599 58.0441C71.3699 58.663 70.5599 59.0722 69.7199 59.2618C69.2999 59.3616 68.8699 59.4116 68.4499 59.3616C68.0299 59.3117 67.6399 59.172 67.2599 59.0223C64.4099 57.9244 61.4699 56.4771 60.3699 53.9918C60.0699 53.3231 59.8299 51.3867 61.3399 51.5464C61.9499 51.6063 62.1499 52.1952 62.4199 52.5645C62.7999 53.0835 63.2399 53.5626 63.7499 53.9918H63.7399Z" fill="#FF5900" stroke="#FF5900" stroke-width="0.5" stroke-miterlimit="10"/>
<path d="M21.6694 55.859C20.9894 56.4379 20.1794 56.927 19.2194 57.0867C18.2194 57.2563 17.1594 57.0368 16.1294 56.9968C15.0994 56.9569 13.9394 57.1366 13.3994 57.8552C12.9494 58.4541 13.0594 59.2925 13.5494 59.9113C14.0394 60.5302 14.8494 60.9394 15.6894 61.129C16.1094 61.2288 16.5394 61.2787 16.9594 61.2288C17.3794 61.1789 17.7694 61.0392 18.1494 60.8895C20.9994 59.7916 23.9394 58.3443 25.0394 55.859C25.3394 55.1903 25.5794 53.2539 24.0694 53.4136C23.4594 53.4735 23.2594 54.0624 22.9894 54.4317C22.6094 54.9507 22.1694 55.4298 21.6594 55.859H21.6694Z" fill="#FF5900" stroke="#FF5900" stroke-width="0.5" stroke-miterlimit="10"/>
<path d="M45.8302 32.5428C45.1702 34.0699 43.8502 33.6207 42.6602 33.3512C42.8402 32.8422 43.6202 32.2533 43.9502 31.8241C44.0502 31.6944 44.2502 31.5646 44.3502 31.6944" fill="#FF5900"/>
<path d="M45.8302 32.5428C45.1702 34.0699 43.8502 33.6207 42.6602 33.3512C42.8402 32.8422 43.6202 32.2533 43.9502 31.8241C44.0502 31.6944 44.2502 31.5646 44.3502 31.6944" stroke="#FF5900" stroke-width="0.25" stroke-miterlimit="10"/>
<path d="M41.1005 38.4126C40.9105 37.0153 41.3205 35.6079 42.1605 34.7695C43.2105 35.5481 44.2605 36.5362 44.9105 37.8038C44.9305 37.8337 44.9505 37.7539 44.9105 37.7738" fill="#FF5900"/>
<path d="M41.1005 38.4126C40.9105 37.0153 41.3205 35.6079 42.1605 34.7695C43.2105 35.5481 44.2605 36.5362 44.9105 37.8038C44.9305 37.8337 44.9505 37.7539 44.9105 37.7738" stroke="#FF5900" stroke-width="0.25" stroke-miterlimit="10"/>
<path d="M37.1299 34.4294C38.1699 34.8187 39.3799 34.7588 40.3699 34.2797C39.4899 34.0901 38.7399 33.4014 38.3499 32.6328" fill="#FF5900"/>
<path d="M37.1299 34.4294C38.1699 34.8187 39.3799 34.7588 40.3699 34.2797C39.4899 34.0901 38.7399 33.4014 38.3499 32.6328" stroke="#FF5900" stroke-width="0.25" stroke-miterlimit="10"/>
<path d="M42.4302 38.0028C42.2102 38.0028 41.9802 38.0028 41.7902 38.1126C42.4802 38.1126 43.1702 38.1126 43.8602 38.1525C43.2402 38.0827 42.6902 38.6117 42.0702 38.5817C42.4702 38.3222 43.0102 38.3721 43.4502 38.1925C42.8002 38.2224 42.1802 38.5518 41.5302 38.4719C41.8502 38.2723 42.2402 38.2523 42.6102 38.2623C42.1502 38.3921 41.6802 38.4719 41.2002 38.4819C41.2102 38.432 41.2702 38.432 41.3202 38.432C42.0302 38.432 42.9002 38.442 43.5402 38.0926C43.3002 37.883 42.7202 38.0028 42.4202 38.0028H42.4302Z" stroke="#FF5900" stroke-width="0.25" stroke-miterlimit="10"/>
<path d="M40.66 34.9074C40.92 35.1769 41.33 35.2069 41.71 35.2069C41.84 35.2069 41.97 35.2069 42.09 35.1569C42.23 35.107 42.34 35.0072 42.44 34.8974C43.19 34.069 42.72 32.8813 41.56 32.8313C40.59 32.7814 40 34.2187 40.66 34.9074Z" fill="#FF5900" stroke="#FF5900" stroke-width="0.25" stroke-miterlimit="10"/>
</svg>
