<svg width="84" height="82" viewBox="0 0 84 82" fill="none" xmlns="http://www.w3.org/2000/svg">
<path d="M41.59 79.2748C63.1788 79.2748 80.68 62.0882 80.68 40.8874C80.68 19.6866 63.1788 2.5 41.59 2.5C20.0012 2.5 2.5 19.6866 2.5 40.8874C2.5 62.0882 20.0012 79.2748 41.59 79.2748Z" fill="#FF5900" stroke="#FF5900" stroke-width="5" stroke-miterlimit="10"/>
<path d="M23.6274 22.1888L17.8065 15.6862L20.0074 13.7236C20.5162 13.2698 21.0116 12.984 21.4935 12.8664C21.9735 12.7467 22.4265 12.7672 22.8524 12.9278C23.2784 13.0885 23.6629 13.3603 24.0058 13.7435C24.3488 14.1266 24.5744 14.5363 24.6828 14.9726C24.7912 15.4088 24.759 15.8563 24.5862 16.3149C24.4114 16.7714 24.0718 17.2247 23.5672 17.6747L21.7861 19.263L21.1495 18.5518L22.9051 16.9862C23.2528 16.6761 23.4872 16.3757 23.6083 16.085C23.7315 15.7924 23.7574 15.5105 23.6861 15.2391C23.6149 14.9637 23.4629 14.6959 23.2298 14.4355C22.9967 14.1752 22.7443 13.9911 22.4724 13.8833C22.2006 13.7756 21.9102 13.7643 21.6013 13.8494C21.2905 13.9324 20.9592 14.1309 20.6072 14.4448L19.2205 15.6814L24.4161 21.4854L23.6274 22.1888ZM24.0784 16.5336L28.2962 18.0252L27.3802 18.842L23.1879 17.3277L24.0784 16.5336Z" fill="white"/>
<path d="M26.5172 9.25465L30.4376 17.0518L29.4927 17.5251L25.5723 9.72796L26.5172 9.25465Z" fill="white"/>
<path d="M37.2029 6.33237L38.2177 6.03716L39.8374 11.5839C40.0047 12.1566 40.019 12.7072 39.8803 13.2357C39.7436 13.7607 39.4689 14.2237 39.0563 14.6249C38.6429 15.0233 38.1075 15.3181 37.4501 15.5093C36.7926 15.7006 36.1824 15.7391 35.6192 15.6248C35.0553 15.5078 34.573 15.2649 34.1724 14.8963C33.7736 14.5241 33.4907 14.0516 33.3234 13.479L31.7036 7.93224L32.7184 7.63703L34.3143 13.102C34.4337 13.511 34.6301 13.8489 34.9033 14.1156C35.1757 14.3795 35.505 14.5544 35.8911 14.6403C36.2792 14.7227 36.7065 14.696 37.1729 14.5603C37.6394 14.4246 38.0141 14.218 38.297 13.9404C38.5792 13.6601 38.7628 13.3359 38.8477 12.968C38.9346 12.5966 38.9183 12.2064 38.7988 11.7973L37.2029 6.33237Z" fill="white"/>
<path d="M48.6812 9.6637C48.6483 9.3637 48.5801 9.0868 48.4766 8.833C48.3764 8.577 48.24 8.34826 48.0675 8.14679C47.8977 7.9459 47.6923 7.77674 47.4511 7.6393C47.21 7.50187 46.9351 7.40091 46.6264 7.33644C46.1203 7.23072 45.6326 7.26526 45.1635 7.44008C44.6943 7.61489 44.2841 7.93115 43.9327 8.38885C43.5813 8.84656 43.328 9.44521 43.1729 10.1848C43.0179 10.9244 43.0107 11.5745 43.1516 12.135C43.2924 12.6955 43.5467 13.1506 43.9146 13.5003C44.2825 13.8499 44.7306 14.0799 45.259 14.1903C45.7485 14.2925 46.2014 14.2783 46.6177 14.1476C47.0374 14.0147 47.3918 13.7782 47.6808 13.438C47.9732 13.0957 48.1742 12.6632 48.2838 12.1404L48.5868 12.2734L46.0173 11.7367L46.2097 10.8191L49.4633 11.4987L49.2709 12.4163C49.1234 13.1197 48.845 13.7001 48.4357 14.1573C48.0291 14.6151 47.533 14.9323 46.9473 15.1089C46.3651 15.2833 45.7347 15.2996 45.0561 15.1579C44.2997 14.9999 43.6724 14.6831 43.1742 14.2075C42.6787 13.7326 42.3399 13.1336 42.1576 12.4106C41.9782 11.6882 41.9829 10.8766 42.1718 9.9757C42.3135 9.30005 42.5312 8.7114 42.8251 8.20975C43.1223 7.7059 43.4777 7.29836 43.8913 6.98715C44.3049 6.67593 44.761 6.46647 45.2596 6.35876C45.7582 6.25105 46.2814 6.25441 46.8293 6.36884C47.2798 6.46294 47.6854 6.61877 48.0462 6.83634C48.4103 7.0517 48.7194 7.31506 48.9734 7.62642C49.2308 7.93558 49.4265 8.28264 49.5606 8.66762C49.6952 9.04982 49.7581 9.4562 49.7491 9.88675L48.6812 9.6637Z" fill="white"/>
<path d="M50.1324 16.5866L54.8355 9.23499L59.2772 12.0658L58.7719 12.8555L55.2215 10.5927L53.6323 13.0767L56.9528 15.193L56.4476 15.9827L53.1271 13.8664L51.5288 16.3648L55.1367 18.6643L54.6315 19.454L50.1324 16.5866Z" fill="white"/>
<path d="M57.3145 20.8582L62.6927 13.985L65.0184 15.798C65.5561 16.2171 65.9257 16.653 66.1272 17.1054C66.3305 17.5556 66.3907 18.0042 66.3079 18.4511C66.2251 18.8981 66.0253 19.324 65.7084 19.729C65.3915 20.134 65.0276 20.4284 64.6167 20.6124C64.2058 20.7964 63.7589 20.8443 63.2761 20.756C62.795 20.6656 62.2878 20.4125 61.7545 19.9968L59.8724 18.5297L60.4607 17.7779L62.3159 19.2241C62.6833 19.5105 63.0211 19.6874 63.3292 19.7546C63.6395 19.8236 63.9221 19.799 64.177 19.6807C64.4359 19.5619 64.673 19.3649 64.8883 19.0897C65.1037 18.8146 65.2403 18.5339 65.2983 18.2477C65.3563 17.9615 65.3159 17.6743 65.1772 17.386C65.0402 17.0955 64.7857 16.8053 64.4138 16.5153L62.9484 15.3731L58.148 21.5079L57.3145 20.8582ZM62.9703 20.2962L62.2483 24.7042L61.2803 23.9497L62.0293 19.5626L62.9703 20.2962Z" fill="white"/>
<path d="M19.3078 26.9359L12.4248 21.5704L15.6496 17.4492L16.389 18.0255L13.8154 21.3145L16.1412 23.1274L18.4731 20.1473L19.2125 20.7236L16.8805 23.7038L19.9591 26.1036L19.3078 26.9359Z" fill="white"/>
<path d="M37.3896 33.7016C37.1896 34.1308 36.9896 34.56 36.9696 35.0191C36.9596 35.3485 37.0396 35.6778 37.1596 35.9873C37.6196 37.1451 38.6996 38.0933 40.0196 38.5125C41.3396 38.9317 42.8796 38.8019 44.0796 38.1731C46.6396 36.8456 47.0496 33.1925 44.4596 31.6754C41.8696 30.1583 38.4596 31.4159 37.3896 33.6916V33.7016Z" stroke="white" stroke-width="0.5" stroke-miterlimit="10"/>
<path d="M25.9898 39.2717C25.7598 39.5612 25.6298 39.9205 25.5198 40.2699C25.3598 40.7689 25.1998 41.2979 25.3098 41.807C25.5098 42.7452 26.4898 43.2842 27.4198 43.5037C28.2398 43.7034 29.1398 43.7333 29.9098 43.394C30.6798 43.0546 31.3098 42.286 31.2898 41.4476C31.2398 39.2418 27.5498 37.3454 25.9898 39.2717Z" fill="white" stroke="white" stroke-width="0.5" stroke-miterlimit="10"/>
<path d="M53.6799 38.6322C53.6699 39.0714 53.7199 39.5305 53.8999 39.9297C54.1899 40.5486 54.7799 40.9877 55.4099 41.2473C56.3399 41.6265 57.4199 41.6764 58.3399 41.2872C60.7999 40.2591 60.3499 37.8337 58.3899 36.5561C56.8899 35.578 53.7299 36.7358 53.6799 38.6322Z" fill="white" stroke="white" stroke-width="0.5" stroke-miterlimit="10"/>
<path d="M56.3604 50.67C56.2904 48.6738 55.8104 46.4879 54.2004 45.2802C53.7604 44.9408 53.2504 44.7113 52.7704 44.4318C51.2504 43.5534 49.9804 42.2559 49.1204 40.7188C48.8104 40.1599 48.5604 39.4512 48.9104 38.9222C49.3904 38.1836 50.6004 38.4331 51.2004 39.0819C51.8004 39.7307 52.0804 40.619 52.6604 41.2778C53.9904 42.7749 56.3104 42.6152 58.3004 42.7949C58.6704 42.8248 59.0504 42.8847 59.3604 43.0843C59.5804 43.2241 59.7504 43.4237 59.9104 43.6333C61.6304 45.8591 62.3604 48.8035 61.8904 51.5783C61.8404 51.8877 61.7604 52.2071 61.5904 52.4766C61.3804 52.8059 61.0304 53.0255 60.7304 53.2751C59.3304 54.4528 58.8804 56.3792 58.5004 58.1758C57.9804 60.6611 59.5004 62.4577 59.8404 64.9729C59.8704 65.1825 59.8804 65.4021 59.7804 65.5918C59.6404 65.8513 59.3204 65.9411 59.0304 66.011C57.8004 66.3104 56.2704 66.51 55.5004 65.5119C55.2504 65.1825 55.1304 64.7833 55.0204 64.384C53.8004 59.7129 56.5004 55.5108 56.3304 50.68L56.3604 50.67Z" fill="white" stroke="white" stroke-width="0.25" stroke-miterlimit="10"/>
<path d="M29.0203 53.0958C29.0903 51.0995 29.5703 48.9137 31.1803 47.706C31.6203 47.3666 32.1303 47.137 32.6103 46.8576C34.1303 45.9792 35.4003 44.6817 36.2603 43.1446C36.5703 42.5857 36.8203 41.877 36.4703 41.348C35.9903 40.6094 34.7803 40.8589 34.1803 41.5077C33.5803 42.1565 33.3003 43.0448 32.7203 43.7035C31.3903 45.2007 29.0703 45.041 27.0803 45.2207C26.7103 45.2506 26.3303 45.3105 26.0203 45.5101C25.8003 45.6499 25.6303 45.8495 25.4703 46.0591C23.7503 48.2849 23.0203 51.2293 23.4903 54.004C23.5403 54.3135 23.6203 54.6329 23.7903 54.9024C24.0003 55.2317 24.3503 55.4513 24.6503 55.7008C26.0503 56.8786 26.5003 58.805 26.8803 60.6016C27.4003 63.0869 25.8803 64.8835 25.5403 67.3987C25.5103 67.6083 25.5003 67.8279 25.6003 68.0175C25.7403 68.2771 26.0603 68.3669 26.3503 68.4367C27.5803 68.7362 29.1103 68.9358 29.8803 67.9377C30.1303 67.6083 30.2503 67.2091 30.3603 66.8098C31.5803 62.1387 28.8803 57.9366 29.0503 53.1058L29.0203 53.0958Z" fill="white" stroke="white" stroke-width="0.25" stroke-miterlimit="10"/>
<path d="M63.7399 53.9938C64.4199 54.5727 65.2299 55.0617 66.1899 55.2214C67.1899 55.3911 68.2499 55.1715 69.2799 55.1316C70.3099 55.0917 71.4699 55.2713 72.0099 55.99C72.4599 56.5888 72.3499 57.4273 71.8599 58.0461C71.3699 58.6649 70.5599 59.0741 69.7199 59.2638C69.2999 59.3636 68.8699 59.4135 68.4499 59.3636C68.0299 59.3137 67.6399 59.174 67.2599 59.0242C64.4099 57.9263 61.4699 56.4791 60.3699 53.9938C60.0699 53.325 59.8299 51.3887 61.3399 51.5484C61.9499 51.6083 62.1499 52.1972 62.4199 52.5665C62.7999 53.0855 63.2399 53.5646 63.7499 53.9938H63.7399Z" fill="white" stroke="white" stroke-width="0.5" stroke-miterlimit="10"/>
<path d="M21.6694 55.8609C20.9894 56.4399 20.1794 56.9289 19.2194 57.0886C18.2194 57.2583 17.1594 57.0387 16.1294 56.9988C15.0994 56.9589 13.9394 57.1385 13.3994 57.8572C12.9494 58.456 13.0594 59.2945 13.5494 59.9133C14.0394 60.5321 14.8494 60.9413 15.6894 61.131C16.1094 61.2308 16.5394 61.2807 16.9594 61.2308C17.3794 61.1809 17.7694 61.0411 18.1494 60.8914C20.9994 59.7935 23.9394 58.3462 25.0394 55.8609C25.3394 55.1922 25.5794 53.2559 24.0694 53.4156C23.4594 53.4755 23.2594 54.0643 22.9894 54.4336C22.6094 54.9527 22.1694 55.4318 21.6594 55.8609H21.6694Z" fill="white" stroke="white" stroke-width="0.5" stroke-miterlimit="10"/>
<path d="M45.8302 32.5447C45.1702 34.0718 43.8502 33.6227 42.6602 33.3532C42.8402 32.8442 43.6202 32.2553 43.9502 31.8261C44.0502 31.6963 44.2502 31.5666 44.3502 31.6963" fill="white"/>
<path d="M45.8302 32.5447C45.1702 34.0718 43.8502 33.6227 42.6602 33.3532C42.8402 32.8442 43.6202 32.2553 43.9502 31.8261C44.0502 31.6963 44.2502 31.5666 44.3502 31.6963" stroke="white" stroke-width="0.25" stroke-miterlimit="10"/>
<path d="M41.1005 38.4126C40.9105 37.0153 41.3205 35.6079 42.1605 34.7695C43.2105 35.5481 44.2605 36.5362 44.9105 37.8038C44.9305 37.8337 44.9505 37.7539 44.9105 37.7738" fill="white"/>
<path d="M41.1005 38.4126C40.9105 37.0153 41.3205 35.6079 42.1605 34.7695C43.2105 35.5481 44.2605 36.5362 44.9105 37.8038C44.9305 37.8337 44.9505 37.7539 44.9105 37.7738" stroke="white" stroke-width="0.25" stroke-miterlimit="10"/>
<path d="M37.1299 34.4314C38.1699 34.8206 39.3799 34.7607 40.3699 34.2817C39.4899 34.092 38.7399 33.4033 38.3499 32.6348" fill="white"/>
<path d="M37.1299 34.4314C38.1699 34.8206 39.3799 34.7607 40.3699 34.2817C39.4899 34.092 38.7399 33.4033 38.3499 32.6348" stroke="white" stroke-width="0.25" stroke-miterlimit="10"/>
<path d="M42.4302 38.0048C42.2102 38.0048 41.9802 38.0048 41.7902 38.1146C42.4802 38.1146 43.1702 38.1146 43.8602 38.1545C43.2402 38.0846 42.6902 38.6136 42.0702 38.5837C42.4702 38.3242 43.0102 38.3741 43.4502 38.1944C42.8002 38.2244 42.1802 38.5537 41.5302 38.4739C41.8502 38.2743 42.2402 38.2543 42.6102 38.2643C42.1502 38.394 41.6802 38.4739 41.2002 38.4839C41.2102 38.434 41.2702 38.434 41.3202 38.434C42.0302 38.434 42.9002 38.4439 43.5402 38.0946C43.3002 37.885 42.7202 38.0048 42.4202 38.0048H42.4302Z" stroke="white" stroke-width="0.25" stroke-miterlimit="10"/>
<path d="M40.66 34.9094C40.92 35.1789 41.33 35.2088 41.71 35.2088C41.84 35.2088 41.97 35.2088 42.09 35.1589C42.23 35.109 42.34 35.0092 42.44 34.8994C43.19 34.071 42.72 32.8832 41.56 32.8333C40.59 32.7834 40 34.2207 40.66 34.9094Z" fill="white" stroke="white" stroke-width="0.25" stroke-miterlimit="10"/>
</svg>
