<svg width="599" height="329" viewBox="0 0 599 329" fill="none" xmlns="http://www.w3.org/2000/svg">
<path d="M151.256 206.942C151.134 207.144 150.794 207.902 150.554 209.235C150.379 210.203 150.437 212.874 150.038 215.164C149.843 216.282 148.612 217.459 147.262 219.373C145.348 222.087 144.381 224.019 144.311 224.441C144.234 224.901 144.247 227.427 144.37 231.224C144.442 233.462 145.239 234.882 146.511 236.777C147.331 238 148.768 239.566 149.833 240.761C150.898 241.955 151.616 242.683 153.128 244.663C154.641 246.643 156.928 249.854 158.252 251.642C160.152 254.209 161.216 254.484 162.086 254.952C163.404 255.663 161.66 258.66 161.145 261.319C161.04 261.86 161.056 262.038 160.75 264.05C160.444 266.062 159.84 269.908 159.518 272.534C159.039 276.438 159.112 278.022 158.42 280.191C157.801 282.131 156.507 285.731 155.74 288.33C154.973 290.929 154.739 292.406 154.612 294.992C154.485 297.578 154.472 301.228 154.434 303.19C154.397 305.151 154.335 305.314 154.063 305.924" stroke="#FF5900" stroke-opacity="0.8" stroke-width="2" stroke-linecap="round"/>
<path d="M154.063 305.924C154.063 305.959 154 307.958 153.795 311.476C153.564 315.432 153.293 316.342 153.617 317.132C154.497 319.28 156.156 321.419 156.633 322.381C157.068 323.259 157.995 324.167 161.629 326.506C162.849 327.291 163.81 327.476 164.642 327.664C165.235 327.798 168.06 327.852 171.98 327.825C173.328 327.817 173.365 327.56 173.186 327.31C172.055 325.739 169.808 325.224 167.723 324.127C166.245 323.349 165.92 322.343 165.562 321.062C165.173 319.675 165.024 317.543 165.523 314.963C165.725 313.915 166.28 313.353 167.395 312.45C168.909 311.225 170.171 310.493 170.339 309.917C170.571 309.122 170.534 308.16 170.448 307.358C170.333 306.287 169.311 305.767 169.004 304.902C168.696 304.033 168.996 303.235 169.181 302.869C169.676 301.888 170.63 301.061 171.102 299.953C171.813 298.281 171.903 297.385 172.419 296.775C173.554 295.432 176.785 296.192 176.845 295.807C176.958 295.074 176.02 294.06 175.65 293.121C175.577 292.938 175.631 292.754 175.712 292.59C176.482 291.014 180.048 290.256 180.899 289.533C181.853 288.724 182.456 287.08 183.293 286.645C185.222 285.643 186.729 285.286 187.768 284.266C189.116 282.945 192.518 281.307 194.488 279.299C195.914 277.845 195.881 275.532 197.23 273.473C198.136 272.09 198.909 270.437 200.48 267.998C202.767 264.449 204.385 264.328 205.506 263.493C205.741 263.28 205.92 263.068 206.089 262.773C206.257 262.479 206.41 262.109 206.567 261.727" stroke="#FF5900" stroke-opacity="0.8" stroke-width="2" stroke-linecap="round"/>
<path d="M206.568 261.727C206.568 261.439 206.664 260.557 207.227 259.496C208.25 257.566 210.293 256.494 211.503 255.807C212.147 255.442 212.785 255.731 213.114 255.714C214.303 255.655 213.456 252.761 213.029 251.386C212.793 250.625 212.775 249.613 212.814 248.602C212.837 247.985 213.953 246.479 215.517 244.116C216.65 242.402 217.869 240.566 219.323 238.882C220.401 237.634 220.631 236.658 220.752 235.613C220.907 234.272 220.456 233.408 220.07 232.776C219.529 231.888 218.102 231.802 213.793 230.244C212.608 229.815 210.783 229.02 206.713 227.311C204.23 226.268 200.96 224.72 199.157 223.859C197.355 222.999 197.136 222.836 196.967 222.661C196.444 221.518 196.001 219.811 195.67 219.067C195.585 218.909 195.493 218.765 195.154 218.584" stroke="#FF5900" stroke-opacity="0.8" stroke-width="2" stroke-linecap="round"/>
<path d="M195.154 218.585C195.128 218.585 194.892 218.585 194.471 218.564C192.792 218.48 190.608 215.789 189.321 214.115C188.742 213.362 187.355 212.988 185.788 212.707C184.946 212.557 183.716 212.372 182.773 212.086C181.62 211.736 179.803 209.755 178.799 208.309C178.246 207.513 177.575 206.432 176.673 205.471C175.964 204.716 172.227 204.027 169.933 203.559C168.679 203.303 166.958 202.476 165.298 201.942C163.305 201.301 160.284 201.522 158.266 201.888C157.401 202.045 155.745 202.561 154.607 202.969C153.938 203.21 153.543 203.919 153.115 204.589C152.837 205.076 152.616 205.513 152.44 205.851C152.33 206.029 152.177 206.223 151.937 206.592" stroke="#FF5900" stroke-opacity="0.8" stroke-width="2" stroke-linecap="round"/>
<path d="M165.187 197.347C165.175 197.347 164.972 197.498 164.767 197.737C164.407 198.155 165.998 197.721 166.497 197.617C166.692 197.577 166.674 197.316 166.484 197.093C165.908 196.633 165.307 196.339 164.859 196.264C164.615 196.236 164.334 196.228 163.926 196.279" stroke="#FF5900" stroke-opacity="0.8" stroke-width="2" stroke-linecap="round"/>
<path d="M157.17 196.147C156.523 196.147 154.917 196.088 153.683 195.597C151.812 194.854 151.23 194.033 151.044 193.716C150.953 193.562 150.967 193.374 151.461 193.155C154.539 191.789 156.584 191.891 158.035 191.832C158.346 191.819 158.459 192.037 158.581 192.341C158.879 193.085 158.948 193.955 158.867 194.566C158.787 194.802 158.626 194.889 158.454 194.952C158.282 195.016 158.102 195.055 157.636 195.213" stroke="#FF5900" stroke-opacity="0.8" stroke-width="2" stroke-linecap="round"/>
<path d="M147.967 190.373C147.923 189.867 146.448 185.901 145.289 183.805C144.882 183.07 143.734 182.892 142.208 182.503C141.752 182.386 141.206 182.432 140.964 182.345C139.501 181.82 146.35 181.152 147.507 181.366C148.638 181.575 149.058 182.984 149.427 184.426C149.474 187.167 149.383 188.07 149.364 188.687C149.35 188.954 149.323 189.126 148.973 189.605" stroke="#FF5900" stroke-opacity="0.8" stroke-width="2" stroke-linecap="round"/>
<path d="M144.07 192.288C144.07 192.299 144.07 192.748 144.13 193.487C144.155 193.788 144.312 193.919 144.504 193.993C144.697 194.066 144.957 194.075 145.101 193.989C145.246 193.903 145.267 193.724 145.247 193.531C145.164 193.137 144.964 192.8 144.671 192.537C144.514 192.403 144.338 192.269 144.157 192.131" stroke="#FF5900" stroke-opacity="0.8" stroke-width="2" stroke-linecap="round"/>
<path d="M145.95 207.385C145.756 207.382 142.473 205.305 140.681 203.712C139.588 202.74 140.466 200.028 140.779 198.55C141.067 197.19 140.772 196.059 140.533 195.525C140.28 194.96 139.72 194.513 139.212 194.114C137.596 192.844 133.711 193.564 132.446 193.166C132.162 193.076 131.931 192.921 131.767 192.754C131.603 192.588 131.524 192.387 131.528 192.157C131.554 190.576 133.739 189.018 134.221 187.641C134.518 186.791 134.193 186.076 133.922 185.761C133.249 184.983 131.271 185.576 129.942 186.142C127.947 186.991 126.981 188.101 125.836 188.415C124.083 188.895 121.457 187.716 119.698 186.982C118.897 186.647 118.774 185.445 118.36 181.892C118.098 179.643 118.407 178.503 118.244 177.531C118.112 176.74 119.382 175.834 119.982 174.973C120.196 174.667 120.043 174.013 120.101 173.308C120.15 172.713 121.667 172.306 123.547 171.638C127.138 170.36 129.552 170.676 130.557 170.509C131.245 170.394 131.471 169.317 132.062 168.833C132.682 168.325 135.844 168.55 138.056 168.831C139.532 169.019 140.695 171.975 141.505 174.337C141.698 174.899 142.004 175.26 142.381 175.563C143.246 176.259 144.318 176.221 144.671 176.129C145.024 176.037 145.25 175.524 145.47 174.997C145.855 174.08 144.444 170.771 143.91 166.873C143.751 165.713 144.369 164.982 144.644 164.481C144.917 163.987 147.114 162.405 150.303 160.099C152.018 158.859 152.451 158.208 152.497 157.8C152.6 156.875 152.216 156.074 152.095 155.265C152.06 155.022 152.009 154.717 151.984 154.389C151.959 154.061 151.96 153.719 152.193 153.04" stroke="#FF5900" stroke-opacity="0.8" stroke-width="2" stroke-linecap="round"/>
<path d="M152.043 154.374C152.043 153.061 152.259 149.576 152.688 148.541C153.312 147.038 154.389 146.174 156.147 145.393C157.435 144.821 158.814 144.846 160.093 143.977C161.083 143.305 161.706 139.654 162.311 137.687C162.557 136.888 164.562 136.124 165.977 135.574C166.984 135.183 167.815 134.817 168.639 134.139C168.826 133.986 169.009 133.968 169.158 134C169.308 134.031 169.438 134.139 169.524 134.301C169.917 135.043 169.916 135.687 170.205 135.877C170.489 136.065 171.699 135.473 173.643 134.408C177.261 132.427 177.961 130.62 178.234 129.727C178.301 129.508 178.245 129.304 178.164 129.136C177.761 128.309 176.394 128.113 174.83 127.948C174.228 127.885 173.401 127.915 172.89 127.871C172.38 127.828 172.21 127.749 172.131 127.119C172.052 126.49 172.069 125.311 171.938 124.678C171.807 124.044 171.527 123.99 170.929 123.959C169.425 123.879 168.235 123.949 167.516 124.135C166.349 124.437 164.464 125.349 162.318 126.237C160.872 126.835 159.868 127.069 159.279 127.167C158.821 127.243 159.137 126.146 159.371 125.592C159.649 124.932 160.352 124.266 161.151 123.501C161.981 122.705 163.972 121.808 167.414 120.597C171.796 119.056 174.674 118.836 175.051 118.878C176.005 118.985 176.949 119.775 178.222 119.825C179.539 119.877 181.614 119.057 182.599 119.03C183.387 119.008 183.629 120.067 184.302 120.686C184.575 120.937 185.172 121.016 185.341 121.1C185.765 121.313 183.673 120.926 182.662 121.111C182.164 121.202 181.821 121.668 181.514 122.013C180.855 122.753 181.04 124.052 181.129 124.849C181.31 126.479 185.67 126.996 187.79 127.828C188.335 128.042 188.984 128.137 189.327 128.106C190.596 127.992 189.687 125.035 189.457 124.31C189.069 123.089 188.101 122.046 187.946 121.118C187.761 120.012 188.152 119.215 188.435 118.402C188.568 118.018 188.252 117.643 187.981 117.378C187.726 117.129 186.536 116.816 184.997 116.299C184.431 116.11 184.372 115.885 184.341 115.347C184.17 112.377 184.925 110.892 185.016 110.463C185.058 110.264 184.94 110.087 184.779 109.972C183.531 109.078 181.053 109.335 180.308 108.934C179.375 108.432 179.764 106.596 179.29 105.7C178.977 105.11 178.162 105.041 177.804 104.748C177.127 104.195 176.704 101.075 176.216 99.3107C175.907 98.1921 174.796 97.4179 174.001 96.7486C173.674 96.4724 173.318 96.2545 172.74 96.1753C171.116 96.2815 169.835 97.1235 167.896 98.2022C167.134 98.4969 166.05 98.807 165.073 99.151" stroke="#FF5900" stroke-opacity="0.8" stroke-width="2" stroke-linecap="round"/>
<path d="M165.211 99.6748C165.182 99.6748 164.937 99.6469 164.498 99.5292C163.507 99.2633 162.607 97.5245 162.001 96.618C161.294 95.5592 161.465 93.3161 161.088 92.3013C160.797 91.5165 159.27 91.3729 156.133 90.7324C153.03 90.0986 151.43 89.8023 150.278 89.5821C149.212 89.3783 148.197 89.6688 147.203 89.7691C146.851 89.8048 146.858 90.0703 146.93 90.3197C147.347 91.7631 148.542 93.8263 148.817 95.5083C149.267 98.2668 149.574 100.304 150.419 103.481C151.496 107.533 150.759 110.236 150.577 110.556C150.168 111.275 148.938 110.976 148.641 111.393C146.916 113.813 148.255 116.685 148.011 116.958C147.451 117.584 145.467 117.521 144.26 117.288C143.781 117.196 143.49 116.681 143.213 116.342C142.71 115.726 142.823 113.903 142.502 112.396C142.255 111.238 141.12 110.769 139.293 109.758C137.219 108.611 136.225 107.277 134.813 106.25C133.739 105.469 132.116 105.773 128.112 105.05C126.322 104.727 125.357 103.263 124.636 102.253C123.661 100.887 123.541 99.4729 123.021 98.6076C122.237 97.3064 121.176 96.4721 120.958 95.5857C120.682 94.4619 121.828 93.3309 123.497 90.5963C124.796 88.4669 125.322 86.947 125.618 86.692C126.343 86.0684 127.505 85.7316 128.292 85.4787C128.832 85.305 129.375 85.2616 129.791 85.0812C130.233 84.8503 130.597 84.4295 130.826 83.8724C130.926 83.6047 130.992 83.3675 131.092 82.9741" stroke="#FF5900" stroke-opacity="0.8" stroke-width="2" stroke-linecap="round"/>
<path d="M130.526 84.5476C130.474 84.3271 128.66 82.7699 127.536 81.6302C127.198 81.2866 127.601 80.6466 127.861 80.2153C127.98 80.0179 128.103 79.8828 128.3 79.7747C130.153 78.7572 134.003 79.8957 134.832 80.5438C135.848 81.3377 136.013 83.6931 136.376 84.9458C136.493 85.3494 136.43 86.0131 136.574 86.3542C136.717 86.6953 136.984 86.7091 137.209 86.6938C137.993 86.6408 139.998 84.8272 141.835 83.6173C142.289 83.3183 142.799 83.3973 143.204 83.483C143.636 83.5744 143.881 84.1551 143.963 84.3673C144.679 86.2337 138.826 80.7265 137.027 79.4933C136.268 78.9732 136.106 78.2222 136.096 77.8166C136.044 75.5308 141.492 75.0767 142.234 74.371C143.045 73.5985 142.992 71.9685 143.024 69.6609C143.032 69.036 142.607 68.2255 142.102 67.2134C141.583 66.1748 140.007 66.459 139.171 66.4909C137.269 66.5633 135.48 70.9982 134.524 72.473C134.036 73.2255 132.789 73.6805 131.914 73.7147C130.528 73.7688 131.154 70.7024 130.624 70.002C129.928 69.0842 128.148 69.5067 127.193 69.4097C126.207 69.3096 126.123 66.9128 125.143 65.2025C124.76 64.5342 124.43 64.1562 124.416 63.8069C124.383 62.9826 124.734 62.1668 124.669 61.6345C124.577 60.8788 123.314 60.6275 122.859 59.9476C122.661 59.6528 122.715 59.0376 122.753 58.3611C122.892 55.9541 127.547 53.95 127.909 53.393C128.052 53.1744 127.934 52.9938 127.676 52.8544C126.412 52.1721 125.472 52.0965 124.26 52.0562C123.224 52.0218 121.7 53.5398 120.152 55.4103C119.121 56.6566 118.914 57.9421 118.784 59.1786C118.245 64.3003 117.612 66.4018 117.653 67.3538C117.696 68.3369 119.159 68.5941 119.478 69.418C119.757 70.1392 119.458 70.8255 119.296 71.1545C119.214 71.3207 119.09 71.4621 118.89 71.5656C118.441 71.7991 116.862 71.8606 114.874 72.0277C113.14 72.1736 112.252 74.4243 111.45 74.9059C109.879 75.8498 107.395 75.0134 105.771 73.9527C104.558 73.1601 102.427 73.3035 100.867 73.477C100.353 73.5342 99.9665 73.8517 99.6564 74.1295C98.8456 74.8561 98.559 76.0265 97.8913 76.5467C96.3714 77.731 93.3206 76.8544 90.0774 75.9516C88.406 75.4863 87.605 74.1551 87.0189 73.0962C86.9309 72.8288 86.841 72.4859 86.7279 72.2482C86.6149 72.0105 86.4814 71.8885 85.9783 71.6651" stroke="#FF5900" stroke-opacity="0.8" stroke-width="2" stroke-linecap="round"/>
<path d="M86.7474 71.9842C85.8004 71.9458 82.6216 71.6546 81.1427 71.5224C80.6914 71.482 78.277 71.476 74.7896 71.4649C72.4388 71.4574 70.0865 70.1154 68.4348 69.5258C67.7451 69.2796 65.5132 69.3269 62.4812 69.4203C60.6431 69.4769 58.4802 70.6935 55.989 71.9981C54.3729 72.8444 53.3149 73.5524 48.4608 73.8658C46.7755 73.9746 45.5907 73.2762 44.6413 73.1173C44.3644 73.0409 43.9957 72.9072 43.6839 72.8241C43.3721 72.741 43.1283 72.7125 42.7229 72.6379" stroke="#FF5900" stroke-opacity="0.8" stroke-width="2" stroke-linecap="round"/>
<path d="M42.5501 72.5449C42.5387 72.5449 39.4753 72.4619 34.113 72.1459C30.306 71.9215 28.1285 70.8952 26.791 70.466C24.1592 69.6215 21.3423 70.0468 18.4901 70.1473C16.0513 70.2333 14.1166 70.1059 10.6783 71.9885C7.64941 73.647 6.70834 74.9865 4.81064 76.9677C3.59366 78.2382 3.4421 79.5644 3.44026 79.9529C3.43565 80.926 4.84026 81.6155 7.08454 83.5368C8.04274 84.3572 8.69064 84.352 8.99329 84.4893C9.14314 84.5572 9.21759 84.7382 9.26275 84.9058C9.30791 85.0734 9.30418 85.2521 9.22743 85.4106C8.87182 86.145 7.53521 86.3975 3.43217 86.7565C2.35941 86.8504 1.98669 87.0289 1.67236 87.2417C1.30715 87.4888 1.09355 88.1561 1.00378 88.8472C0.966187 89.1367 1.23592 89.3031 1.45275 89.4191C3.20805 90.3579 6.5682 89.5975 7.65639 89.6174C8.41195 89.6312 8.68038 90.6923 8.8983 91.4379C9.02208 91.8614 8.86944 92.2901 8.68381 92.6382C7.90966 94.09 5.20157 94.5484 4.53476 95.4424C3.4407 96.9093 3.77056 99.9066 4.30043 101.87C4.56104 102.835 5.99174 102.932 8.4833 103.153C9.65653 103.257 10.9513 104.601 12.2026 105.386C13.3509 106.107 14.1016 105.635 14.3712 105.862C14.6968 106.136 14.5981 106.682 14.4767 107.085C14.1536 108.158 10.2428 109.867 7.81851 111.701C5.98882 113.086 5.61321 114.972 5.49496 115.302C5.43405 115.471 5.39755 115.655 5.52878 115.775C5.87628 116.093 6.54549 115.947 7.26119 115.725C8.38311 115.378 10.8413 113.868 14.0779 111.815C16.4446 110.314 17.4876 109.333 18.3712 107.928C20.4712 104.589 21.8847 101.967 22.6103 101.294C24.8974 99.1748 26.8549 98.7225 27.5579 98.6195C27.8508 98.5766 28.0237 98.6423 28.114 98.8198C28.6009 99.7764 27.826 101.059 26.1135 103.989C25.7583 104.597 25.6875 104.789 25.7353 104.911C25.783 105.032 25.9539 105.078 26.2784 104.945C27.9661 104.251 28.4701 103.128 29.0044 102.079C30.569 99.0086 31.2194 97.5583 31.5583 97.2582C31.8646 96.9869 32.3919 97.0911 32.8669 97.1767C33.7188 97.3301 34.4988 98.4354 35.6201 99.2804C36.5194 99.9581 37.5283 100.198 38.8068 100.498C41.4117 101.107 43.8633 101.565 45.3396 102.167C46.8727 102.792 48.4578 103.864 50.0743 104.996C50.8352 105.529 51.5347 105.891 52.9314 106.999C56.4974 109.826 58.6491 111.96 58.8194 112.335C59.0302 112.798 59.1285 113.269 59.1498 113.636C59.1698 113.982 58.5687 114.307 58.0365 114.915C57.9192 115.05 58.0558 115.257 58.1722 115.387C58.6647 115.934 61.3715 115.87 63.0294 115.715C63.2203 115.697 63.3572 115.496 63.4696 115.347C63.6843 115.064 63.7103 114.298 63.7641 113.513C63.7753 113.348 64.4381 114.638 65.4746 117.401C67.0702 121.655 67.9566 124.498 68.2394 124.866C68.973 125.818 70.5438 126.215 71.1524 126.456C72.1446 126.848 71.8847 128.119 72.0864 129.422C72.3929 131.404 72.6174 134.915 72.4522 136.255C72.3835 136.812 71.9085 139.136 71.4916 143.65C71.2655 146.097 71.3612 148.89 71.5326 150.997C71.9674 156.342 73.3319 157.737 73.9654 158.536C74.7326 159.505 75.7284 159.78 76.6968 160.036C78.0622 160.397 81.3349 160.567 83.3844 161.202C83.9285 161.37 84.2513 161.755 84.569 162.128C85.1999 162.868 85.1151 165.939 85.8464 168.656C86.381 170.642 88.47 172.564 90.0426 174.64C90.7911 175.61 91.4388 176.411 91.8115 176.921C92.1841 177.43 92.262 177.624 92.3509 177.649" stroke="#FF5900" stroke-opacity="0.8" stroke-width="2" stroke-linecap="round"/>
<path d="M92.5254 176.9C92.5385 177.133 92.8159 177.875 93.4197 178.525C93.5651 178.681 93.7316 178.781 93.9054 178.845C94.0792 178.909 94.2686 178.92 94.3849 178.156C94.7324 175.874 94.5216 174.036 94.1235 173.285C92.6808 170.565 89.875 169.451 88.5808 168.504C88.2807 168.284 88.3153 167.567 88.388 166.874C88.4277 166.496 89.3863 166.573 90.3877 166.654C91.1738 166.719 92.7786 168.454 94.9248 170.928C97.0083 173.33 97.1997 175.108 97.7793 176.712C98.6456 179.11 100.402 181.378 101.553 184.18C102.036 185.356 105.672 186.551 107.822 187.425C109.007 187.907 111.541 190.233 113.84 192.129C114.804 192.923 117.347 192.799 119.749 193.357C120.549 193.543 122.256 195.007 124.61 196.864C125.837 197.831 126.481 198.204 128.148 199.194C129.545 200.024 132.142 201.378 133.579 202.174C135.252 203.102 136.42 204.08 138.236 205.464C141.812 207.187 144.744 207.818 145.502 207.878C145.89 207.898 146.282 207.898 146.961 207.949" stroke="#FF5900" stroke-opacity="0.8" stroke-width="2" stroke-linecap="round"/>
<path d="M71.7622 55.7504C71.7519 55.8659 71.6626 56.2599 71.3544 56.6471C71.1841 56.8611 70.9746 57.0506 70.8414 57.2693C70.742 57.4325 70.6927 58.2563 70.731 59.7472C70.7503 60.4948 70.942 61.215 71.0221 61.9311C71.2655 64.1052 71.2582 64.4987 71.5597 64.8443C71.8013 65.1212 72.397 65.1179 73.971 65.0914C75.1056 65.0723 75.9726 64.0821 76.7981 62.9427C77.4685 62.0174 77.7997 60.7909 78.1464 59.9272C78.2795 59.5956 78.3677 59.4983 79.1102 59.0377C79.8527 58.5771 81.2576 57.7608 82.3501 56.9816C83.4426 56.2025 84.1801 55.4852 84.6022 55.0855C85.2952 54.4291 85.7033 54.2432 85.8233 54.0904C86.1682 53.6515 85.7757 52.7727 85.3515 52.2069C84.7031 51.3422 83.3674 51.0648 82.3902 50.8514C81.6963 50.6998 80.5731 50.6012 79.7572 50.5355C78.4628 50.4314 77.8035 50.5214 77.298 50.6753C76.9498 50.7812 76.4277 50.981 75.6289 51.2131C74.83 51.4452 73.7734 51.713 73.037 51.8539C71.9273 52.0662 71.4394 52.1116 71.2873 52.3256C70.9854 52.7504 71.0185 53.7988 71.1543 54.6253C71.2224 54.802 71.3263 55.0081 71.424 55.1709C71.5217 55.3336 71.6101 55.4468 71.7011 55.5635" stroke="#FF5900" stroke-opacity="0.8" stroke-width="2" stroke-linecap="round"/>
<path d="M81.5076 60.927C81.5076 61.2983 81.5792 62.1744 81.7277 62.3528C81.9864 62.6637 82.6486 62.6978 84.0184 62.7864C85.0232 62.8514 86.6635 62.8143 87.5543 62.83C88.4452 62.8457 88.5385 62.8788 88.6173 62.9273C88.7697 63.021 88.8661 63.1835 88.9506 63.3599C89.2216 63.9255 89.0267 64.8809 88.762 65.4229C88.5014 65.9568 87.9273 66.2107 86.9468 66.5288C85.3703 67.0403 84.2429 67.1342 84.2369 67.3161C84.2337 67.4141 84.2545 67.5236 84.3306 67.6217C84.4067 67.7197 84.5436 67.8031 85.2795 67.9248C86.0155 68.0464 87.3464 68.2039 88.147 68.3157C89.6945 68.5319 90.2954 69.0954 90.5471 69.3991C90.7919 69.6946 91.0021 70.0052 91.3358 70.1826C91.8259 70.4431 92.2582 70.4883 92.8949 70.5128C94.4621 70.5731 95.5921 70.5381 95.8265 70.5803C96.7196 70.7412 97.6028 70.6719 98.8837 70.0042C99.2807 69.7972 99.7647 69.7187 100.609 69.6433C101.732 69.5431 102.504 69.6418 102.8 69.6957C104.071 69.9271 105.576 69.9225 105.962 69.7726C106.451 69.5823 106.948 68.6358 107.175 68.1381C107.364 67.7227 107.191 66.9164 106.734 65.7446C106.554 65.2821 106.3 64.9525 105.832 64.3773C105.493 63.9602 104.907 63.3225 104.267 62.4695C103.627 61.6166 102.94 60.5763 102.523 59.8742C101.927 58.8696 101.826 58.3737 101.785 58.033C101.722 57.5112 101.782 57.0196 102.02 56.2581C102.53 54.6301 103.056 53.5047 103.094 53.2359C103.138 52.9323 103.081 52.6696 102.976 52.5072C102.763 52.1771 102.024 52.1817 100.675 52.1447C99.8248 52.1213 99.2594 52.7276 98.7435 53.3312C98.5683 53.5361 98.4154 53.8745 98.0696 54.72C97.7238 55.5656 97.2175 56.929 96.9208 57.6976C96.57 58.6059 96.4166 58.8249 96.2955 58.9863C96.0785 59.2757 94.6496 59.2825 93.463 59.0943C92.6043 58.9582 92.0047 58.3891 91.5683 58.0393C90.4237 57.1215 90.0868 56.8311 89.0579 56.6356C88.5861 56.5459 88.2836 56.5876 88.1184 56.6065C87.9433 56.6266 87.1134 57.2983 85.7636 58.2553C84.3344 59.2685 83.746 59.4204 83.4675 59.754C83.3705 59.8903 83.2278 60.1013 83.1058 60.2687C82.9838 60.436 82.8869 60.5533 82.7007 60.6802" stroke="#FF5900" stroke-opacity="0.8" stroke-width="2" stroke-linecap="round"/>
<path d="M112.166 52.1011C112.159 52.1011 111.906 52.1011 111.492 52.114C111.254 52.1213 110.722 52.7787 109.929 53.857C109.355 54.6365 109.022 55.6073 108.706 56.5995C108.51 57.2146 108.513 57.5957 108.531 57.8527C108.554 58.1934 108.856 58.4709 109.277 58.8155C110.131 59.5145 110.469 59.7029 110.85 60.3336C111.048 60.6625 111.379 60.7919 112.015 60.9744C112.429 61.0935 113.651 60.1084 114.647 59.201C114.847 59.0195 114.913 58.829 115.094 58.0625C115.254 57.388 115.475 56.1172 115.601 55.302C115.777 54.1674 115.712 53.7458 115.644 53.5804C115.496 53.2184 115.195 52.9942 114.402 52.6027C113.975 52.4332 113.277 52.1807 112.805 52.0472C112.333 51.9137 112.108 51.9069 111.693 51.8633" stroke="#FF5900" stroke-opacity="0.8" stroke-width="2" stroke-linecap="round"/>
<path d="M143.324 54.3531C143.274 54.2497 142.434 53.351 141.479 52.5697C140.962 52.146 140.029 51.9165 139.028 51.7141C138.565 51.6205 138.182 51.6151 137.331 51.4986C136.48 51.3822 135.168 51.1725 134.316 51.0648C133.115 50.9129 132.66 50.9876 132.482 51.0625C132.059 51.2407 131.341 52.148 130.613 53.402C130.169 54.1662 130.317 55.888 130.433 56.7157C130.559 57.6255 131.278 58.3544 131.367 58.8809C131.47 59.4937 130.827 60.2392 130.608 60.7577C130.433 61.1746 131.139 61.3115 132.289 61.7749C133.333 62.1956 135.341 62.9195 136.418 63.3079C137.58 63.7271 138.024 63.7206 138.604 63.7105C138.968 63.7042 140.046 63.3069 141.831 62.5661C143.421 61.9059 144.282 61.2477 144.651 61.0939C145.126 60.8956 146.033 60.875 146.686 60.99C146.964 61.0391 147.317 61.492 147.853 62.1141C148.466 62.8265 148.973 63.6156 149.993 64.4652C150.69 65.0459 151.872 65.7766 152.522 66.2238C153.297 66.7566 153.674 67.2403 154.297 68.2147C155.186 69.6082 155.63 70.7702 156.1 71.3633C157.461 73.0828 157.963 73.7271 158.158 74.3787C158.509 75.5543 158.337 76.1545 158.234 76.6359C158.195 76.8229 158.019 76.9321 157.875 77.0438C157.448 77.3749 156.427 77.3463 155.913 77.2691C155.828 77.2564 155.752 77.1893 155.671 77.1918C155.303 77.2031 154.861 77.6274 154.251 77.9457C153.241 78.4726 152.908 78.769 152.694 79.1766C152.631 79.2967 152.635 79.4764 152.545 79.5137C152.037 79.7227 151.693 79.1558 150.804 79.1275C150.517 79.1184 150.332 79.2594 150.171 79.3974C149.795 79.719 150.007 80.6077 149.855 80.929C149.822 80.9998 149.785 81.0672 149.806 81.1242C149.828 81.1812 149.904 81.2236 150.044 81.2454C150.184 81.2673 150.386 81.2673 150.582 81.2673" stroke="#FF5900" stroke-opacity="0.8" stroke-width="2" stroke-linecap="round"/>
<path d="M150.583 81.2672C150.585 81.6948 150.62 82.6294 150.695 82.7822C150.768 82.9311 151.019 83.0514 151.865 83.1881C152.542 83.2975 153.745 83.2878 154.548 83.3519C155.729 83.4462 156.346 83.7009 156.834 83.9545C157.358 84.2274 157.715 84.5835 158.211 84.9459C158.565 85.204 159.168 85.5502 160.577 86.2033C161.986 86.8564 164.193 87.7898 165.506 88.3723C167.188 89.1189 167.623 89.3514 167.791 89.293C167.874 89.2638 167.933 89.1824 167.97 89.0522C168.147 88.429 167.823 87.8563 167.5 87.3366C166.976 86.4928 166.177 86.0708 166.192 85.9122C166.2 85.8341 166.277 85.776 166.362 85.7266C166.447 85.6773 166.557 85.6422 166.693 85.6413C167.94 85.6338 169.356 87.4992 169.752 87.6534C169.83 87.6835 169.914 87.6672 169.984 87.6432C170.054 87.6191 170.112 87.5711 170.157 87.485C170.259 87.2886 170.261 86.7587 170.173 85.7409C170.045 84.248 169.692 83.2776 169.32 82.7313C169.014 82.2833 168.398 81.542 167.955 80.9255C167.204 79.8801 166.626 78.9888 165.854 78.1401C164.347 76.4848 164.009 76.1815 163.925 75.8752C163.903 75.7946 163.941 75.7008 163.989 75.6215C164.204 75.261 164.691 75.169 165.302 75.0873C166.215 74.9655 166.975 75.0861 167.287 75.1873C167.622 75.2963 168.298 75.9369 169.162 76.741C170.264 77.7661 170.798 79.4715 171.144 79.809C171.873 80.5205 172.87 80.6877 173.567 80.8091C174.615 80.9913 175.304 80.6908 175.845 80.4126C176.077 80.2933 176.222 80.1048 176.347 79.9181C176.499 79.6904 176.554 79.3215 176.623 78.6481C176.746 77.4454 176.612 76.4948 176.39 75.9777C176.028 75.1331 175.546 74.5539 175.328 74.2891C174.701 73.5279 173.451 72.8203 172.444 72.2053C171.837 71.8345 170.634 71.3548 169.389 70.8315C168.144 70.3083 166.86 69.8184 165.965 69.4307C164.58 68.8298 164.083 68.4145 164.015 68.2537C163.95 68.0993 164.047 67.9105 164.189 67.7334C164.352 67.53 165.116 67.2434 166.287 66.822C167.324 66.4487 167.921 66.3556 168.005 66.1959C168.085 66.0424 168.05 65.7891 168.014 65.5067C167.98 65.2488 167.476 64.6859 166.595 63.5299C166.078 62.852 165.499 61.9299 165.081 61.3796C164.5 60.6157 163.819 60.2877 162.688 59.779C161.962 59.4527 160.89 59.0805 159.917 58.6727C158.945 58.265 158.095 57.8564 157.522 57.5361C156.646 57.0471 156.032 56.3723 155.32 55.6508C154.708 55.0307 154.137 54.745 153.667 54.5544C153.395 54.444 153.032 54.3664 151.898 54.2938C150.765 54.2212 148.867 54.1714 147.935 54.0862C147.003 54.0009 147.093 53.8816 147.161 53.7894C147.229 53.6973 147.271 53.6358 147.251 53.603C146.727 53.7124 145.95 54.0232 145.699 54.0455C145.535 54.0542 145.296 54.0577 144.906 54.1213" stroke="#FF5900" stroke-opacity="0.8" stroke-width="2" stroke-linecap="round"/>
<path d="M149.675 71.3457C149.675 71.3402 149.675 71.6991 149.689 72.2891C149.707 73.0275 150.694 73.5816 151.135 73.7734C151.437 73.9052 151.955 73.8907 152.463 73.874C152.655 73.8677 152.708 73.7973 152.758 73.7065C152.975 73.3068 152.963 72.5953 152.815 71.9466C152.673 71.3244 151.613 70.8015 150.942 70.6261C150.641 70.5989 150.429 70.6348 150.292 70.7196C150.228 70.7653 150.174 70.8164 150.044 70.9155" stroke="#FF5900" stroke-opacity="0.8" stroke-width="2" stroke-linecap="round"/>
<path d="M74.3059 44.1067C74.3059 44.0998 74.3853 43.9925 74.8297 43.4728C75.1894 43.0522 75.8432 42.3317 77.4772 41.0996C79.1112 39.8674 81.7111 38.1502 83.8926 36.8497C86.074 35.5492 87.7583 34.7175 88.7219 34.2031C90.2232 33.4015 90.6061 32.5608 91.232 31.7818C91.5425 31.3953 92.1337 31.2807 93.3063 31.1047C94.7795 30.8837 95.8489 31.0384 96.0561 31.0833C96.2437 31.124 96.3706 31.2591 96.4873 31.4107C96.8124 31.8333 96.7253 32.6937 96.4405 33.61C96.2682 34.1644 95.304 34.8459 94.2566 35.731C93.5112 36.3609 92.8144 36.7011 91.3982 37.2073C90.3259 37.5906 88.4724 38.041 86.8622 38.4009C85.252 38.7608 83.9252 38.9682 83.1887 39.0945C82.3424 39.2397 82.1705 39.3516 82.0463 39.4658C81.7827 39.708 81.7288 40.1279 81.7626 40.7261C81.7941 41.2819 82.7429 41.6282 83.8687 42.0545C84.3733 42.2456 85.218 42.3825 86.0793 42.5117C87.8012 42.7699 88.8162 42.7944 89.4189 43.027C90.8082 43.5631 91.8653 44.0924 92.2209 44.1837C93.2425 44.4463 94.8936 44.2167 95.6302 43.9657C96.3401 43.7238 96.8903 43.0083 97.3872 42.3714C97.8335 41.7994 97.8804 41.1747 97.9167 40.7562C97.9318 40.5821 97.8237 40.4112 97.8214 40.2589C97.8061 39.2679 100.131 40.1125 100.314 40.2178C100.512 40.3319 100.634 40.6038 100.905 41.2247C101.889 43.4824 102.019 43.8713 102.301 44.0337C102.626 44.2208 103.204 44.0785 103.822 43.8172C104.194 43.66 104.526 43.293 105.042 42.7126C105.907 41.7381 106.407 40.8356 106.599 40.4453C106.997 39.638 107.093 38.2255 107.028 37.1475C106.986 36.446 105.811 35.8289 105.076 35.4818C104.903 35.4 104.73 35.448 104.598 35.5238C104.438 35.6161 104.467 35.8818 104.53 36.006C104.874 36.6816 105.868 36.2882 106.715 36.7416C107.598 37.2138 108.312 37.9951 109.024 38.943C110.161 40.456 110.656 41.6244 110.749 41.7962C110.853 41.9884 111.049 42.1111 111.297 42.1769C111.907 42.3383 112.376 42.1224 112.891 41.8462C113.085 41.7428 113.319 41.5347 113.483 41.4633C113.647 41.3919 113.721 41.4418 113.781 41.6159C114.179 42.7541 113.919 44.1042 113.57 45.0775C113.144 46.2632 111.986 46.8715 111.37 47.1632C111.003 47.3365 109.954 47.3192 108.431 47.2598C107.714 47.2319 107.12 47.05 106.301 46.8102C104.451 46.268 103.317 45.8761 102.914 45.8447C101.288 45.7181 100.609 45.9937 99.7542 46.4425C99.1015 46.7852 98.0509 47.4471 97.4009 47.8113C96.5644 48.2799 96.0693 48.3666 94.5926 48.4566C93.3817 48.5304 91.2269 48.5158 89.496 48.7299C87.7652 48.9441 86.5219 49.3503 85.8197 49.566C85.0005 49.8176 84.7457 49.8039 84.5104 49.772C84.0373 49.7079 83.3477 48.5376 82.8306 47.8895C82.6137 47.6175 82.0701 47.3265 81.3863 46.9588C80.7383 46.6104 79.5846 46.0042 78.2914 45.1753C77.2423 44.4461 76.7258 44.2046 76.581 44.1353C76.5131 44.0954 76.4564 44.0461 76.398 43.9953" stroke="#FF5900" stroke-opacity="0.8" stroke-width="2" stroke-linecap="round"/>
<path d="M107.438 27.7325C106.573 27.719 104.552 27.7682 104.145 27.9128C104.049 27.9466 103.982 28.0319 103.935 28.1106C103.843 28.263 103.871 28.5071 103.94 28.7745C104.006 29.0305 104.481 29.4217 105.102 29.9621C105.589 30.386 106.334 30.7225 107.568 31.1756C109.29 31.8075 110.559 32.0302 110.925 32.1978C111.28 32.3602 111.587 32.5984 111.922 32.9087C112.372 33.3248 113.044 34.4063 113.79 35.5137C114.029 35.8676 114.121 35.6952 114.146 35.1711C114.214 33.7517 114.105 32.636 113.912 32.0767C113.589 31.1405 113.212 30.5032 113.075 30.3022C112.941 30.1037 112.397 29.6856 111.497 29.0617C110.614 28.5411 109.683 27.9609 108.886 27.385C108.572 27.1502 108.444 27.0322 108.312 26.9106" stroke="#FF5900" stroke-opacity="0.8" stroke-width="2" stroke-linecap="round"/>
<path d="M112.236 22.7815C112.243 22.7748 112.179 22.8465 112.074 23.0658C111.768 23.7075 112.335 24.31 112.677 24.6605C113.05 25.0432 114.068 25.0259 114.698 24.98C115.282 24.9376 114.802 23.5674 114.668 23.1997C114.577 23.0584 114.405 22.9026 114.052 22.6774C113.822 22.5417 113.487 22.3627 113.142 22.1782" stroke="#FF5900" stroke-opacity="0.8" stroke-width="2" stroke-linecap="round"/>
<path d="M115.814 29.2619C115.814 29.6078 115.855 30.3825 115.969 30.5485C116.1 30.7395 116.346 30.7907 117.234 30.8476C118.032 30.8986 119.537 30.9192 120.239 30.901C120.941 30.8827 120.796 30.8057 120.155 30.3693C119.515 29.9329 118.384 29.1395 117.745 28.7044C116.993 28.2167 116.799 28.1514 116.618 28.1465C116.516 28.1525 116.391 28.1757 116.263 28.1996" stroke="#FF5900" stroke-opacity="0.8" stroke-width="2" stroke-linecap="round"/>
<path d="M120.345 43.7559C120.263 43.8654 119.98 44.5681 119.865 45.8286C119.843 46.0739 119.898 46.1724 119.94 46.2488C119.982 46.3252 120.038 46.3773 120.149 46.4089C120.713 46.5692 121.114 46.2954 121.271 46.1491C121.366 45.9855 121.4 45.617 121.391 45.1364C121.379 44.9362 121.354 44.8245 121.328 44.7094" stroke="#FF5900" stroke-opacity="0.8" stroke-width="2" stroke-linecap="round"/>
<path d="M126.285 34.2271C125.198 34.2322 122.86 34.373 122.663 34.6249C122.104 35.3389 121.945 36.8627 121.933 37.4061C121.915 38.189 123.169 39.4854 123.724 40.0252C124.193 40.4812 125.927 40.9097 126.881 41.3166C127.277 41.4858 127.348 42.1821 127.467 43.0672C127.528 43.5125 127.492 44.2917 127.563 44.7129C127.635 45.134 127.77 45.1775 128.416 45.1981C129.062 45.2186 130.215 45.215 131.798 45.0126C133.381 44.8101 135.36 44.409 136.536 44.1985C137.712 43.9879 138.025 43.9802 138.246 44.0095C138.596 44.056 139.121 44.523 139.867 45.1222C140.875 45.9323 141.889 46.0684 142.493 46.146C143.125 46.2272 144.005 45.5764 144.832 44.6705C145.479 43.9613 145.715 43.2168 145.812 42.7852C146.109 41.4662 145.581 40.7873 145.278 40.3764C145.005 40.0054 144.473 39.7368 143.37 39.3125C142.904 39.1335 142.068 39.1623 141.077 39.1651C140.69 39.1662 140.54 39.1855 139.628 39.43C138.716 39.6746 137.047 40.1488 136.004 40.4715C134.032 41.0822 133.571 41.2783 132.873 41.2538C132.46 41.2394 132.045 40.4561 131.497 39.1708C131.263 38.6224 131.139 37.3663 130.941 35.8413C130.855 35.1724 130.734 34.9741 130.603 34.81C130.475 34.6489 130.184 34.5871 129.476 34.5471C128.065 34.5371 127.032 34.5561 126.785 34.5937C126.664 34.615 126.553 34.641 126.381 34.6736" stroke="#FF5900" stroke-opacity="0.8" stroke-width="2" stroke-linecap="round"/>
<path d="M124.48 25.5881C123.819 25.5881 122.441 25.5497 122.045 25.3356C121.445 25.0113 120.949 23.7182 120.614 22.2081C120.138 20.0681 120.608 19.715 120.714 19.5448C120.85 19.3272 121.928 18.8824 123.325 18.2419C123.912 17.973 124.325 17.9791 125.569 18.1521C126.516 18.2837 128.071 18.6895 129.025 18.9381C130.29 19.2679 131.057 19.7437 131.881 20.2859C132.237 20.5206 132.447 20.7043 132.957 21.2595C133.466 21.8147 134.262 22.7438 134.81 23.4516C135.683 24.5805 136.064 25.4982 136.316 26.2299C136.504 26.7731 136.578 28.0653 136.632 29.708C136.654 30.4047 136.582 30.5884 136.506 30.7357C136.432 30.8799 136.304 31.0001 136.075 31.1712C135.674 31.47 134.505 31.9439 132.901 32.5303C130.843 33.2824 130.002 32.9481 129.721 32.7905C129.447 32.6365 128.812 31.4808 127.735 29.7335C127.25 28.945 126.801 28.4107 126.428 27.8427C125.366 26.0317 125.152 25.8088 125.01 25.7044C124.934 25.6545 124.848 25.6111 124.71 25.5552" stroke="#FF5900" stroke-opacity="0.8" stroke-width="2" stroke-linecap="round"/>
<path d="M128.406 15.2699C128.398 15.2659 128.39 15.2619 128.444 15.2204C128.499 15.1789 128.616 15.1 129.837 15.0196C131.057 14.9391 133.377 14.8595 135.205 14.792C137.033 14.7245 138.298 14.6715 139.03 14.6523C140.25 14.6202 141.511 15.1588 142.464 15.3385C143.049 15.4488 144.183 15.2003 145.415 15.201C146.034 15.2013 146.286 15.2746 146.475 15.362C146.675 15.4543 146.759 15.7511 146.791 16.0886C146.851 16.7148 146.444 17.3958 145.655 18.4557C145.261 18.9856 144.823 19.1901 144.516 19.3507C144.067 19.5861 143.092 19.8047 141.711 20.0137C140.327 20.2232 139.449 20.0852 138.804 19.9149C137.431 19.5523 136.416 19.0549 136.027 18.7505C135.072 18.002 134.574 17.7008 133.926 17.5859C132.382 17.3124 131.231 17.2056 130.9 17.0161C130.457 16.6448 130.288 16.4253 130.18 16.2257C130.135 16.128 130.111 16.0377 130.076 15.8017" stroke="#FF5900" stroke-opacity="0.8" stroke-width="2" stroke-linecap="round"/>
<path d="M146.912 38.0356C146.906 38.0356 146.752 38.0299 145.616 37.6878C144.62 37.3877 142.819 36.6841 141.663 36.2894C140.076 35.7478 139.511 35.6559 139.336 35.5893C139.183 35.5305 139.044 35.3586 138.917 35.0399C138.555 34.13 138.973 33.388 139.43 32.4146C139.774 31.6809 140.431 30.5014 140.812 29.722C141.346 28.6306 141.423 28.1572 141.446 27.4229C141.465 26.7974 141.454 25.6577 141.472 25.0363C141.49 24.4148 141.525 24.346 142.064 24.1273C143.624 23.4938 144.896 23.0596 145.445 22.6781C145.824 22.4154 146.366 21.9588 146.938 21.403C147.509 20.8472 148.083 20.1923 148.588 19.5127C149.569 18.1907 150.029 17.2516 150.335 16.4034C150.965 14.6554 151.259 13.3069 151.24 12.9814C151.223 12.6993 151.018 12.5409 150.741 12.3737C150.19 12.0411 149.39 11.7826 148.183 11.5055C146.21 11.0529 144.874 10.9171 144.673 10.836C144.429 10.7374 144.206 10.5533 144.04 10.3573C143.964 10.2665 143.955 10.1546 143.978 10.0495C144.026 9.82599 144.601 9.50369 146.671 8.75714C148.261 8.18416 151.018 7.43543 153.257 6.90136C155.497 6.36728 157.156 6.12638 160.138 5.93277C163.12 5.73916 167.376 5.60014 169.763 5.56777C172.54 5.53011 173.091 5.74893 173.419 5.89078C174.115 6.19141 174.289 6.5294 174.491 6.98843C174.721 7.51063 174.423 8.48036 173.895 9.39195C173.737 9.66542 173.485 9.92472 172.852 10.5293C172.22 11.1339 171.186 12.0581 170.347 12.7365C169.507 13.415 168.895 13.8198 167.913 14.3013C166.931 14.7828 165.598 15.3288 164.767 15.7029C163.626 16.217 163.089 16.6935 162.258 17.7213C161.646 18.4779 160.816 19.8397 160.313 20.5796C159.809 21.3195 159.699 21.4289 159.138 21.8149C158.577 22.2009 157.568 22.8602 156.916 23.3522C155.546 24.3858 155.241 24.7709 154.608 24.8943C154.013 25.0101 153.559 24.9688 153.388 25.1371C153.103 25.4188 152.887 26.1035 152.576 27.1055C152.176 28.3953 152 29.2144 151.849 29.2986C151.416 29.5408 150.852 29.5836 150.55 29.7696C150.338 29.901 149.777 30.7787 149.037 31.944C148.731 32.4256 148.694 32.5847 148.658 33.2753C148.627 33.8867 148.627 35.0301 148.46 35.7285C148.293 36.4269 147.974 36.6463 147.76 36.7879C147.545 36.9294 147.444 36.9864 147.211 36.9416" stroke="#FF5900" stroke-opacity="0.8" stroke-width="2" stroke-linecap="round"/>
<path d="M181.185 10.5626C181.185 10.5549 180.643 10.5471 179.744 10.5552C179.227 10.5599 178.013 11.0225 176.02 11.8773C173.167 13.1013 172.567 13.9126 171.91 14.5485C171.136 15.2975 170.811 16.2613 170.135 16.796C169.376 17.3968 168.702 17.6696 168.455 18.0961C167.907 19.041 167.798 19.9897 167.848 20.3962C168.01 21.6979 169.705 22.5157 169.652 22.8081C169.627 22.9483 169.461 23.0259 168.141 23.5148C166.821 24.0036 164.315 24.8898 162.627 25.5651C160.1 26.5756 159.069 27.3278 158.57 27.6916C158.124 28.0165 157.655 28.1927 157.346 28.4049C157.095 28.5775 157.701 29.2959 158.557 30.1278C159.449 30.995 160.384 31.7811 161.247 32.95C162.451 34.5803 163.332 35.926 163.824 36.4285C164.269 36.8836 165.692 37.3351 167.325 37.5862C168.005 37.6909 169.216 37.5764 170.88 37.5419C172.544 37.5074 174.633 37.4541 176.226 37.4928C178.859 37.5567 180.45 37.9367 181.308 38.1511C181.745 38.2602 181.973 38.2616 182.154 38.3309C182.357 38.4086 182.305 40.1041 182.5 42.6413C182.641 44.467 183.732 45.5984 184.305 46.6001C185.289 48.5663 186.141 49.9722 186.376 50.2042C186.496 50.3138 186.615 50.4067 186.879 50.6922" stroke="#FF5900" stroke-opacity="0.8" stroke-width="2" stroke-linecap="round"/>
<path d="M186.88 50.6919C186.879 51.3032 186.825 52.9793 186.829 54.6858C186.833 56.3763 188.17 58.4027 188.618 59.2659C188.742 59.5061 189.003 59.5754 189.242 59.6043C189.762 59.6672 190.234 59.2813 190.479 59.2585C190.6 59.2473 190.712 59.3335 190.811 59.4567C190.91 59.5799 190.992 59.7622 190.997 59.9077C191.021 60.6139 189.461 60.7002 189.073 61.1511C188.822 61.4439 188.825 62.2891 188.839 63.2428C188.845 63.6116 188.943 63.742 189.156 63.8963C190.154 64.6202 191.527 64.5022 192.514 64.2482C192.695 64.2017 192.806 64.0484 192.877 63.8158C193.051 63.2477 192.93 62.6805 192.95 62.3855C192.958 62.2587 193.143 62.2237 193.287 62.2133C193.431 62.2029 193.573 62.2298 193.696 62.3016C194.307 62.6581 194.402 63.818 194.414 65.2385C194.418 65.6875 193.516 66.5738 192.171 67.8365C190.796 69.1282 189.687 70.3042 189.135 71.1616C189.103 71.4484 189.123 71.734 189.173 71.9779C189.203 72.1021 189.241 72.2272 189.454 72.5399" stroke="#FF5900" stroke-opacity="0.8" stroke-width="2" stroke-linecap="round"/>
<path d="M189.427 72.2921C189.427 72.3063 189.427 72.7973 189.855 74.7675C190.182 76.2791 191.136 78.7288 191.707 80.2739C192.279 81.819 192.541 82.3595 192.858 83.1133C193.568 84.8052 194.192 86.1911 195.213 87.3275C196.987 89.3013 198.647 90.4369 199.258 90.7779C200.519 91.4822 202.06 91.9349 203.393 92.6652C204.072 93.0375 204.587 93.259 204.873 93.295C205.164 93.3317 205.439 93.2518 206.149 92.7443C207.852 91.5271 208.952 90.4923 209.851 89.0926C210.692 87.7852 212.237 85.2185 213.14 83.6743C214.043 82.1301 214.237 81.6742 214.449 80.9582C215.359 77.8819 215.191 76.7508 215.326 76.5216C215.463 76.2908 216.485 75.8349 217.968 75.1764C219.791 74.3665 221.566 74.581 222.331 74.1511C223.067 73.7376 224.024 71.5567 224.676 70.4609C225.001 69.9166 226.169 69.7 227.515 68.991C227.885 68.7963 228.249 68.5302 229.383 67.9679C230.516 67.4057 232.394 66.5312 233.952 65.8768C235.51 65.2225 236.69 64.8148 237.763 64.3674C241.063 62.9903 241.603 62.0851 241.921 61.6384C242.357 61.0276 242.24 59.01 241.949 57.4048C241.872 57.1008 241.824 56.837 241.796 56.132C241.769 55.4271 241.764 54.289 241.739 53.0674" stroke="#FF5900" stroke-opacity="0.8" stroke-width="2" stroke-linecap="round"/>
<path d="M241.511 54.3566C241.511 54.3272 241.521 53.2122 241.553 51.487C241.567 50.7422 242.171 49.6505 243.635 47.256C244.524 45.8022 245.914 43.9938 246.945 42.6939C248.583 40.6284 249.45 39.8218 249.608 39.5123C250.118 38.518 249.821 37.0156 249.62 36.4808C249.15 35.2235 247.918 34.4681 247.469 33.4241C246.769 31.7982 247.245 29.6489 247.547 29.131C247.68 28.9041 247.832 28.7106 247.859 28.3863C247.938 27.4331 246.877 26.1684 246.274 25.2242C245.301 23.6997 245.245 22.8367 245.223 22.2361C245.235 22.0597 245.261 21.8711 245.277 21.709C245.294 21.547 245.3 21.4173 245.376 21.3618" stroke="#FF5900" stroke-opacity="0.8" stroke-width="2" stroke-linecap="round"/>
<path d="M245.313 21.5635C245.313 20.9732 245.369 19.6341 245.584 19.1733C245.682 18.9632 246.124 18.5329 247.752 17.2862C248.991 16.3369 251.238 14.9746 252.901 14.0301C254.563 13.0857 255.617 12.6592 256.409 12.268C258.464 11.2539 259.294 9.94188 259.713 8.9564C259.901 8.51359 259.635 8.04204 259.438 7.75651C259.08 7.236 258.083 7.10008 256.504 6.93014C255.395 6.81089 253.645 6.85574 251.499 7.1932C249.352 7.53065 246.857 8.21842 244.994 8.79321C241.95 9.73225 240.596 10.3032 240.188 10.3669C239.97 10.4009 239.724 10.3969 239.568 10.3306C239.292 10.2137 239.286 9.77061 239.303 9.38646C239.316 9.08066 240.302 7.53952 241.701 5.34586C242.194 4.57158 242.202 4.45596 242.212 4.33324C242.234 4.07734 242.124 3.80464 241.897 3.55043C241.457 3.05867 240.737 2.96293 237.968 2.60611C235.63 2.30469 231.365 2.0181 228.382 1.72223C225.399 1.42636 223.819 1.19614 222.656 1.07844C220.803 0.890792 219.557 1.0588 218.328 1.38113C216.697 1.80898 215.065 2.82642 213.785 3.65293C213.061 4.12059 212.687 4.46067 212.07 4.65727C211.055 4.98033 210.216 4.71637 209.674 4.56782C208.568 4.26434 207.252 3.91122 206.011 3.802C205.397 3.74801 204.811 3.77143 203.883 3.90151C201.687 4.2091 199.765 4.7702 198.772 5.17187C198.405 5.32028 198.377 5.48718 198.421 5.65382C198.691 6.66125 199.844 7.2382 201.03 8.01382C202.37 8.89036 202.939 9.67305 202.989 9.82047C203.347 10.8568 199.959 9.89965 199.171 9.45869C197.82 8.70248 197.406 8.3471 194.767 8.26058C192.676 8.27677 188.706 8.33745 186.615 8.40372C184.525 8.46998 184.435 8.53999 184.326 8.65456" stroke="#FF5900" stroke-opacity="0.8" stroke-width="2" stroke-linecap="round"/>
<path d="M180.183 9.68866C180.322 9.68866 180.874 9.58543 181.469 9.28467C181.875 9.08047 182.583 8.85571 183.653 8.68262C184.247 8.62115 184.942 8.61318 185.659 8.60498" stroke="#FF5900" stroke-opacity="0.8" stroke-width="2" stroke-linecap="round"/>
<path d="M241.613 77.8948C241.613 77.7496 241.454 77.1162 239.778 74.63C239.186 73.7516 238.421 73.4473 237.308 73.1779C236.866 73.0709 236.166 73.1046 235.785 73.2371C234.106 73.8207 235.222 77.0317 235.286 77.2893C235.434 77.886 237.07 78.5601 239.412 80.2605C241.812 82.0025 242.925 82.3068 243.51 82.8615C243.864 83.1969 244.021 83.6171 244.316 83.8102C245.276 84.4387 247.789 84.1639 249.109 84.0087C249.741 83.9345 250.646 83.3009 251.747 82.5611C252.759 81.8806 253.765 80.676 254.787 79.4107C255.432 78.6127 256.029 76.9187 256.732 74.7898C256.991 74.0052 256.989 73.8011 256.917 73.64C256.6 72.9321 255.639 72.8994 254.708 72.7824C253.453 72.6245 252.416 72.7672 251.243 73.112C250.28 73.3955 248.596 73.9954 247.1 74.5878C244.319 75.6889 242.939 76.4467 242.671 76.5891C242.527 76.6656 242.369 76.751 242.191 76.7977C242.013 76.8445 241.82 76.85 241.575 76.7966" stroke="#FF5900" stroke-opacity="0.8" stroke-width="2" stroke-linecap="round"/>
<path d="M262.407 103.854C262.385 104.057 261.954 104.769 260.605 105.911C259.648 106.721 258.816 108.412 258.496 109.305C257.951 110.831 258.375 112.501 258.606 113.657C258.818 114.713 258.35 115.555 258.19 116.273C258.15 116.454 258.167 116.699 258.225 116.865C258.284 117.031 258.41 117.114 258.547 117.16C258.819 117.253 259.157 117.188 259.811 116.89C261.126 116.292 262.352 115.188 263.412 114.106C264.653 112.838 265.495 111.264 266.124 110.163C266.694 109.167 266.591 107.443 266.112 106.348C265.831 106.09 265.371 105.732 264.903 105.415C264.435 105.099 263.973 104.835 263.419 104.533" stroke="#FF5900" stroke-opacity="0.8" stroke-width="2" stroke-linecap="round"/>
<path d="M271.052 115.343C271.026 115.462 270.856 115.935 270.788 116.96C270.746 117.582 271.301 117.906 271.507 118.239C271.559 118.325 271.465 118.461 271.379 118.568C271.198 118.792 270.39 119.102 269.062 119.566C268.388 119.801 267.687 119.956 267.4 120.075C267.189 120.162 268.525 120.317 270.419 120.307C271.19 120.303 271.572 120.245 272.302 120.075C273.033 119.905 274.1 119.609 275.142 119.234C276.183 118.859 277.165 118.414 277.833 118.076C278.847 117.564 279.268 117.189 279.488 116.942C279.735 116.667 280.169 115.621 280.772 113.965C281.307 112.5 281.334 111.618 281.287 111.403C281.237 111.178 280.071 110.253 278.478 108.87C277.438 107.967 277.072 106.361 276.773 105.484C276.53 104.771 275.167 103.788 274.414 103.064C273.967 102.633 273.287 102.333 272.623 102.202C272.523 102.183 272.497 102.079 272.68 101.84C273.69 100.521 274.309 99.9129 274.592 99.1994C274.937 98.3315 274.584 97.1942 274.203 96.6006C273.991 96.2703 273.62 96.0551 273.198 95.7883C272.615 95.4196 271.243 94.9899 269.509 94.5512C268.325 94.2515 267.715 94.4014 267.509 94.4526C266.533 94.6957 265.238 96.6448 264.747 97.4207C264.33 98.0815 264.591 98.9143 264.641 99.1408C264.859 100.132 267.006 100.412 268.524 100.479C268.954 100.498 269.186 100.606 269.401 100.772C269.781 101.064 269.604 102.804 269.466 104.726C269.332 106.592 269.791 107.532 270.171 108.194C270.396 108.585 270.819 108.839 270.998 109.363C271.4 110.539 271.128 111.289 270.915 111.741C270.736 112.119 270.409 112.455 270.236 113.958C270.028 114.374 269.668 114.582 269.438 114.762C269.434 114.832 269.658 114.859 269.889 114.887" stroke="#FF5900" stroke-opacity="0.8" stroke-width="2" stroke-linecap="round"/>
<path d="M275.935 136.902C275.935 136.89 273.606 136.886 269.708 137.031C267.358 137.118 266.392 137.885 265.963 138.153C265.286 138.576 264.927 139.758 264.067 144.414C263.61 146.889 263.961 148.261 264.119 148.552C264.77 149.751 266.578 150.411 267.15 151.052C267.484 151.425 267.825 152.396 268.222 154.049C268.716 156.103 268.415 157.495 268.311 157.86C268.161 158.386 266.751 160.561 264.81 163.568C263.52 165.565 262.608 166.247 261.934 168.691C261.548 169.701 260.384 170.47 258.78 171.334C258.174 171.653 257.99 171.731 257.457 172.009" stroke="#FF5900" stroke-opacity="0.8" stroke-width="2" stroke-linecap="round"/>
<path d="M256.642 172.225C256.61 172.463 256.521 173.254 255.711 175.039C255.378 175.775 254.821 176.722 254.013 177.844C252.239 180.306 250.904 181.719 250.665 182.328C249.855 184.394 250.443 186.161 251.23 187.638C252.031 189.14 251.588 190.831 250.282 193.932C249.563 195.64 249.14 196.931 249.305 198.728C249.554 201.437 252.148 202.314 253.799 203.778C254.238 204.167 254.695 204.701 255.659 205.531C256.623 206.362 258.054 207.501 259.6 208.937C261.146 210.372 262.763 212.07 263.656 213.029C264.937 214.405 265.452 214.813 266.228 215.12C267.66 215.688 269.615 215.241 271.326 214.658C273.341 213.971 275.038 213.095 276.619 212.858C277.631 212.706 279.099 212.735 280.539 212.858C281.979 212.982 283.355 213.262 284.61 213.575C286.976 214.164 288.364 214.603 288.877 214.653C290.314 214.791 292.226 214.869 292.647 215.018C293.012 215.147 293.331 215.84 293.758 216.626C294.045 217.156 294.586 218.649 295.213 221.876C295.581 223.766 295.553 226.246 295.633 227.593C295.713 228.941 295.775 229.102 295.843 229.258C295.912 229.414 295.986 229.561 296.05 229.745" stroke="#FF5900" stroke-opacity="0.8" stroke-width="2" stroke-linecap="round"/>
<path d="M295.734 228.072C295.725 228.072 296.249 228.985 297.609 231.99C298.537 234.04 299.559 237.322 300.171 239.205C300.914 241.495 300.924 243.032 300.715 245.59C300.592 247.08 300.087 248.917 299.771 250.186C299.293 252.099 298.957 253.383 298.826 254.957C298.533 258.483 299.124 259.535 299.565 260.348C299.897 260.961 302.236 262.552 304.151 264.225C304.603 264.62 304.759 265.103 304.919 265.612C305.134 266.295 305.101 268.382 305.153 270.985C305.176 272.145 306.303 273.477 307.761 275.248C308.709 276.4 309.246 278.172 309.602 279.806C309.68 280.559 309.79 281.13 309.931 281.553C309.989 281.788 310.022 282.065 310.11 282.295" stroke="#FF5900" stroke-opacity="0.8" stroke-width="2" stroke-linecap="round"/>
<path d="M310.11 281.91C310.11 282.185 310.218 283.117 310.969 284.342C312.282 286.481 313.592 286.927 314.842 287.18C316.183 287.452 317.269 287.223 318.028 287.058C319.511 286.735 321.205 285.966 322.521 285.287C323.317 284.877 324.789 283.424 326.767 281.435C327.507 280.691 327.679 280.45 328.245 279.519C328.811 278.588 329.758 276.966 330.583 275.431C331.408 273.896 332.083 272.498 332.659 271.471C334.138 268.836 335.29 268.271 337.201 267.456C337.636 267.271 337.893 267.208 338.04 267.09C338.293 266.887 338.299 266.51 338.359 265.871C338.479 264.583 338.022 262.54 337.506 260.322C336.868 257.579 337.571 256.686 338.112 255.654C338.296 255.304 338.618 255.057 340.194 254.346C341.548 253.735 344.102 252.791 345.455 252.182C346.808 251.573 346.902 251.372 346.974 251.064C347.045 250.755 347.093 250.346 347.112 248.497C347.131 246.648 347.121 243.371 347.074 241.395C347.012 238.841 346.834 237.68 346.764 236.581C346.659 234.952 345.593 233.361 344.99 232.045C344.902 231.854 344.937 231.644 344.982 231.474C345.027 231.303 345.126 231.164 345.938 230.382C346.75 229.6 348.274 228.179 350.16 226.47" stroke="#FF5900" stroke-opacity="0.8" stroke-width="2" stroke-linecap="round"/>
<path d="M361.091 244.195C361.005 244.38 359.195 246.195 357.973 247.221C357.653 247.49 357.279 247.873 356.622 248.872C354.287 252.422 353.981 253.236 353.24 253.727C353.019 253.873 352.746 253.969 352.579 254.128C352.271 254.424 352.284 255.032 352.315 255.642C352.37 256.703 353.41 258.211 353.558 259.338C353.674 260.216 352.606 262.366 352.339 264.898C352.233 265.903 353.578 267.229 354.431 268.092C355.029 268.698 356.391 268.479 357.572 267.962C359.458 267.137 359.994 265.394 360.373 263.787C360.574 262.937 360.489 261.417 360.774 259.483C361.06 257.548 361.579 255.222 361.853 253.941C362.276 251.968 362.477 249.076 362.302 247.573C361.899 246.895 361.669 246.178 361.607 245.763C361.586 245.57 361.586 245.411 361.586 245.248" stroke="#FF5900" stroke-opacity="0.8" stroke-width="2" stroke-linecap="round"/>
<path d="M348.168 227.779C348.262 227.615 348.97 226.6 350.562 224.624C351.603 223.332 353.254 221.565 354.974 219.181C356.695 216.797 358.471 213.88 359.465 212.269C360.601 210.43 361.232 209.426 362.239 207.866C363.92 205.263 364.553 205.121 364.614 204.833C364.644 204.691 364.611 204.544 364.514 204.402C364.066 203.74 363.016 203.725 360.696 203.706C359.954 203.7 358.007 204.235 355.104 204.971C352.075 205.738 350.474 205.25 350.186 205.015C349.884 204.769 349.627 203.503 349.149 201.708C348.491 199.234 348.081 197.372 347.864 196.242C346.806 194.418 345.199 192.197 344.506 191.061C344.197 190.533 343.975 190.101 343.639 189.458" stroke="#FF5900" stroke-opacity="0.8" stroke-width="2" stroke-linecap="round"/>
<path d="M343.409 189.354C343.278 189.132 342.537 187.125 342.128 185.807C341.729 184.519 340.443 183.5 339.248 181.823C337.74 179.706 336.928 177.581 336.606 175.98C336.429 175.098 335.855 174.107 334.904 173.132C334.276 172.488 334.76 171.213 335.082 170.702C335.556 169.951 337.524 170.331 338.735 170.892C341.15 172.011 341.114 173.629 341.666 175.592C341.898 176.417 342.057 177.6 342.394 178.885C342.731 180.17 343.189 181.534 343.835 182.872C345.135 185.567 346.369 187.221 346.754 187.927C347.361 189.041 349.195 190.589 350.638 193.139C352.39 196.237 352.781 197.663 353.209 198.404C353.679 199.217 354.885 199.316 355.938 199.443C357.179 199.592 359.001 198.998 361.937 197.47C363.886 196.455 366.615 194.679 368.294 193.666C370.461 192.357 372.132 191.707 373.999 191.003C375.072 190.599 375.494 190.142 375.781 189.813C376.05 189.505 376.267 188.982 376.569 187.891C377.622 184.078 377.094 181.989 376.731 181.355C376.575 181.083 375.132 180.873 372.521 180.583C369.64 180.264 367.61 180.65 366.698 180.782C365.808 180.911 365.186 180.754 364.863 180.571C364.499 180.366 363.666 179.253 362.291 177.315C360.85 175.282 360.119 173.792 359.887 173.248C359.366 172.023 359.368 169.924 359.451 169.264C359.484 168.994 359.695 168.899 359.946 168.812C360.517 168.616 361.779 168.588 363.241 168.609C364.647 168.63 366.311 171.82 367.37 173.427C367.603 173.781 369.743 174.37 372.707 175.267C374.352 175.764 374.774 176.977 375.308 177.652C375.602 178.023 376.879 178.176 379.299 178.48C380.811 178.67 382.937 178.583 384.148 178.569C387.122 178.535 390.052 178.572 390.642 178.939C391.463 179.448 393.301 182.425 394.772 183.92C395.841 185.006 397.236 184.801 398.788 184.86C399.122 184.873 399.288 184.962 399.424 185.076C399.701 185.306 399.843 185.823 399.945 187.95C400.031 189.76 399.939 193.063 399.949 194.848C399.959 196.634 400.011 196.803 400.647 197.919C401.284 199.036 402.505 201.096 403.517 202.55C405.152 204.898 406.628 205.995 407.727 206.728C409.509 207.917 410.503 207.881 411.895 207.843C412.172 207.835 412.229 207.649 412.28 207.497C412.386 207.18 412.424 205.861 412.432 205.188C412.374 207.751 412.392 210.049 412.49 210.166C412.524 210.148 412.524 209.971 412.524 209.789" stroke="#FF5900" stroke-opacity="0.8" stroke-width="2" stroke-linecap="round"/>
<path d="M412.524 209.789C412.661 209.913 414.699 210.108 416.001 209.849C416.154 209.819 416.144 209.559 416.144 209.406C416.146 208.689 414.236 207.776 413.034 207.207C412.248 206.835 411.938 206.248 411.526 205.282C410.872 203.747 411.477 201.201 412.376 199.328C412.825 198.393 413.942 197.053 414.755 195.983C416.119 194.188 417.17 192.988 417.839 192.111C419.104 190.453 421.552 189.145 422.44 188.08C424.028 186.177 425.308 184.985 426.959 184.132C428.452 183.362 429.521 183.636 430.263 183.639C430.661 183.723 431.016 183.863 431.279 184.056C431.39 184.167 431.458 184.303 431.527 184.444" stroke="#FF5900" stroke-opacity="0.8" stroke-width="2" stroke-linecap="round"/>
<path d="M431.212 184.223C431.234 184.223 431.418 184.218 431.767 184.264C432.499 184.361 433.172 185.945 434.09 187.803C434.458 188.547 435.094 189.898 435.997 191.468C437.065 193.325 436.748 195.551 437.147 195.621C437.375 195.662 437.661 195.659 437.873 195.637C439.357 195.485 440.092 192.499 440.405 192.398C440.569 192.345 440.766 192.37 440.918 192.416C441.794 192.682 442.036 194.753 442.252 197.126C442.411 198.867 442.339 201.719 442.353 203.26C442.373 205.639 443.064 207.054 444.184 208.682C444.75 209.505 446.171 210.382 447.718 211.913C449.867 214.04 450.058 215.377 450.289 216.786C450.393 217.415 450.317 218.525 450.242 219.112C450.166 219.699 450.007 219.739 449.796 219.726C448.507 219.651 446.812 218.185 444.52 215.512C442.392 213.031 440.516 212.68 439.644 212.541C439.406 212.529 439.14 212.529 438.949 212.575C438.759 212.622 438.652 212.715 438.542 212.811" stroke="#FF5900" stroke-opacity="0.8" stroke-width="2" stroke-linecap="round"/>
<path d="M437.889 212.811C437.958 213.044 439.19 215.577 440.979 218.967C441.657 220.251 441.947 220.603 443.097 221.861C444.247 223.119 446.268 225.26 448.247 227.255C450.227 229.251 452.105 231.037 453.232 232.057C454.634 233.326 455.192 233.569 455.947 233.835C457.435 234.361 459.707 234.716 461.773 234.969C463.427 235.172 465.069 235.346 466.556 235.263C467.044 235.236 466.962 235.002 466.731 234.718C465.675 233.425 464.45 232.89 462.39 232.181C461.164 231.759 458.847 231.241 457.483 230.828C455.724 230.296 455.189 229.818 454.86 229.491C454.352 228.986 454.25 227.803 454.138 225.811C454.07 224.597 453.603 223.334 453.446 222.334C453.272 221.229 452.804 219.224 452.24 217.141C451.964 216.119 451.971 215.652 451.797 214.904C451.455 213.434 450.649 211.935 449.906 210.375C448.913 208.288 448.305 206.382 447.817 205.393C447.145 204.031 447.627 202.259 447.937 201.257C448.05 200.895 448.255 200.674 448.452 200.469C448.853 200.054 450.172 200.076 451.447 200.168C452.051 200.212 452.634 200.675 453.677 201.523C457.093 204.296 458.035 204.981 459.147 205.248C459.594 205.355 460.041 205.16 460.428 204.921C461.125 204.49 461.49 203.498 461.91 202.399C462.46 200.958 462.135 199.129 461.641 197.904C460.679 195.519 458.671 194.096 457.655 192.883C457.092 192.212 457.049 191.365 457.019 187.481C457.011 186.538 457.254 186.261 457.513 185.972C458.112 185.303 459.131 184.943 460.17 184.642C460.701 184.488 461.686 184.527 462.836 184.573C464.441 184.638 464.988 187.366 465.472 187.801C465.836 188.128 466.625 188.121 467.403 188.104C467.984 188.092 469.341 187.106 471.246 185.654C472.484 184.711 473.48 183.463 474.664 182.117C475.547 181.114 476.293 180.669 477.214 180.207C478.954 179.333 480.556 178.639 481.451 178.027C482.439 177.35 482.979 176.735 483.183 176.418C483.521 174.707 483.502 172.478 483.327 172.193C483.221 172.054 483.077 171.927 482.801 171.646" stroke="#FF5900" stroke-opacity="0.8" stroke-width="2" stroke-linecap="round"/>
<path d="M482.276 171.516C482.27 170.649 482.228 168.764 481.758 167.129C481.338 165.669 480.458 162.954 480.003 161.483C479.234 159.004 479.502 157.04 480.109 155.606C481.043 153.397 481.974 153.222 482.33 152.972C482.455 152.885 482.335 152.741 482.215 152.663C481.679 152.317 478.173 152.383 476.083 152.201C475.187 152.124 474.896 150.76 474.838 150.458C474.809 150.306 474.849 150.145 474.986 149.963C475.124 149.781 475.377 149.58 476.581 148.947C477.784 148.313 479.932 147.252 481.328 146.647C484.571 145.241 486.627 145.794 486.895 145.93C487.179 146.074 487.36 146.396 487.997 147.775C488.565 149.002 489.494 151.359 490.148 153.233C490.803 155.107 491.12 156.442 491.33 157.757C492.013 162.034 492.202 163.275 492.563 163.849C492.895 164.375 493.678 164.542 494.987 164.795C495.726 164.938 496.292 164.803 496.607 164.656C497.166 164.395 497.301 163.63 497.45 162.567C497.588 161.585 497.457 160.679 497.23 159.817C496.851 158.382 495.532 156.423 494.25 154.367C493.401 153.006 493.191 151.571 493.028 150.07C492.89 148.794 493.025 147.959 493.748 146.543C494.368 145.328 495.72 143.222 496.448 142.055C497.268 140.74 497.658 140.402 498.156 140.024C498.607 139.68 500.638 139.332 503.426 138.793C504.849 138.518 505.47 138.245 505.979 137.993C506.446 137.762 507.296 136.825 509.089 134.42C510.213 132.759 511.774 130.203 512.715 128.147C513.655 126.091 513.927 124.613 514.321 122.901" stroke="#FF5900" stroke-opacity="0.8" stroke-width="2" stroke-linecap="round"/>
<path d="M513.748 123.786C513.748 123.78 513.748 123.774 513.719 121.672C513.69 119.569 513.632 115.371 513.236 113.203C512.84 111.035 512.107 111.024 511.659 111.027C510.656 111.034 508.605 112.301 507.322 112.828C507.021 112.952 506.753 112.569 506.512 112.23C505.762 111.177 505.885 109.625 506.304 108.481C506.452 108.075 507.044 107.639 508.803 106.223C510.562 104.807 513.595 102.495 516.275 100.784C518.956 99.0721 521.192 98.0307 522.507 97.4431C524.13 96.7174 525.062 96.6394 526.055 96.6557C526.695 96.6661 527.342 97.0048 528.505 97.6388C530.337 98.6377 531.641 99.4778 532.68 99.6093C534.668 99.8609 536.282 99.5671 537.183 99.2216C538.638 98.6635 539.863 97.8603 540.789 97.1918C541.941 96.3601 543.278 95.476 544.959 94.8406C546.911 94.1024 548.922 93.8876 550.277 93.734C551.765 93.5651 553.31 93.403 553.6 93.5227C554.391 93.8487 553.812 95.205 553.489 96.1507C553.069 97.3839 551.573 98.4451 549.543 99.9688C548.283 100.914 546.4 101.983 545.11 102.706C543.179 103.788 542.244 104.116 541.573 104.565C539.053 106.248 538.224 107.617 537.778 108.647C537.554 109.161 537.364 110.094 537.173 111.89C536.982 113.687 536.857 116.341 536.809 117.81C536.753 119.485 536.897 119.852 537.06 120.151C537.379 120.737 538.414 121.136 540.854 121.689C542.071 121.965 543.088 121.662 543.88 121.336C544.735 120.984 545.882 119.95 547.235 118.69C549.048 117.001 549.389 115.568 549.635 114.304C550.021 112.31 549.28 109.957 549.949 108.161C550.812 105.846 552.309 104.6 553.239 103.846C555.402 102.093 557.226 100.964 557.717 100.729C558.111 100.539 560.474 100.23 564.074 99.8037C565.509 99.65 566.148 99.6235 566.323 99.6C566.499 99.5766 566.191 99.557 565.874 99.5369" stroke="#FF5900" stroke-opacity="0.8" stroke-width="2" stroke-linecap="round"/>
<path d="M565.527 99.4511C565.711 99.4139 566.263 98.896 567.215 97.7134C567.437 97.4375 567.663 97.3138 569.174 96.7127C570.685 96.1117 573.499 95.0599 575 94.4636C576.501 93.8673 576.603 93.7583 576.682 93.6304C577.008 93.1013 576.771 92.2318 576.33 91.3817C576.127 90.9902 576.033 90.6315 576.009 90.3188C575.956 89.6449 578.114 87.2983 579.666 85.8691C580.304 85.2811 581.027 85.2545 582.428 85.1033C583.221 85.0177 583.851 85.1644 584.872 85.7306C587.097 86.9646 588.885 88.1785 589.865 88.4414C592.082 89.0365 594.192 88.5917 595.936 87.9619C596.389 87.7981 596.707 87.6064 596.852 87.4434C596.997 87.2803 596.949 87.1267 596.815 86.9306C596.005 85.75 594.157 84.9429 591.519 83.8564C589.614 83.0719 586.512 81.9356 583.69 80.7556C580.868 79.5757 578.407 78.4176 576.51 77.6247C573.399 76.3245 571.887 76.0092 571.496 75.9209C570.471 75.6889 568.939 74.4885 567.719 73.9C566.9 73.5047 566.239 73.4916 565.381 73.5352C564.201 73.5952 563.502 75.6646 562.948 75.9473C561.4 76.0216 559.023 75.8864 557.744 75.5336C556.902 75.2788 555.668 74.8701 554.285 74.4259" stroke="#FF5900" stroke-opacity="0.8" stroke-width="2" stroke-linecap="round"/>
<path d="M575.896 68.7762C575.881 68.7688 575.866 68.7613 576.795 68.7537C577.723 68.7461 579.596 68.7387 581.525 68.731" stroke="#FF5900" stroke-opacity="0.8" stroke-width="2" stroke-linecap="round"/>
<path d="M581.525 68.731C581.555 68.9018 581.812 69.6243 581.907 70.5182C581.948 70.9052 581.537 71.3642 581.08 71.8497C580.426 72.5443 578.706 72.397 577.692 72.2937C577.052 72.2285 576.492 71.5149 576.024 70.7083C575.955 70.5057 575.93 70.314 575.917 70.0375C575.904 69.761 575.904 69.4055 575.904 69.0392" stroke="#FF5900" stroke-opacity="0.8" stroke-width="2" stroke-linecap="round"/>
<path d="M592.019 91.9834C592.139 92.1447 593.283 93.474 594.202 94.3154C594.733 94.8012 595.962 95.0665 597 95.2152C596.435 94.0652 595.556 93.3404 594.522 92.6103C594.124 92.35 593.981 92.3136 593.805 92.276" stroke="#FF5900" stroke-opacity="0.8" stroke-width="2" stroke-linecap="round"/>
<path d="M502.413 156.833C502.423 156.833 502.15 157.105 501.699 157.582C501.419 157.878 501.403 158.683 501.458 159.732C501.489 160.34 501.918 160.649 502.272 160.914C502.981 161.445 504.465 161.614 505.535 161.341C507.519 160.833 510.16 159.51 511.443 159.013C512.483 158.61 513.347 156.849 513.919 155.34C514.279 154.39 514.644 152.531 514.907 150.425C515.171 148.318 515.222 145.987 515.273 144.713C515.324 143.439 515.372 143.291 515.457 143.17C515.809 142.665 517.77 142.311 519.229 142.05C519.491 142.003 519.788 141.909 519.984 141.803C520.18 141.697 520.264 141.576 520.305 141.405C520.496 140.622 519.599 139.023 518.993 138.042C518.636 137.464 517.096 137.571 516.157 137.735C515.784 137.8 514.816 139.815 513.255 143.252C512.493 144.931 512.121 146.619 511.839 147.728C511.427 149.346 511.027 150.885 510.424 152.6C510.023 153.742 509.608 154.324 509.006 155.078C506.572 158.127 504.795 159.093 503.888 159.45C503.609 159.56 503.235 159.617 503.085 159.585C502.934 159.554 503.009 159.406 503.162 159.219C503.316 159.033 503.546 158.812 503.784 158.585" stroke="#FF5900" stroke-opacity="0.8" stroke-width="2" stroke-linecap="round"/>
<path d="M515.92 132.795C515.931 132.795 515.943 131.109 516.035 128.061C516.106 125.699 516.469 123.568 516.53 121.658C516.569 120.458 517.388 118.621 518.406 116.373C519.032 114.991 519.613 114.557 520.179 114.267C520.474 114.116 521.209 114.166 522.067 114.247C522.398 114.278 522.484 114.487 522.56 114.658C523.297 116.329 522.738 119.481 521.98 121.429C521.371 122.996 520.085 125.647 519.287 127.614C517.742 132.181 517.362 132.886 516.687 133.416C516.415 133.567 516.024 133.754 515.59 133.882" stroke="#FF5900" stroke-opacity="0.8" stroke-width="2" stroke-linecap="round"/>
<path d="M553.725 74.0748C553.715 74.0748 553.494 74.0634 552.136 73.8493C548.918 73.342 546.644 72.7886 546.333 72.6636C545.688 72.4039 545.133 71.5343 544.853 70.7679C544.361 69.422 544.527 67.0334 544.146 66.0673C544.007 65.7149 542.873 65.4965 540.655 65.1723C537.419 64.6991 535.233 65.0131 534.609 65.1873C532.404 65.8024 529.633 65.8976 528.255 65.5526C527.158 65.2778 525.754 62.5537 523.983 61.072C523.07 60.3085 521.936 60.1444 520.093 58.1611C518.976 56.9589 517.447 56.5704 517.226 56.2977C516.337 55.2001 516.489 53.1507 516.083 52.5194C515.694 51.9165 515.284 51.6334 515.042 51.6092C514.741 51.5791 514.61 52.0954 514.437 52.4228C514.21 52.8538 514.167 55.5545 513.985 59.2389C513.914 60.674 512.335 60.9858 511.321 62.2001C510.245 63.4882 507.041 62.5091 506.303 62.0356C505.211 61.3353 504.414 60.7242 502.808 60.4083C501.458 60.1426 500.47 60.3472 500.144 60.4363C499.339 60.6558 498.298 61.9716 497.535 62.646C497.264 62.8857 496.872 62.8547 496.554 62.8045C496.179 62.7454 495.936 62.2756 495.698 61.6604C494.634 58.9086 495.294 55.5613 495.11 54.8084C494.878 53.8608 493.285 53.4791 492.375 52.9787C491.865 52.6986 490.477 52.7713 488.598 52.8459C486.973 52.9105 485.822 53.42 484.773 53.7608C483.345 54.2246 480.82 54.2511 478.287 54.3664C476.6 54.4432 474.955 52.8143 473.578 51.7579C473.235 51.5474 472.844 51.3382 472.569 51.1607C472.293 50.9831 472.145 50.8435 471.993 50.6997" stroke="#FF5900" stroke-opacity="0.8" stroke-width="2" stroke-linecap="round"/>
<path d="M509.453 42.1938C508.691 42.1938 507.733 42.4105 507.168 42.9394C506.267 43.7832 506.567 46.4614 507.051 47.619C507.203 47.9845 509.132 47.8087 513.647 47.1231C516.69 46.661 521.089 45.0707 523.472 44.3548C525.854 43.6389 526.042 43.6165 526.193 43.6562C526.479 43.7315 526.752 44.2157 527.115 44.7908C527.421 45.2769 528.939 46.7754 531.052 48.8626C531.839 49.6401 532.015 49.8776 532.136 50.0817C532.258 50.2858 532.312 50.4574 532.393 49.7743C532.656 47.556 532.611 45.7323 532.363 45.2741C532.064 44.7218 531.311 44.3295 530.625 43.9031C530.024 43.6121 529.308 43.4011 524.96 43.1994C521.045 43.0958 513.66 42.9894 506.003 43.0906" stroke="#FF5900" stroke-opacity="0.8" stroke-width="2" stroke-linecap="round"/>
<path d="M471.131 50.095C471.127 50.095 471.122 50.095 469.342 50.1371C467.562 50.1793 464.007 50.2636 461.468 50.4369C458.93 50.6103 457.516 50.8701 456.78 50.9184C456.044 50.9667 456.029 50.7956 457.003 49.9524C457.976 49.1091 459.94 47.5989 462.052 46.2044C464.164 44.8098 466.366 43.5767 467.558 42.8994C469.145 41.9974 469.809 41.1303 470.566 39.5283C471.122 38.3513 471.095 37.1953 471.056 36.5639C471.039 36.275 470.871 36.0701 470.72 35.9251C470.44 35.6566 469.494 35.505 467.366 35.319C463.943 35.02 461.518 35.3336 460.698 35.5631C458.131 36.2814 456.984 37.2434 456.639 37.2254C455.923 37.1882 453.749 35.663 451.622 35.1729C451.128 35.0592 449.911 35.9421 446.946 37.3592C445.05 38.2652 442.175 39.1306 440.281 39.7131C438.388 40.2956 437.516 40.4617 435.204 40.5213C432.892 40.5808 429.165 40.5287 427.178 40.513C425.057 40.4963 424.735 40.6492 424.392 40.888C423.574 41.4577 423.532 43.0639 423.509 44.4693C423.493 45.4273 423.905 46.6026 423.788 47.3007C423.657 48.092 422.332 48.2168 419.406 48.4689C415.916 48.7695 413.579 48.5448 413.293 48.6361C413.151 48.6816 413.039 48.7876 412.96 48.9283C412.791 49.2321 412.816 49.7953 412.883 50.4145C413.012 51.6119 415.006 52.2411 415.844 52.9538C416.334 53.3708 416.604 53.9263 416.74 54.3109C416.799 54.4798 416.66 54.634 416.482 54.7478C415.729 55.2297 414.124 55.1231 412.811 54.961C410.346 54.6567 407.368 53.8528 407.068 53.9081C406.913 53.9365 406.786 54.0761 406.695 54.2405C406.006 55.4878 406.345 57.368 406.113 57.3901C405.887 56.8293 405.786 56.0351 405.711 55.4445C405.699 55.2955 405.699 55.1463 405.699 54.9926" stroke="#FF5900" stroke-opacity="0.8" stroke-width="2" stroke-linecap="round"/>
<path d="M426.143 13.5995C427.245 13.6201 429.979 13.5475 430.838 13.1396C431.476 12.837 431.809 12.3296 431.933 12.0887C431.993 11.9721 431.924 11.8214 431.785 11.7193C430.251 11.4821 428.108 11.5073 427.08 11.9542C426.672 12.1881 426.096 12.5595 425.465 12.9959" stroke="#FF5900" stroke-opacity="0.8" stroke-width="2" stroke-linecap="round"/>
<path d="M430.111 19.2976C430.093 19.2446 430.814 19.1681 432.922 18.8387C434.313 18.6215 436.309 18.0491 437.649 17.7804C439.583 17.3927 440.387 17.5127 440.694 17.5838C441.36 17.7381 442.093 18.6647 442.672 19.5096C443.806 21.1646 443.633 22.5174 443.589 23.0566C443.52 23.8953 441.92 24.0033 440.563 24.0503C439.933 24.0721 439.375 23.9063 437.378 23.074C435.643 22.3511 432.49 20.9076 430.732 20.0982C428.975 19.2888 428.721 19.1291 428.543 18.9855C428.364 18.8419 428.269 18.7192 428.171 18.5928" stroke="#FF5900" stroke-opacity="0.8" stroke-width="2" stroke-linecap="round"/>
<path d="M450.725 24.1397C450.621 24.272 450.27 24.9945 450.032 25.6988C449.829 26.2973 450.471 26.9778 450.947 27.5412C451.555 28.2599 453.031 28.0654 454.494 27.9229C455.02 27.8716 454.993 27.3527 454.959 27.0609C454.801 25.7002 453.265 24.3785 452.696 23.9566C452.427 23.757 452.004 23.7423 451.548 23.8147C450.249 24.0209 449.262 25.9207 447.564 27.5539C447.279 27.8284 447.539 27.9619 448.01 28.0127C450.229 28.0693 451.787 27.8472 453.657 27.6007C454.472 27.5151 455.015 27.5094 455.574 27.5035" stroke="#FF5900" stroke-opacity="0.8" stroke-width="2" stroke-linecap="round"/>
<path d="M405.007 56.7284C405.007 56.4752 404.928 55.8304 404.717 55.5709C404.611 55.4419 404.399 55.434 404.236 55.439C404.072 55.4441 403.936 55.4919 403.792 55.6387C403.14 56.3072 403.111 57.0402 403.135 62.0628C403.146 64.1975 403.74 65.1195 403.914 65.3919C404.359 66.0872 407.564 67.0372 409.644 67.8223C409.984 67.9508 410.26 68.0607 410.485 68.2297C410.966 68.591 410.837 69.9749 410.675 70.8578C410.553 71.5279 409.67 71.9058 409.038 72.1297C408.442 72.3411 407.816 72.112 407.399 71.811C406.878 71.4344 406.42 70.4003 405.818 69.4605C405.541 69.026 404.266 70.7199 402.72 73.13C401.707 74.7072 398.787 75.5221 397.002 75.9668C396.547 76.0803 396.151 75.8871 395.891 75.6495C395.587 75.3732 395.474 74.9695 395.424 74.5902C395.36 74.0965 395.702 73.5974 396.637 72.7591C398.623 70.9795 400.521 69.5513 401.228 68.703C402.009 67.7674 402.169 66.7263 402.166 63.2742C402.165 61.8632 401.362 61.2204 400.622 60.5356C399.89 59.859 399.704 58.8165 399.679 56.5739C399.667 55.468 400.506 54.1001 401.13 50.3905C401.336 49.1664 401.104 48.5155 400.818 48.0936C400.288 47.3098 399.304 47.3205 398.282 47.1959C397.472 47.0972 396.737 47.2741 396.225 47.5768C395.579 47.9577 394.731 49.5061 393.421 51.7305C392.09 53.9913 391.569 55.5907 391.362 56.4351C391.032 57.7786 391.001 60.1522 390.989 62.5807C390.98 64.2528 391.434 65.0931 392.103 66.0369C393.804 68.44 394.556 68.9693 394.601 69.2631C394.624 69.4138 394.546 69.5747 394.383 69.6759C393.268 70.3699 391.267 69.7683 390.009 69.2511C388.682 68.7061 387.912 67.1212 387.037 65.1357C386.335 63.5408 386.166 62.3661 386.003 62.1138C385.47 61.2904 383.506 61.0644 379.935 60.9115C378.783 60.8622 377.963 60.9971 377.316 61.0827C377.1 61.1113 377.175 61.3396 377.283 61.5025C378.423 63.2208 381.432 64.8806 381.65 65.5054C381.702 65.6529 381.627 65.8077 381.484 65.9685C381.141 66.3553 380.329 66.6821 379.276 67.0589C378.153 67.461 376.491 67.5176 374.84 67.5237C372.681 67.5315 370.411 65.7513 369.171 65.7305C368.656 65.8039 367.7 66.0886 366.284 66.5849C365.601 66.8468 364.988 67.129 364.234 67.4995" stroke="#FF5900" stroke-opacity="0.8" stroke-width="2" stroke-linecap="round"/>
<path d="M372.825 58.0014C372.796 58.0014 372.565 57.9805 372.07 57.8278C371.384 57.6163 370.232 56.1932 368.844 54.5654C367.738 53.2686 367.446 51.9569 367.499 51.1219C367.516 50.8594 367.723 50.5864 368.707 49.2031C369.691 47.8197 371.507 45.3455 372.746 43.8014C373.985 42.2574 374.592 41.7185 375.764 40.9546C376.937 40.1907 378.657 39.2181 379.904 38.5825C381.152 37.9468 381.875 37.6775 383.588 37.2677C385.301 36.8579 387.982 36.3157 389.696 36.0205C392.061 35.6131 392.936 35.7518 393.231 35.9826C393.521 36.2093 393.423 36.6622 393.304 37.016C393.153 37.4678 391.75 38.5379 388.328 40.8757C386.112 42.3897 382.775 44.3485 380.552 45.8171C378.329 47.2857 377.283 48.1484 376.129 49.3534C373.625 51.9689 372.393 53.7945 372.224 54.1067C372.06 54.447 371.913 54.8461 371.768 55.7546C371.689 56.4454 371.597 57.6028 371.502 58.7953" stroke="#FF5900" stroke-opacity="0.8" stroke-width="2" stroke-linecap="round"/>
<path d="M360.583 13.9654C359.255 13.9709 356.269 14.0344 355.775 14.2823C355.549 14.3959 355.722 14.8859 355.861 15.293C356.106 16.0086 357.241 16.4603 359.694 16.8871C361.112 17.1341 363.629 17.0399 365.261 17.0453C368.485 17.056 369.116 16.7302 369.634 16.4208C369.886 16.27 369.666 15.7303 369.512 15.2893C369.275 14.6091 367.882 13.9602 365.752 13.2671C364.803 12.9582 363.954 13.0525 363.425 13.1266C363.22 13.1552 363.193 13.3488 363.18 13.5529C363.149 14.0115 363.301 14.4626 363.577 14.8522C364.287 15.8532 365.672 16.3603 366.825 16.7971C367.338 16.9912 368.025 16.9995 368.757 16.9873C369.346 16.9775 370.002 16.3913 370.951 15.3375C372.252 13.893 373.295 11.8928 374.082 10.3026C374.467 9.52509 374.804 9.26732 375.127 9.11477C375.27 9.04737 375.412 9.11944 375.476 9.23959C375.888 10.0148 374.197 13.3351 373.741 15.2425C373.473 16.3617 376.592 15.4277 379.025 14.4444C379.721 14.1631 380.344 13.7711 380.711 13.6733C381.405 13.4884 382.039 14.3815 384.003 14.5985C386.887 14.6413 388.901 14.7445 389.191 14.8462C389.331 14.8571 389.455 14.7853 389.634 14.6342" stroke="#FF5900" stroke-opacity="0.8" stroke-width="2" stroke-linecap="round"/>
<path d="M362.128 62.7505C362.116 62.7505 361.689 62.7485 360.987 62.8064C360.536 62.8435 360.311 63.328 360.151 63.731C360.08 63.9088 360.173 64.074 360.27 64.1925C360.502 64.3886 361.154 64.665 362.008 64.9557C362.35 65.0498 362.505 65.0356 362.75 64.8533" stroke="#FF5900" stroke-opacity="0.8" stroke-width="2" stroke-linecap="round"/>
<path d="M363.926 68.0859C363.916 68.0859 363.594 68.0859 362.996 68.1235C362.47 68.1566 360.57 69.3497 357.729 71.0362C354.864 72.7373 352.763 72.5847 352.117 72.3205C351.803 72.1924 351.878 71.124 351.862 69.9905C351.849 69.0172 352.971 68.448 353.362 68.225C353.767 67.9939 353.789 70.7304 353.873 73.483C353.941 75.6856 352.765 77.5743 352.596 77.861C352.41 78.1774 351.645 78.0988 350.866 78.0426C349.111 77.9161 347.843 75.8993 347.543 75.8382C347.388 75.8068 347.218 75.8558 347.083 75.9381C345.389 76.9715 344.541 80.7485 343.713 81.5333C342.46 82.7214 341.291 83.3275 340.912 83.4169C340.408 83.5359 339.892 83.3726 339.484 83.1489C339.029 82.8987 338.487 82.0917 337.726 80.8885C336.863 79.522 336.567 78.2046 336.426 76.554C335.95 70.9917 336.131 70.1661 336.328 69.8861C336.934 69.0271 339.396 69.3014 340.67 69.3753C342.274 69.4683 344.5 71.7191 345.642 72.0303C345.889 72.0976 346.183 72.0495 346.378 71.99C347.358 71.6909 346.82 69.5727 346.659 69.2111C346.409 68.6511 345.505 68.488 343.729 67.9757C340.139 66.9397 337.603 66.403 337.283 66.2534C336.701 65.981 336.194 65.4005 335.181 64.8375C333.829 64.0853 332.642 63.8124 332.409 63.5092C331.695 62.58 332.366 60.7322 332.343 60.4054C332.331 60.2531 332.172 60.1583 332.038 60.0885C330.694 59.3911 327.741 59.9729 325.782 60.294C325.383 60.3594 325.224 60.345 325.113 60.2717C324.337 59.7604 324.398 58.2494 324.2 57.9894C323.528 57.1056 320.274 58.0639 317.522 58.5565C314.807 59.0427 313.313 59.6532 312.615 60.1795C310.01 62.1413 309.212 63.14 308.561 64.1759C308.438 64.478 308.308 64.8628 308.241 65.1364C308.174 65.4099 308.174 65.5606 308.174 65.7158" stroke="#FF5900" stroke-opacity="0.8" stroke-width="2" stroke-linecap="round"/>
<path d="M308.147 65.2598C308.02 65.362 306.539 67.4562 304.484 70.4736C303.455 71.9834 302.396 72.6879 300.311 74.413C298.827 75.6398 296.693 77.8251 295.233 79.3187C293.046 81.5551 292.069 83.0521 291.492 84.1809C290.744 85.6469 290.842 87.7612 290.389 90.8017C290.143 92.4514 289.466 94.2459 289.051 95.4303C288.635 96.6146 288.4 97.1159 288.311 97.4572C288.222 97.7985 288.286 97.9646 288.462 98.1164C289.311 98.848 290.554 98.8168 291.722 98.8549C293.144 98.9012 294.496 97.5911 296.057 95.546C297.191 94.0603 297.523 92.8833 297.807 92.8396C298.145 92.7877 298.431 93.3161 298.651 93.7965C298.831 94.1888 298.868 94.6251 298.92 96.0167C299.042 99.2608 299.087 101.61 299.342 101.97C299.845 102.68 301.4 102.503 302.413 102.417C302.879 102.377 303.93 101.677 305.366 100.746C306.423 100.062 307.474 98.8018 308.699 97.2349C309.247 96.5334 309.567 95.9615 310.126 94.639C311.546 91.2821 312.213 88.9702 311.972 88.5805C311.528 87.865 310.91 87.4157 310.768 87.003C310.62 86.5749 310.664 86.1177 310.772 85.7274C311.175 84.2631 313.564 82.7038 314.723 80.5111C315.522 79.0004 315.72 77.3026 316.154 76.4419C316.44 75.8759 317.138 75.406 317.902 74.9117C318.264 74.6776 318.627 74.5754 318.968 74.4997C319.382 74.4079 319.775 74.5461 320.035 74.7604C320.51 75.1514 320.521 75.9274 320.522 77.6126C320.522 78.1639 320.348 78.4837 320.043 79.0257C319.447 80.0856 317.954 81.9913 316.363 84.0282C315.409 85.2488 315.264 85.9475 315.241 88.5098C315.227 89.9652 317.103 90.7356 318.601 91.3522C319.251 91.6198 320.253 91.8215 321.758 91.9973C325.25 92.4051 327.519 92.3868 327.792 92.5251C327.905 92.5821 327.831 92.7786 327.655 92.9725C327.224 93.449 326.556 93.7578 325.056 94.1974C321.791 95.1545 319.215 95.6556 318.595 95.9329C318.339 96.0479 318.219 96.1528 318.133 96.281C318.047 96.4093 318.004 96.5684 318.135 96.7862C318.475 97.3491 318.958 97.6928 319.063 98.0713C319.22 98.6334 319.035 99.1967 318.85 99.5438C318.518 100.164 317.307 100.469 316.218 100.676C315.833 100.749 315.232 100.711 314.88 100.793C314.389 100.908 313.981 102.456 313.17 105.006C311.819 109.253 311.168 110.183 310.837 110.731C310.682 110.987 309.718 110.879 308.549 110.854C307.784 110.837 306.063 110.19 303.757 109.33C301.783 108.594 300.003 108.822 298.24 108.699C297.844 108.671 297.69 108.558 297.557 108.448C296.786 107.82 296.562 105.217 296.276 103.975C296.2 103.644 295.908 103.394 295.641 103.149C295.152 102.7 293.463 102.829 292.512 103.229C292.131 103.389 292.348 105.842 292.284 108.902C292.262 109.983 292.126 110.103 291.667 110.417C291.207 110.731 290.395 111.235 289.435 111.727C288.475 112.219 287.392 112.684 286.277 113.163" stroke="#FF5900" stroke-opacity="0.8" stroke-width="2" stroke-linecap="round"/>
<path d="M286.102 112.739C286.07 113.568 285.955 115.562 285.42 116.618C284.795 117.85 281.779 117.729 280.668 118.216C279.167 118.874 278.627 122.327 277.837 123.356C276.978 124.473 275.313 125.146 273.861 125.601C273.535 125.703 273.317 125.683 273.159 125.744C273.002 125.806 272.904 125.92 272.852 126.064C272.799 126.208 272.794 126.38 272.842 126.572C273.301 128.416 276.319 130.261 276.942 131.239C277.583 132.243 277.406 133.273 277.049 134.183C276.815 134.458 276.405 134.849 276.101 135.115C275.798 135.38 275.611 135.508 275.32 135.725" stroke="#FF5900" stroke-opacity="0.8" stroke-width="2" stroke-linecap="round"/>
<path d="M275.829 152.206C276.303 151.318 278.388 146.535 280.622 142.669C282.934 138.669 285.876 136.579 286.572 136.076C287.668 135.283 289.925 133.188 291.622 132.068C292.072 131.771 292.598 132.316 292.931 132.7C293.847 133.76 294.695 137.277 295.131 140.244C295.463 142.506 294.735 145.513 294.202 148.682C293.655 151.929 294.109 153.771 294.553 153.923C294.992 154.072 295.589 153.893 296.311 153.582C298.295 152.726 299.537 150.06 300.548 147.617C301.603 145.07 300.998 142.361 300.102 138.713C299.951 138.098 300.442 138.047 300.81 138.122C301.564 138.273 302.057 138.737 302.358 139.096C303 139.865 304.036 144.385 304.838 149.609C304.966 150.44 305.056 150.893 305.235 151.217C305.414 151.541 305.665 151.724 305.905 151.835C307.126 152.4 308.792 151.923 309.228 151.682C310.27 151.105 309.916 147.578 309.543 144.602C309.362 143.166 308.41 141.958 307.409 140.647C304.263 136.526 300.82 133.892 300.006 132.507C299.826 132.202 299.769 131.867 299.929 131.68C300.333 131.205 301.761 131.431 303.201 131.564C305.415 131.769 307.045 134.079 308.464 136.698C310.82 141.047 311.791 145.327 312.288 146.963C312.74 148.451 313.829 149.505 314.794 150.146C316.299 151.145 319.029 151.154 319.975 150.796C320.45 150.615 320.427 147.69 320.596 143.869C320.657 142.519 321.209 142.417 321.804 142.347C322.4 142.278 323.161 142.258 323.662 142.397C324.164 142.537 324.383 142.836 324.514 143.162C324.772 143.801 324.711 146.271 324.751 149.183C324.784 151.575 327.487 141.578 327.441 138.603C327.417 137.089 328.64 134.258 330.196 131.235C330.772 130.117 331.573 129.518 332.662 128.946C333.9 128.296 337.303 128.295 340.044 129.065C344.225 130.239 344.185 133.106 345.015 134.979C346.42 138.145 346.946 140.648 346.794 141.167C346.575 141.915 344.455 142.305 341.776 142.742C339.47 143.119 335.925 142.589 332.109 142.051C330.428 141.814 329.847 141.914 329.336 142.039C328.308 142.291 327.57 143.699 326.914 145.084C325.924 147.173 325.633 148.804 325.782 150.045C325.912 151.126 327.371 151.797 328.606 152.39C329.279 152.714 330.091 152.77 332.171 152.868C336.839 153.088 340.114 153.105 340.472 153.434C341.3 154.195 341.247 156.504 341.126 158.186C340.987 160.126 337.177 163.528 335.454 165.092C334.003 166.407 328.723 166.429 325.061 166.282C322.402 166.175 319.04 163.542 317.523 162.265C316.298 161.233 313.606 160.629 312.098 160.725C309.562 160.886 308.21 165.723 307.011 166.577C306.062 167.254 300.57 167.288 297.282 167.057C296.115 166.975 295.753 165.409 295.373 164.265C294.6 161.941 294.683 158.734 293.877 156.764C293.357 155.492 291.019 154.932 288.44 154.501C284.495 153.84 281.508 154.265 280.91 154.373C278.579 154.797 274.688 157.158 273.071 157.496C272.79 157.554 272.542 157.498 272.401 157.376C271.409 156.512 272.462 153.935 273.093 152.883C273.284 152.684 273.498 152.54 274.449 152.147C275.4 151.754 277.082 151.115 279.33 150.394" stroke="#FF5900" stroke-opacity="0.8" stroke-width="2" stroke-linecap="round"/>
<path d="M318.356 156.638C318.365 156.638 318.373 156.638 319.083 156.638C319.793 156.638 321.204 156.638 322.727 156.67" stroke="#FF5900" stroke-opacity="0.8" stroke-width="2" stroke-linecap="round"/>
<path d="M283.422 146.538H283.769" stroke="#FF5900" stroke-opacity="0.8" stroke-width="2" stroke-linecap="round"/>
<path d="M332.913 159.391L332.942 159.36" stroke="#FF5900" stroke-opacity="0.8" stroke-width="2" stroke-linecap="round"/>
<path d="M363.042 127.666C362.492 127.608 361.15 127.654 359.611 128.39C358.95 128.707 358.685 130.071 358.197 132.092C357.57 134.694 357.612 137.661 357.718 139.928C357.819 142.11 360.979 144.25 361.95 145.651C363.023 147.199 361.066 150.393 360.584 152.315C360.523 152.558 360.564 152.804 360.753 153.015C361.673 154.042 365.009 153.824 367.49 153.504C368.23 153.408 369.323 152.747 369.947 152.317C371.971 150.924 370.678 147.125 369.914 144.964C369.055 142.53 366.705 140.067 365.535 136.012C365.236 134.974 365.187 134.281 365.186 133.818C365.186 133.355 365.286 133.129 365.696 132.935C366.763 132.429 367.772 132.284 368.098 131.759C368.635 130.89 368.097 129.931 367.758 129.6C366.856 129.027 365.306 128.586 364.112 128.214C363.899 128.113 363.699 127.99 363.365 127.689" stroke="#FF5900" stroke-opacity="0.8" stroke-width="2" stroke-linecap="round"/>
<path d="M462.59 223.893C462.566 222.822 462.681 220.2 462.973 219.266C463.137 218.743 463.287 218.312 463.494 218.059C463.986 217.458 466.042 216.58 468.563 214.794C472.054 212.32 472.201 211.174 472.734 210.191C473.222 209.292 474.568 209.14 476.045 209.118C476.368 209.114 476.568 209.234 476.713 209.346C477.805 210.19 478.028 212.677 478.091 213.888C478.191 215.804 474.789 217.876 474.401 218.705C474.258 219.013 474.248 221.128 474.198 224.147C474.177 225.418 474.007 225.791 473.787 226.138C473.16 227.127 471.585 227.699 470.059 228.012C467.08 228.624 465.385 227.252 464.282 226.496C463.095 225.663 462.577 225.07 462.037 224.281C461.748 223.823 461.427 223.249 461.097 222.657" stroke="#FF5900" stroke-opacity="0.8" stroke-width="2" stroke-linecap="round"/>
<path d="M476.342 205.462C476.336 205.456 476.33 205.451 476.325 205.128C476.32 204.805 476.315 204.165 476.347 203.581C476.379 202.997 476.448 202.488 476.661 201.842" stroke="#FF5900" stroke-opacity="0.8" stroke-width="2" stroke-linecap="round"/>
<path d="M481.932 189.46C481.932 190.862 481.998 194.035 482.273 194.685C482.524 195.281 483.618 195.814 484.376 196.583C484.702 196.914 484.534 197.453 484.284 198.514C483.693 201.016 483.048 203.52 483.041 205.022C483.027 207.792 484.668 211.142 484.895 211.438C485.428 212.135 487.982 211.925 489.489 211.72C490.11 211.635 490.43 210.892 490.771 210.15C491.199 209.221 491.185 207.007 491.005 205.726C490.861 204.706 489.204 204.462 488.399 203.93C487.797 203.533 487.663 201.467 487.045 198.078C486.704 196.21 485.859 194.134 485.371 192.84C484.884 191.547 484.663 191.123 484.483 190.842C484.302 190.561 484.167 190.435 483.83 190.258" stroke="#FF5900" stroke-opacity="0.8" stroke-width="2" stroke-linecap="round"/>
<path d="M474.078 234.563C474.087 234.563 475.027 234.567 476.711 234.612C478.004 234.646 480.21 234.79 482.828 234.851C484.701 234.894 485.676 237.032 486.612 237.638C487.462 238.19 489.14 237.601 490.331 237.182C490.733 236.971 490.724 236.763 490.686 236.576C490.648 236.39 490.582 236.232 490.326 236.003" stroke="#FF5900" stroke-opacity="0.8" stroke-width="2" stroke-linecap="round"/>
<path d="M479.42 235.522C479.407 235.522 479.393 235.711 479.412 236.067C479.494 236.375 479.626 236.705 479.751 237.061C479.803 237.232 479.83 237.384 479.858 237.754" stroke="#FF5900" stroke-opacity="0.8" stroke-width="2" stroke-linecap="round"/>
<path d="M479.857 230.473C479.812 230.24 479.707 228.09 479.893 226.45C480.155 224.134 481.815 222.704 482.475 222.21C483.604 221.367 485.161 221.597 486.341 221.787C486.981 221.89 487.53 222.202 488.039 222.237C488.567 222.274 488.998 222.053 490.024 221.244C492.507 219.288 494.465 217.501 494.946 216.892C495.09 216.709 494.907 216.699 494.708 216.758C494.256 216.891 493.889 217.117 492.907 217.985C492.04 218.752 490.483 220.248 488.705 221.63C486.927 223.012 484.99 224.253 483.917 224.958C482.231 226.065 481.182 228.012 480.673 229.278C480.336 230.115 481.304 231.017 481.604 231.786C481.61 231.96 481.566 232.11 481.334 232.406C481.102 232.702 480.684 233.139 480.113 233.766" stroke="#FF5900" stroke-opacity="0.8" stroke-width="2" stroke-linecap="round"/>
<path d="M487.834 226.623C487.85 226.623 487.865 226.623 488.906 226.625C489.947 226.628 492.013 226.633 493.304 226.668C494.596 226.703 495.051 226.768 495.694 227.048" stroke="#FF5900" stroke-opacity="0.8" stroke-width="2" stroke-linecap="round"/>
<path d="M501.567 222.873C501.492 222.999 501.32 224.734 501.66 225.957C501.776 226.375 502.404 226.457 503.69 226.811C508.83 228.224 509.642 228.452 510.259 229.136C511.124 230.096 511.273 232.276 511.187 233.365C511.161 233.7 510.877 234.05 511.907 234.315C515.131 235.146 517.71 234.887 518.104 234.833C519.481 234.645 520.933 233.947 522.638 234.328C527.22 235.354 528.267 237.181 528.637 237.184C528.815 237.186 528.961 237.035 529.078 236.9C529.196 236.764 529.277 236.61 529.23 236.385C529.113 235.834 528.586 235.321 527.253 234.106C526.17 233.118 524.186 231.461 522.947 230.323C520.258 227.851 519.738 226.401 519.197 225.889C518.86 225.57 518.306 225.314 517.688 225.014C517.076 224.718 514.857 224.213 511.361 223.57C508.475 223.039 506.868 223.387 506.255 223.555C504.188 224.12 502.412 224.493 501.533 224.393C501.247 224.243 501.024 224.023 500.867 223.738C500.796 223.58 500.742 223.398 500.659 222.987" stroke="#FF5900" stroke-opacity="0.8" stroke-width="2" stroke-linecap="round"/>
<path d="M529.095 228.651C529.562 228.651 530.908 228.493 531.684 228.083C531.912 227.901 532.208 227.615 532.41 227.361C532.612 227.107 532.71 226.895 532.832 226.497" stroke="#FF5900" stroke-opacity="0.8" stroke-width="2" stroke-linecap="round"/>
<path d="M536.83 228.485C536.86 228.793 537.985 231.317 538.897 232.584C539.036 232.677 539.19 232.763 539.345 232.871C539.5 232.978 539.652 233.104 539.809 233.234" stroke="#FF5900" stroke-opacity="0.8" stroke-width="2" stroke-linecap="round"/>
<path d="M493.934 245.135C493.912 245.135 492.916 245.14 491.32 245.19C490.494 245.216 489.916 245.642 488.149 247.249C486.706 248.563 484.361 251.106 482.775 252.703C480.526 254.968 479.452 255.781 478.723 256.187C478.317 256.413 477.789 256.586 476.302 256.972C474.816 257.358 472.374 257.929 471.055 258.405C469.736 258.881 469.615 259.247 469.474 259.901C469.333 260.556 469.178 261.488 469.086 263.664C468.994 265.841 468.97 269.234 469.016 271.226C469.074 273.713 469.707 275.353 470.414 277.12C471.343 279.439 475.763 279.365 475.996 279.549C476.5 279.948 476.355 280.667 476.652 280.922C476.99 281.212 477.756 281.118 478.606 281.083C479.403 281.05 480.887 280.422 484.016 278.927C486.06 277.95 488.96 276.388 490.735 275.505C493.021 274.367 493.761 274.193 494.19 274.131C494.862 274.034 495.535 274.144 497.153 274.715C498.523 275.199 500.975 276.166 502.359 276.719C504.675 277.646 505.708 278.67 507.499 278.753C508.233 278.496 508.906 278.024 509.572 277.54C509.864 277.341 510.063 277.237 510.556 277.162" stroke="#FF5900" stroke-opacity="0.8" stroke-width="2" stroke-linecap="round"/>
<path d="M510.364 277.808C510.344 278.768 510.408 281.055 511.029 283.147C511.404 284.41 513.426 285.485 515.805 286.269C516.271 286.422 516.554 286.403 517.924 286.412C519.293 286.42 521.753 286.408 523.273 286.329C525.305 286.223 526.035 285.839 526.437 285.614C526.768 285.428 527.362 284.782 528.158 283.88C528.686 283.28 529.876 281.175 531.667 277.977C532.889 275.795 533.674 274.182 534.394 273.069C534.753 272.514 534.694 269.862 534.539 265.887C534.455 263.748 533.425 262.018 532.807 260.123C532.401 258.875 531.047 258.027 528.729 256.411C524.789 253.664 523.738 253.36 523.226 252.492C522.623 251.469 523.133 249.451 523.184 248.202C523.26 246.326 520.307 244.084 519.52 243.258C518.803 242.507 518.604 241.746 516.926 240.615C516.411 240.267 515.649 243.027 514.704 247.436C514.281 249.412 513.948 249.958 513.644 250.308C513.346 250.651 512.616 250.619 511.871 250.588C510.797 250.542 510.347 249.755 509.765 248.969C509.101 248.073 508.581 247.166 508.129 246.738C507.441 246.085 506.151 246.011 505.529 245.516C505.401 245.415 505.439 245.186 505.454 245.002C505.567 243.674 507.274 242.228 507.339 241.632C507.355 241.485 507.154 241.375 506.981 241.301C506.614 241.144 504.651 241.157 501.811 241.099C500.236 241.067 499.585 240.941 499.229 241.003C498.356 241.712 496.422 243.436 494.719 244.047C494.393 244.087 494.144 244.105 493.874 244.254" stroke="#FF5900" stroke-opacity="0.8" stroke-width="2" stroke-linecap="round"/>
<path d="M520.564 290.636C520.564 290.669 520.564 290.915 520.623 291.318C520.885 293.113 524.801 293.431 525.256 293.177C526.684 292.38 527.631 291.722 527.767 291.505C525.693 291.134 521.42 291.234 520.721 291.294C520.384 291.314 520.083 291.314 519.744 291.299" stroke="#FF5900" stroke-opacity="0.8" stroke-width="2" stroke-linecap="round"/>
<path d="M569.041 276.091C569.041 277.758 568.909 281.677 568.309 282.831C567.991 283.444 567.232 284.075 565.965 285.031C564.11 286.432 562.705 287.143 562.277 287.601C561.483 288.453 560.208 290.891 558.828 293.854C558.296 294.996 558.211 295.448 558.13 296.761C557.916 300.244 558.064 302.593 558.373 302.753C558.793 302.971 559.318 302.78 559.738 302.67C560.255 302.536 561.752 301.223 564.892 298.013C566.872 295.989 569.247 292.796 570.591 291.139C572.63 288.625 574.339 287.568 574.735 286.802C575.278 285.75 575.131 283.375 574.992 281.767C574.924 280.994 574.084 280.565 572.209 279.668C571.38 279.187 570.415 278.056 568.813 276.591C568.512 276.323 568.404 276.172 568.259 275.918" stroke="#FF5900" stroke-opacity="0.8" stroke-width="2" stroke-linecap="round"/>
</svg>
