<svg width="84" height="82" viewBox="0 0 84 82" fill="none" xmlns="http://www.w3.org/2000/svg">
<path d="M41.59 79.2485C63.1788 79.2485 80.68 62.0678 80.68 40.8743C80.68 19.6807 63.1788 2.5 41.59 2.5C20.0012 2.5 2.5 19.6807 2.5 40.8743C2.5 62.0678 20.0012 79.2485 41.59 79.2485Z" stroke="#FF5900" stroke-width="5" stroke-miterlimit="10"/>
<path d="M16.1967 52.3418L7.57381 53.6876L7.41014 52.6435L11.6879 51.9759L11.6721 51.8749L6.78712 48.6693L6.57329 47.3053L11.0313 50.3187L15.1962 45.9596L15.3942 47.2225L11.8558 50.8456L13.2373 51.7341L16.033 51.2978L16.1967 52.3418Z" fill="#FF5900"/>
<path d="M6.83522 39.0282L6.90007 37.9734L12.6677 38.3264C13.2632 38.3628 13.7862 38.5357 14.2368 38.8451C14.6848 39.1514 15.0279 39.5666 15.266 40.0907C15.5014 40.6145 15.598 41.2182 15.556 41.9015C15.514 42.5849 15.3441 43.1722 15.0464 43.6635C14.7458 44.1545 14.3544 44.5262 13.8721 44.7785C13.3871 45.0277 12.8469 45.1341 12.2514 45.0977L6.4838 44.7447L6.54865 43.6899L12.2312 44.0377C12.6565 44.0637 13.0408 43.9933 13.3841 43.8264C13.7246 43.6594 14.0004 43.4088 14.2116 43.0744C14.4202 42.7371 14.5394 42.326 14.5692 41.8411C14.5991 41.3563 14.5311 40.9337 14.3654 40.5735C14.1968 40.2131 13.9538 39.9307 13.6362 39.7262C13.3159 39.5188 12.9431 39.402 12.5178 39.376L6.83522 39.0282Z" fill="#FF5900"/>
<path d="M8.89795 29.1586L8.04192 28.7763L10.7206 22.8041L11.5767 23.1863L10.4536 25.6903L17.5664 28.8664L17.1339 29.8307L10.0211 26.6546L8.89795 29.1586Z" fill="#FF5900"/>
<path d="M15.6203 16.3979L16.2897 15.5802L20.7691 19.2305C21.2316 19.6074 21.5554 20.0527 21.7406 20.5665C21.9255 21.0762 21.9614 21.6131 21.8485 22.1771C21.7334 22.7393 21.459 23.2853 21.0254 23.8151C20.5917 24.3449 20.1103 24.7222 19.5812 24.947C19.0499 25.17 18.5145 25.2432 17.9752 25.1665C17.4355 25.0858 16.9344 24.857 16.4719 24.4801L11.9925 20.8298L12.6619 20.012L17.0753 23.6085C17.4056 23.8777 17.759 24.0447 18.1354 24.1096C18.5096 24.1727 18.8803 24.1303 19.2474 23.9823C19.6141 23.8304 19.9513 23.5665 20.259 23.1905C20.5667 22.8146 20.7585 22.4323 20.8345 22.0434C20.9083 21.6528 20.876 21.2819 20.7375 20.9308C20.5986 20.5758 20.3639 20.2636 20.0336 19.9944L15.6203 16.3979Z" fill="#FF5900"/>
<path d="M24.57 20.3986L19.4834 13.307L21.8832 11.5933C22.4381 11.1971 22.9614 10.9665 23.4532 10.9016C23.9434 10.8343 24.3916 10.9035 24.7978 11.1091C25.204 11.3148 25.557 11.6265 25.8567 12.0443C26.1563 12.4622 26.3366 12.8938 26.3973 13.3391C26.458 13.7845 26.3777 14.2258 26.1565 14.6631C25.9335 15.098 25.547 15.512 24.9967 15.9049L23.0546 17.2917L22.4983 16.516L24.4126 15.149C24.7918 14.8783 25.0572 14.605 25.2089 14.3291C25.363 14.0515 25.4192 13.774 25.3775 13.4966C25.3365 13.2152 25.2141 12.9325 25.0105 12.6486C24.8068 12.3646 24.5756 12.1544 24.3169 12.018C24.0583 11.8816 23.7708 11.839 23.4545 11.8903C23.1365 11.9393 22.7856 12.1009 22.4019 12.3749L20.8898 13.4546L25.43 19.7845L24.57 20.3986ZM25.6281 14.8257L29.6609 16.7633L28.6622 17.4765L24.657 15.5191L25.6281 14.8257Z" fill="#FF5900"/>
<path d="M30.9748 16.1036L27.1965 8.71436L29.6955 7.44222C30.2758 7.14685 30.8036 7.01005 31.2789 7.0318C31.7555 7.04992 32.1732 7.19043 32.5322 7.45333C32.8911 7.71623 33.1819 8.06536 33.4045 8.50073C33.6272 8.9361 33.7404 9.37713 33.7443 9.82382C33.7505 10.2693 33.6236 10.6916 33.3635 11.0908C33.1021 11.4876 32.6837 11.8324 32.1083 12.1253L30.3171 13.0372L29.9112 12.2434L31.6736 11.3463C32.0708 11.144 32.3548 10.9131 32.5254 10.6534C32.6961 10.3938 32.7759 10.1197 32.765 9.83123C32.7552 9.53913 32.6746 9.24515 32.5234 8.94929C32.3721 8.65343 32.1814 8.41703 31.9514 8.24009C31.7237 8.06192 31.4545 7.96858 31.1437 7.96006C30.8316 7.94915 30.4746 8.04602 30.0725 8.25069L28.498 9.05222L31.8704 15.6477L30.9748 16.1036Z" fill="#FF5900"/>
<path d="M36.5081 15.2547L35.1565 6.63278L38.0701 6.17806C38.7438 6.07292 39.3148 6.10169 39.7831 6.26437C40.251 6.42424 40.6201 6.68724 40.8903 7.05337C41.1605 7.41949 41.3354 7.85655 41.415 8.36455C41.4946 8.87255 41.4614 9.33923 41.3153 9.76457C41.1692 10.1899 40.899 10.5484 40.5047 10.8399C40.11 11.1287 39.5786 11.3252 38.9106 11.4294L36.5528 11.7974L36.4049 10.8544L38.7291 10.4917C39.1894 10.4198 39.5494 10.2946 39.8089 10.1161C40.0713 9.93715 40.2463 9.71432 40.3339 9.44762C40.4239 9.17768 40.4418 8.8701 40.3877 8.52489C40.3336 8.17967 40.2217 7.88804 40.0521 7.64998C39.8825 7.41192 39.6449 7.24485 39.3395 7.14876C39.0335 7.04987 38.6476 7.03678 38.1816 7.1095L36.3459 7.396L37.5523 15.0918L36.5081 15.2547ZM39.9598 10.7481L42.689 14.2901L41.4764 14.4794L38.7809 10.9321L39.9598 10.7481Z" fill="#FF5900"/>
<path d="M51.1705 10.8492C51.1141 11.768 50.8994 12.5518 50.5265 13.2007C50.1536 13.8495 49.6667 14.3378 49.066 14.6653C48.4652 14.9929 47.7933 15.1339 47.0504 15.0884C46.3075 15.043 45.6579 14.821 45.1018 14.4227C44.5456 14.0243 44.1222 13.4804 43.8316 12.7909C43.541 12.1014 43.4239 11.2973 43.4804 10.3786C43.5369 9.45988 43.7516 8.67607 44.1245 8.02719C44.4974 7.3783 44.9842 6.89008 45.585 6.56253C46.1858 6.23499 46.8576 6.09395 47.6005 6.13941C48.3435 6.18488 48.993 6.40679 49.5492 6.80515C50.1053 7.2035 50.5287 7.74742 50.8193 8.43692C51.1099 9.12642 51.227 9.93052 51.1705 10.8492ZM50.1497 10.7868C50.1961 10.0325 50.109 9.38821 49.8886 8.85385C49.6709 8.31968 49.3562 7.90621 48.9444 7.61347C48.5355 7.32089 48.0673 7.15847 47.5399 7.12619C47.0125 7.09391 46.5265 7.19794 46.0819 7.43827C45.6402 7.67879 45.2772 8.05077 44.9929 8.55423C44.7115 9.05787 44.5476 9.68682 44.5012 10.4411C44.4548 11.1953 44.5405 11.8395 44.7581 12.3737C44.9786 12.9081 45.2933 13.3215 45.7022 13.6141C46.114 13.9069 46.5836 14.0694 47.1111 14.1017C47.6385 14.1339 48.1231 14.0298 48.5648 13.7893C49.0093 13.549 49.3723 13.177 49.6538 12.6733C49.938 12.1699 50.1034 11.541 50.1497 10.7868Z" fill="#FF5900"/>
<path d="M57.7609 9.59422L58.7567 9.9482L56.6587 15.8235C56.4715 16.3479 56.2161 16.7591 55.8925 17.0571C55.5688 17.3552 55.1978 17.5368 54.7793 17.6021C54.3608 17.6674 53.9133 17.6154 53.4369 17.446C52.9872 17.2861 52.6161 17.0623 52.3237 16.7744C52.0323 16.4839 51.8407 16.1504 51.7488 15.7741C51.657 15.3977 51.686 14.9995 51.836 14.5794L52.8157 14.9277C52.7326 15.1605 52.7176 15.3843 52.7706 15.5991C52.8272 15.8122 52.94 16.0031 53.1091 16.1717C53.2781 16.3403 53.4925 16.4708 53.7521 16.5631C54.0385 16.6649 54.3036 16.6913 54.5474 16.6423C54.7911 16.5933 55.0068 16.4709 55.1943 16.2753C55.3854 16.0779 55.5416 15.8093 55.663 15.4695L57.7609 9.59422Z" fill="#FF5900"/>
<path d="M56.1294 19.4026L61.6574 12.6493L65.7404 15.9766L65.1465 16.7021L61.8828 14.0424L60.0149 16.3242L63.0672 18.8116L62.4734 19.5371L59.4211 17.0497L57.5424 19.3447L60.859 22.0475L60.2652 22.773L56.1294 19.4026Z" fill="#FF5900"/>
<path d="M61.4068 23.7982L68.8502 19.2417L69.4037 20.142L65.7111 22.4024L65.7647 22.4896L71.5108 23.5687L72.234 24.7449L66.9562 23.6788L64.7906 29.3013L64.121 28.2123L65.9918 23.5097L64.3736 23.2212L61.9604 24.6985L61.4068 23.7982Z" fill="#FF5900"/>
<path d="M72.6576 26.4974L73.5526 26.2184L75.5085 32.4648L74.6135 32.7438L73.7935 30.1249L66.3566 32.4432L66.0408 31.4346L73.4777 29.1164L72.6576 26.4974Z" fill="#FF5900"/>
<path d="M67.2887 35.4613L75.9855 34.7326L76.4272 39.9811L75.493 40.0594L75.1399 35.864L72.2014 36.1102L72.5316 40.0338L71.5974 40.1121L71.2671 36.1884L68.3116 36.4361L68.6704 40.6994L67.7362 40.7777L67.2887 35.4613Z" fill="#FF5900"/>
<path d="M68.0303 41.9299H76.7575V44.8787C76.7575 45.5605 76.6411 46.1202 76.4081 46.5577C76.178 46.9952 75.8612 47.3191 75.4578 47.5293C75.0544 47.7395 74.5956 47.8446 74.0814 47.8446C73.5672 47.8446 73.1112 47.7395 72.7135 47.5293C72.3158 47.3191 72.0033 46.9966 71.776 46.562C71.5516 46.1273 71.4394 45.5719 71.4394 44.8958V42.5094H72.3939V44.8617C72.3939 45.3276 72.4621 45.7026 72.5985 45.9867C72.7348 46.2736 72.928 46.481 73.178 46.6088C73.4308 46.7395 73.732 46.8049 74.0814 46.8049C74.4308 46.8049 74.7362 46.7395 74.9976 46.6088C75.259 46.4782 75.4607 46.2694 75.6027 45.9824C75.7476 45.6955 75.82 45.3162 75.82 44.8446V42.9867H68.0303V41.9299ZM71.9507 46.0378L68.0303 48.1855V46.9583L71.9507 44.8446V46.0378Z" fill="#FF5900"/>
<path d="M15.0458 37.2355L6.57225 35.1463L6.8263 34.1205L14.3896 35.9852L15.3648 32.0474L16.2751 32.2718L15.0458 37.2355Z" fill="#FF5900"/>
<path d="M26.2002 55.1927C24.6902 60.9398 27.5702 67.4752 33.1802 70.5184C37.8102 73.0328 43.7902 73.1027 48.8202 71.3067C52.1202 70.1293 55.1702 68.1038 56.7802 65.2502C57.4702 64.0229 57.8702 62.6859 58.0802 61.329C59.3202 53.1572 52.9402 45.0154 44.0202 43.0698C36.4002 41.4035 27.8302 48.9766 26.2002 55.1927Z" stroke="#FF5900" stroke-width="0.5" stroke-miterlimit="10"/>
<path d="M29.7803 49.0959C30.6203 49.8342 32.0803 48.8464 33.1703 49.2355C33.5203 49.3553 33.7803 49.6047 34.0403 49.8442C34.7403 50.5027 35.4403 51.1612 36.1403 51.8198C36.2803 51.9495 36.4203 52.0792 36.6003 52.149C37.0103 52.3186 37.5003 52.1291 37.8103 51.8397C38.1203 51.5504 38.3003 51.1712 38.5403 50.822C39.2803 49.7244 40.5803 48.9562 41.9803 48.7766C42.7103 48.6868 43.4503 48.7367 44.1703 48.6069C44.8903 48.4772 45.6303 48.0981 45.8403 47.4695C46.0103 46.9706 45.8303 46.4418 45.7803 45.9329C45.7303 45.4241 45.9103 44.7955 46.4603 44.6358C46.8203 44.5261 47.4303 44.4263 47.2603 44.127" fill="#FF5900"/>
<path d="M29.7803 49.0959C30.6203 49.8342 32.0803 48.8464 33.1703 49.2355C33.5203 49.3553 33.7803 49.6047 34.0403 49.8442C34.7403 50.5027 35.4403 51.1612 36.1403 51.8198C36.2803 51.9495 36.4203 52.0792 36.6003 52.149C37.0103 52.3186 37.5003 52.1291 37.8103 51.8397C38.1203 51.5504 38.3003 51.1712 38.5403 50.822C39.2803 49.7244 40.5803 48.9562 41.9803 48.7766C42.7103 48.6868 43.4503 48.7367 44.1703 48.6069C44.8903 48.4772 45.6303 48.0981 45.8403 47.4695C46.0103 46.9706 45.8303 46.4418 45.7803 45.9329C45.7303 45.4241 45.9103 44.7955 46.4603 44.6358C46.8203 44.5261 47.4303 44.4263 47.2603 44.127" stroke="#FF5900" stroke-width="0.5" stroke-miterlimit="10"/>
<path d="M25.6797 57.7763C27.0297 57.5069 28.4697 57.5667 29.7997 57.9359C30.3497 58.0856 30.9197 58.3051 31.4797 58.1854C31.7897 58.1255 32.0497 57.9659 32.3297 57.8262C33.2997 57.3572 34.6197 57.2175 35.4797 57.8361C35.8097 58.0756 36.0597 58.4149 36.4297 58.6144C37.1797 59.0135 38.1297 58.7142 38.9797 58.5146C39.8297 58.3151 40.9597 58.355 41.2997 59.0634C41.6197 59.7219 40.9997 60.5301 41.3797 61.1587C41.6797 61.6576 42.4297 61.7574 43.0497 61.907C43.6697 62.0567 44.3697 62.5257 44.1597 63.0645C43.9497 63.6132 43.0697 63.5933 42.4097 63.6232C41.2497 63.6931 40.1497 64.3117 39.6097 65.2196C39.3397 65.6786 39.1697 66.2274 38.6797 66.5068C38.2697 66.7363 37.7497 66.7163 37.2597 66.6664C35.9697 66.5467 34.5997 66.2972 33.4097 66.7562C32.7697 67.0057 32.2397 67.4247 31.6297 67.7241C31.0197 68.0234 30.2197 68.1631 29.6297 67.8338" fill="#FF5900"/>
<path d="M25.6797 57.7763C27.0297 57.5069 28.4697 57.5667 29.7997 57.9359C30.3497 58.0856 30.9197 58.3051 31.4797 58.1854C31.7897 58.1255 32.0497 57.9659 32.3297 57.8262C33.2997 57.3572 34.6197 57.2175 35.4797 57.8361C35.8097 58.0756 36.0597 58.4149 36.4297 58.6144C37.1797 59.0135 38.1297 58.7142 38.9797 58.5146C39.8297 58.3151 40.9597 58.355 41.2997 59.0634C41.6197 59.7219 40.9997 60.5301 41.3797 61.1587C41.6797 61.6576 42.4297 61.7574 43.0497 61.907C43.6697 62.0567 44.3697 62.5257 44.1597 63.0645C43.9497 63.6132 43.0697 63.5933 42.4097 63.6232C41.2497 63.6931 40.1497 64.3117 39.6097 65.2196C39.3397 65.6786 39.1697 66.2274 38.6797 66.5068C38.2697 66.7363 37.7497 66.7163 37.2597 66.6664C35.9697 66.5467 34.5997 66.2972 33.4097 66.7562C32.7697 67.0057 32.2397 67.4247 31.6297 67.7241C31.0197 68.0234 30.2197 68.1631 29.6297 67.8338" stroke="#FF5900" stroke-width="0.5" stroke-miterlimit="10"/>
<path d="M41.3301 72.5529C41.6501 71.8844 42.0701 71.2358 42.7001 70.7769C43.3301 70.3179 44.1801 70.0684 44.9601 70.248C45.5101 70.3777 46.0001 70.707 46.5601 70.7669C46.8001 70.7968 47.0401 70.7669 47.2801 70.7968C47.6901 70.8367 48.0901 71.0163 48.3701 71.2957" fill="#FF5900"/>
<path d="M41.3301 72.5529C41.6501 71.8844 42.0701 71.2358 42.7001 70.7769C43.3301 70.3179 44.1801 70.0684 44.9601 70.248C45.5101 70.3777 46.0001 70.707 46.5601 70.7669C46.8001 70.7968 47.0401 70.7669 47.2801 70.7968C47.6901 70.8367 48.0901 71.0163 48.3701 71.2957" stroke="#FF5900" stroke-width="0.5" stroke-miterlimit="10"/>
<path d="M57.5299 63.6238C57.5599 62.9752 56.2499 63.065 55.9399 62.4863C55.7499 62.1371 56.0299 61.738 56.0999 61.3489C56.2199 60.6804 55.6899 60.0418 55.0399 59.6926C54.3899 59.3433 53.6399 59.2037 52.9499 58.9542C52.2599 58.7048 51.5599 58.2757 51.3399 57.6372C51.2799 57.4476 51.2599 57.238 51.3399 57.0485C51.4799 56.6992 51.8999 56.5197 52.1899 56.2503C52.7199 55.7314 52.6999 54.9432 52.6399 54.2447C52.5599 53.227 52.4799 52.2193 52.3899 51.2015C52.3599 50.8723 52.3699 50.4732 52.6699 50.2836C52.8499 50.1738 53.0899 50.1738 53.3099 50.1738C53.9999 50.1938 54.6899 50.2736 55.3699 50.3933" fill="#FF5900"/>
<path d="M57.5299 63.6238C57.5599 62.9752 56.2499 63.065 55.9399 62.4863C55.7499 62.1371 56.0299 61.738 56.0999 61.3489C56.2199 60.6804 55.6899 60.0418 55.0399 59.6926C54.3899 59.3433 53.6399 59.2037 52.9499 58.9542C52.2599 58.7048 51.5599 58.2757 51.3399 57.6372C51.2799 57.4476 51.2599 57.238 51.3399 57.0485C51.4799 56.6992 51.8999 56.5197 52.1899 56.2503C52.7199 55.7314 52.6999 54.9432 52.6399 54.2447C52.5599 53.227 52.4799 52.2193 52.3899 51.2015C52.3599 50.8723 52.3699 50.4732 52.6699 50.2836C52.8499 50.1738 53.0899 50.1738 53.3099 50.1738C53.9999 50.1938 54.6899 50.2736 55.3699 50.3933" stroke="#FF5900" stroke-width="0.5" stroke-miterlimit="10"/>
<path d="M25.9299 58.0762C25.8299 58.9542 25.9399 59.8422 26.1499 60.7003C26.3899 61.6881 26.7499 62.6559 27.0999 63.6138C27.3099 64.1825 27.5299 64.7612 27.8299 65.3C28.0699 65.7391 28.3699 66.1581 28.6899 66.5472C28.8099 66.6969 28.9499 66.8566 29.1299 66.9464C29.3099 67.0361 29.5699 67.0362 29.7099 66.8965C29.7999 66.8166 29.8299 66.6969 29.8499 66.5772C29.9699 65.8887 29.7699 65.1903 29.5699 64.5218C29.1499 63.1049 28.7299 61.6881 28.0299 60.371C27.8099 59.962 27.5699 59.5629 27.2099 59.2336C27.0499 59.0839 26.8499 58.9542 26.6299 58.9243C26.4099 58.8943 26.1399 58.9642 26.0399 59.1438" fill="#FF5900"/>
<path d="M25.9299 58.0762C25.8299 58.9542 25.9399 59.8422 26.1499 60.7003C26.3899 61.6881 26.7499 62.6559 27.0999 63.6138C27.3099 64.1825 27.5299 64.7612 27.8299 65.3C28.0699 65.7391 28.3699 66.1581 28.6899 66.5472C28.8099 66.6969 28.9499 66.8566 29.1299 66.9463C29.3099 67.0361 29.5699 67.0362 29.7099 66.8965C29.7999 66.8166 29.8299 66.6969 29.8499 66.5772C29.9699 65.8887 29.7699 65.1903 29.5699 64.5218C29.1499 63.1049 28.7299 61.6881 28.0299 60.371C27.8099 59.962 27.5699 59.5629 27.2099 59.2336C27.0499 59.0839 26.8499 58.9542 26.6299 58.9243C26.4099 58.8943 26.1399 58.9642 26.0399 59.1438" stroke="#FF5900" stroke-width="0.5" stroke-miterlimit="10"/>
<path d="M31.9998 47.071C34.2498 45.4746 36.7398 44.0977 39.4698 43.3094C40.1498 43.1099 40.8498 42.9502 41.5598 42.9004C42.9598 42.7906 44.3798 43.1099 45.6298 43.6786C45.8098 43.7584 45.9998 43.8582 46.1198 44.0079C46.2398 44.1575 46.2798 44.3771 46.1598 44.5267C46.4698 44.4768 46.7798 44.3771 47.0598 44.2473C46.7098 44.0977 46.3198 44.3272 46.0298 44.5467C45.7298 44.7662 45.4298 44.9857 45.1298 45.2052C44.5898 45.6043 44.0398 46.0034 43.4098 46.2728C42.8998 46.4923 42.3598 46.6121 41.8098 46.7418C39.9398 47.1708 38.0698 47.5999 36.1798 47.989C35.2298 48.1885 34.2698 48.3781 33.3098 48.5477C32.8298 48.6375 32.3498 48.7174 31.8698 48.7972C31.5198 48.857 30.9798 49.0366 30.6398 48.8471C29.8698 48.418 31.6098 47.3305 31.9798 47.071H31.9998Z" fill="#FF5900" stroke="#FF5900" stroke-width="0.5" stroke-miterlimit="10"/>
<path d="M54.3096 50.2539C54.4096 51.0322 54.6396 51.7905 54.8796 52.5488C55.1396 53.3969 55.3996 54.245 55.7196 55.0831C55.9696 55.7516 56.2596 56.4102 56.4396 57.0986C56.5996 57.7571 56.6596 58.4256 56.7696 59.0842C56.8496 59.5432 56.9396 60.0021 57.0396 60.4511C57.1296 60.8502 57.2096 61.2493 57.2996 61.6484C57.3896 62.0675 57.4796 62.4966 57.6496 62.8957C57.8796 62.5564 57.9196 62.1274 57.9396 61.7283C58.0096 60.3513 57.9396 58.9744 57.7496 57.6075C57.6596 56.9789 57.4996 56.3603 57.3796 55.7416C57.2596 55.123 56.9996 54.5942 56.7396 53.9756C56.6096 53.6463 56.5496 53.2971 56.4196 52.9579C56.2996 52.6386 56.1196 52.3392 55.9396 52.0399C55.6696 51.5909 55.3996 51.1319 55.1196 50.6829C55.0996 50.653 55.0796 50.6131 55.0396 50.5931C54.9496 50.5433 54.7696 50.5931 54.7796 50.4934" fill="#FF5900"/>
<path d="M54.3096 50.2539C54.4096 51.0322 54.6396 51.7905 54.8796 52.5488C55.1396 53.3969 55.3996 54.245 55.7196 55.0831C55.9696 55.7516 56.2596 56.4102 56.4396 57.0986C56.5996 57.7571 56.6596 58.4256 56.7696 59.0842C56.8496 59.5432 56.9396 60.0021 57.0396 60.4511C57.1296 60.8502 57.2096 61.2493 57.2996 61.6484C57.3896 62.0675 57.4796 62.4966 57.6496 62.8957C57.8796 62.5564 57.9196 62.1274 57.9396 61.7283C58.0096 60.3513 57.9396 58.9744 57.7496 57.6075C57.6596 56.9789 57.4996 56.3603 57.3796 55.7416C57.2596 55.123 56.9996 54.5942 56.7396 53.9756C56.6096 53.6463 56.5496 53.2971 56.4196 52.9579C56.2996 52.6386 56.1196 52.3392 55.9396 52.0399C55.6696 51.5909 55.3996 51.1319 55.1196 50.6829C55.0996 50.653 55.0796 50.6131 55.0396 50.5931C54.9496 50.5433 54.7696 50.5931 54.7796 50.4934" stroke="#FF5900" stroke-width="0.5" stroke-miterlimit="10"/>
<path d="M34.87 30.1776C34.27 32.2231 34.47 34.5379 35.84 36.264C37.21 37.9902 39.88 38.9081 42.05 38.09C43.62 37.5013 44.71 36.1144 45.12 34.6277C45.85 31.9337 44.77 27.3939 41.78 25.987C38.52 24.4604 35.63 27.6034 34.88 30.1776H34.87Z" fill="#FF5900" stroke="#FF5900" stroke-width="0.25" stroke-miterlimit="10"/>
<path d="M33.1803 41.693C28.6403 43.5389 24.6903 47.4701 24.9603 51.9501C25.0103 52.8082 25.2403 53.6962 25.8703 54.3448C26.3003 54.7738 26.8703 55.0632 27.4503 55.3126C29.1603 56.031 31.0303 56.4501 32.9103 56.5299C33.5103 56.5598 34.1503 56.5299 34.6503 56.2405C35.6703 55.6319 35.5503 54.1752 34.7903 53.3071C34.0303 52.439 32.8503 52 31.8003 51.4413C30.7503 50.8825 29.7003 50.0643 29.5803 48.9668C31.0903 48.1187 32.1703 46.7817 33.4803 45.6941C38.0103 41.9824 45.6403 41.8726 50.2903 45.4646C48.5403 47.091 46.9203 48.8371 45.4603 50.6929C44.5103 51.8903 43.6203 53.4967 44.5003 54.7339C45.4903 56.1108 47.9503 55.7716 49.2803 54.6441C50.6103 53.5166 51.2703 51.9102 52.4103 50.6231C54.1703 48.6475 56.2503 47.0211 53.8603 44.6864C52.4003 43.2595 49.9603 41.7629 47.9903 40.9347C43.6503 39.0988 37.3603 39.9869 33.1803 41.6831V41.693Z" fill="#FF5900" stroke="#FF5900" stroke-width="0.25" stroke-miterlimit="10"/>
</svg>
