<svg width="84" height="82" viewBox="0 0 84 82" fill="none" xmlns="http://www.w3.org/2000/svg">
<path d="M41.59 79.42C63.1788 79.42 80.68 62.2009 80.68 40.96C80.68 19.7191 63.1788 2.5 41.59 2.5C20.0012 2.5 2.5 19.7191 2.5 40.96C2.5 62.2009 20.0012 79.42 41.59 79.42Z" stroke="#FF5900" stroke-width="5" stroke-miterlimit="10"/>
<path d="M16.1964 52.4569L7.574 53.8056L7.41068 52.7615L11.6882 52.0924L11.6724 51.9913L6.78902 48.7871L6.57565 47.423L11.0322 50.4352L15.1981 46.0743L15.3956 47.3373L11.8564 50.9619L13.2376 51.85L16.0331 51.4128L16.1964 52.4569Z" fill="#FF5900"/>
<path d="M6.83427 39.1341L6.89897 38.0792L12.6665 38.433C13.262 38.4695 13.7851 38.6425 14.2357 38.9519C14.6837 39.2583 15.0268 39.6736 15.2651 40.1977C15.5005 40.7216 15.5972 41.3253 15.5553 42.0086C15.5134 42.692 15.3436 43.2793 15.0459 43.7705C14.7454 44.2616 14.354 44.6332 13.8718 44.8854C13.3869 45.1346 12.8467 45.2409 12.2512 45.2044L6.48363 44.8506L6.54833 43.7958L12.2308 44.1443C12.6562 44.1704 13.0405 44.1001 13.3837 43.9333C13.7241 43.7663 13.9999 43.5157 14.2111 43.1814C14.4197 42.8441 14.5388 42.433 14.5685 41.9481C14.5983 41.4632 14.5303 41.0406 14.3645 40.6804C14.1959 40.32 13.9528 40.0375 13.6352 39.833C13.3149 39.6255 12.9421 39.5087 12.5168 39.4826L6.83427 39.1341Z" fill="#FF5900"/>
<path d="M8.89608 29.2182L8.04037 28.8352L10.7141 22.8608L11.5698 23.2437L10.4488 25.7487L17.559 28.9307L17.1273 29.8953L10.0171 26.7133L8.89608 29.2182Z" fill="#FF5900"/>
<path d="M15.6123 16.4351L16.2808 15.6166L20.7562 19.2718C21.2183 19.6492 21.5419 20.0951 21.727 20.6094C21.9117 21.1198 21.9478 21.6572 21.8351 22.2218C21.7203 22.7846 21.4463 23.3311 21.0132 23.8614C20.5801 24.3916 20.0993 24.7692 19.5708 24.9942C19.0401 25.2173 18.5054 25.2904 17.9666 25.2135C17.4275 25.1326 16.9268 24.9035 16.4648 24.5261L11.9894 20.8709L12.6579 20.0524L17.0673 23.6537C17.3973 23.9233 17.7504 24.0905 18.1264 24.1556C18.5002 24.2188 18.8705 24.1764 19.2372 24.0284C19.6034 23.8764 19.9402 23.6122 20.2475 23.236C20.5548 22.8597 20.7464 22.477 20.8222 22.0877C20.8958 21.6967 20.8634 21.3254 20.725 20.974C20.5861 20.6185 20.3517 20.306 20.0217 20.0364L15.6123 16.4351Z" fill="#FF5900"/>
<path d="M24.56 20.4246L19.4809 13.3276L21.8789 11.6114C22.4333 11.2146 22.9563 10.9836 23.4476 10.9184C23.9373 10.8509 24.385 10.9201 24.7908 11.1258C25.1965 11.3315 25.549 11.6434 25.8482 12.0615C26.1475 12.4797 26.3274 12.9117 26.3879 13.3574C26.4484 13.8032 26.3681 14.245 26.1469 14.6828C25.924 15.1183 25.5377 15.5327 24.9878 15.9262L23.0472 17.3151L22.4917 16.5388L24.4046 15.1698C24.7835 14.8987 25.0487 14.625 25.2004 14.3488C25.3544 14.0709 25.4106 13.7931 25.3691 13.5154C25.3282 13.2337 25.2061 12.9508 25.0027 12.6667C24.7993 12.3825 24.5685 12.1722 24.3101 12.0357C24.0517 11.8992 23.7645 11.8567 23.4485 11.9082C23.1309 11.9574 22.7803 12.1192 22.3968 12.3936L20.8859 13.4749L25.4194 19.8096L24.56 20.4246ZM25.6189 14.8458L29.6471 16.7839L28.6491 17.4982L24.6486 15.5402L25.6189 14.8458Z" fill="#FF5900"/>
<path d="M36.5395 10.9656C36.7352 11.865 36.742 12.6776 36.5598 13.4034C36.3777 14.1292 36.0421 14.7314 35.5532 15.21C35.0642 15.6886 34.4561 16.007 33.7288 16.1653C33.0015 16.3237 32.3161 16.2868 31.6724 16.0547C31.0288 15.8227 30.4733 15.4144 30.0059 14.83C29.5385 14.2456 29.207 13.5037 29.0112 12.6043C28.8154 11.7049 28.8086 10.8923 28.9908 10.1665C29.173 9.44068 29.5086 8.83849 29.9975 8.35991C30.4865 7.88133 31.0946 7.56289 31.8219 7.40458C32.5491 7.24627 33.2346 7.28314 33.8782 7.51519C34.5219 7.74725 35.0774 8.15548 35.5447 8.7399C36.0121 9.32432 36.3437 10.0662 36.5395 10.9656ZM35.5401 11.1831C35.3794 10.4448 35.1202 9.84845 34.7626 9.39424C34.4078 8.93942 33.9923 8.62716 33.5164 8.45746C33.0432 8.28716 32.5484 8.25821 32.0321 8.37059C31.5158 8.48298 31.0765 8.71526 30.7141 9.06744C30.3545 9.41901 30.1065 9.87567 29.97 10.4374C29.8363 10.9986 29.8498 11.6484 30.0105 12.3868C30.1713 13.1252 30.429 13.7218 30.7839 14.1766C31.1415 14.6308 31.5569 14.9431 32.0301 15.1134C32.5061 15.2831 33.0022 15.3117 33.5185 15.1993C34.0349 15.0869 34.4728 14.855 34.8324 14.5034C35.1948 14.1512 35.4428 13.6945 35.5765 13.1334C35.713 12.5716 35.7009 11.9215 35.5401 11.1831Z" fill="#FF5900"/>
<path d="M39.0026 15.5023L38.2723 6.80563L41.2108 6.55887C41.8931 6.50158 42.4611 6.5779 42.9149 6.78782C43.3713 6.99467 43.7217 7.29738 43.9662 7.69593C44.2106 8.09449 44.3543 8.54997 44.3974 9.06237C44.4404 9.57477 44.3748 10.0493 44.2005 10.4858C44.029 10.9222 43.7371 11.2831 43.3249 11.5686C42.9125 11.8512 42.3679 12.021 41.6913 12.0778L39.5851 12.2547L39.5067 11.3204L41.5789 11.1464C42.046 11.1072 42.4144 10.995 42.6839 10.8099C42.9534 10.6248 43.1404 10.3895 43.2447 10.1042C43.3516 9.81587 43.3905 9.49759 43.3612 9.14938C43.332 8.80117 43.2407 8.49524 43.0875 8.23157C42.937 7.96767 42.7123 7.76987 42.4133 7.63818C42.114 7.50365 41.728 7.45624 41.2553 7.49594L39.4038 7.65141L40.0557 15.4139L39.0026 15.5023Z" fill="#FF5900"/>
<path d="M45.4061 15.243L47.4997 6.77053L48.5256 7.02405L46.6569 14.5864L50.5953 15.5595L50.3704 16.4697L45.4061 15.243Z" fill="#FF5900"/>
<path d="M51.2134 16.5774L55.1497 8.78822L59.8506 11.1638L59.4278 12.0006L55.6701 10.1016L54.3401 12.7335L57.8543 14.5094L57.4315 15.3462L53.9172 13.5702L52.5795 16.2173L56.398 18.147L55.9752 18.9837L51.2134 16.5774Z" fill="#FF5900"/>
<path d="M62.5665 12.6152L59.926 19.9441L60.0052 20.0088L66.6591 15.9578L67.5172 16.6586L59.5146 21.3908L58.6697 20.7008L61.7084 11.9144L62.5665 12.6152Z" fill="#FF5900"/>
<path d="M61.4122 23.8402L68.851 19.2763L71.6054 23.7658L70.8063 24.256L68.6045 20.6674L66.091 22.2095L68.1501 25.5657L67.351 26.0559L65.2919 22.6997L62.7639 24.2507L65.0013 27.8975L64.2022 28.3878L61.4122 23.8402Z" fill="#FF5900"/>
<path d="M65.365 29.3294L73.6952 26.7269L74.0104 27.7356L66.575 30.0586L67.7848 33.9308L66.89 34.2104L65.365 29.3294Z" fill="#FF5900"/>
<path d="M74.2106 39.7421C74.6366 39.655 74.9533 39.4203 75.1607 39.038C75.3681 38.6556 75.4496 38.2012 75.4054 37.6746C75.3731 37.2896 75.2825 36.958 75.1337 36.6797C74.9851 36.4042 74.7951 36.1949 74.5636 36.0519C74.3323 35.9117 74.0779 35.8532 73.8005 35.8765C73.5683 35.896 73.3734 35.9679 73.2156 36.0924C73.0609 36.2194 72.9358 36.3753 72.8401 36.5601C72.7473 36.7446 72.6735 36.9361 72.6189 37.1346C72.5671 37.3328 72.5268 37.5144 72.4979 37.6793L72.3343 38.5825C72.2938 38.814 72.2329 39.0728 72.1514 39.3591C72.0702 39.6481 71.9497 39.9277 71.7899 40.1977C71.6332 40.4703 71.4217 40.7018 71.1555 40.8924C70.8893 41.083 70.5523 41.1953 70.1447 41.2296C69.6747 41.269 69.2397 41.1816 68.8397 40.9671C68.4399 40.7555 68.1085 40.4241 67.8454 39.973C67.5825 39.5246 67.423 38.9664 67.3669 38.2983C67.3146 37.6755 67.3698 37.1278 67.5326 36.6551C67.6955 36.1853 67.9458 35.8051 68.2835 35.5144C68.6214 35.2266 69.0267 35.0458 69.4995 34.9718L69.5907 36.0589C69.2647 36.1148 69.0022 36.248 68.8032 36.4586C68.6073 36.6718 68.4695 36.9314 68.3897 37.2374C68.313 37.5461 68.2891 37.8731 68.3181 38.2185C68.3519 38.6204 68.4473 38.9759 68.6044 39.2849C68.7643 39.5936 68.9696 39.8315 69.2202 39.9986C69.4737 40.1655 69.759 40.2356 70.0761 40.209C70.3648 40.1848 70.593 40.0844 70.7607 39.9078C70.9283 39.7312 71.0577 39.5065 71.1488 39.2337C71.2399 38.9609 71.3151 38.6681 71.3744 38.3552L71.5903 37.2595C71.7285 36.5636 71.9622 36.0023 72.2913 35.5756C72.6204 35.1488 73.0779 34.9108 73.6639 34.8616C74.1508 34.8207 74.5865 34.9167 74.971 35.1496C75.3585 35.385 75.6716 35.7179 75.9102 36.1483C76.1518 36.5814 76.2959 37.0753 76.3425 37.6302C76.3896 38.1907 76.3309 38.6974 76.1665 39.1502C76.0049 39.6028 75.7622 39.971 75.4382 40.2548C75.1145 40.5414 74.7338 40.7102 74.2962 40.7612L74.2106 39.7421Z" fill="#FF5900"/>
<path d="M68.0303 42.0178H76.7575V47.2848H75.82V43.0746H72.8712V47.0121H71.9337V43.0746H68.9678V47.353H68.0303V42.0178Z" fill="#FF5900"/>
<path d="M68.0303 48.967H76.7575V51.9158C76.7575 52.5977 76.6411 53.1573 76.4081 53.5948C76.178 54.0323 75.8612 54.3562 75.4578 54.5664C75.0544 54.7766 74.5956 54.8817 74.0814 54.8817C73.5672 54.8817 73.1112 54.7766 72.7135 54.5664C72.3158 54.3562 72.0033 54.0337 71.776 53.5991C71.5516 53.1644 71.4394 52.609 71.4394 51.9329V49.5465H72.3939V51.8988C72.3939 52.3647 72.4621 52.7397 72.5985 53.0238C72.7348 53.3107 72.928 53.5181 73.178 53.646C73.4308 53.7766 73.732 53.842 74.0814 53.842C74.4308 53.842 74.7362 53.7766 74.9976 53.646C75.259 53.5153 75.4607 53.3065 75.6027 53.0195C75.7476 52.7326 75.82 52.3533 75.82 51.8817V50.0238H68.0303V48.967ZM71.9507 53.0749L68.0303 55.2227V53.9954L71.9507 51.8817V53.0749Z" fill="#FF5900"/>
<path d="M15.0437 37.3136L6.57131 35.2201L6.82483 34.1941L14.3871 36.0628L15.3603 32.1244L16.2705 32.3493L15.0437 37.3136Z" fill="#FF5900"/>
<path d="M26.9297 74.4796V70.8496H57.9997V73.6796" stroke="#FF5900" stroke-miterlimit="10"/>
<path d="M30.4199 62.4199V70.5699" stroke="#FF5900" stroke-miterlimit="10"/>
<path d="M54.4502 62.8789V70.5489" stroke="#FF5900" stroke-miterlimit="10"/>
<path d="M36.46 63.3398V70.8598" stroke="#FF5900" stroke-miterlimit="10"/>
<path d="M49.3496 62.8789V70.8589" stroke="#FF5900" stroke-miterlimit="10"/>
<path d="M40.0801 70.6905V66.2305H45.1901V70.6705" stroke="#FF5900" stroke-miterlimit="10"/>
<path d="M32.3594 54.1211C39.1694 54.1211 45.9894 54.1211 52.7994 54.1211" stroke="#FF5900" stroke-miterlimit="10"/>
<path d="M39.0098 49.5098V53.8598" stroke="#FF5900" stroke-miterlimit="10"/>
<path d="M45.4502 49.75V53.86" stroke="#FF5900" stroke-miterlimit="10"/>
<path d="M50.6895 49.0098V53.8598" stroke="#FF5900" stroke-miterlimit="10"/>
<path d="M33.9102 49.2402V53.8602" stroke="#FF5900" stroke-miterlimit="10"/>
<path d="M36.0596 38.9609V42.4509" stroke="#FF5900" stroke-miterlimit="10"/>
<path d="M40.2197 39.2109V42.3409" stroke="#FF5900" stroke-miterlimit="10"/>
<path d="M45.1396 39.2109V42.4009" stroke="#FF5900" stroke-miterlimit="10"/>
<path d="M36.7305 34.0703H48.4205" stroke="#FF5900" stroke-miterlimit="10"/>
<path d="M40.2197 31.9199H44.8097" stroke="#FF5900" stroke-miterlimit="10"/>
<path d="M44.3801 32.0499L44.1101 30.1699H40.6201V31.9199" stroke="#FF5900" stroke-miterlimit="10"/>
<path d="M34.5703 42.7598H50.4303" stroke="#FF5900" stroke-miterlimit="10"/>
<path d="M48.8096 38.9609V42.2609" stroke="#FF5900" stroke-miterlimit="10"/>
<path d="M49.5502 42.6992C50.9802 45.0992 52.7702 47.1992 55.3202 48.3192C51.7402 49.6592 47.8402 49.8092 44.0202 49.8992C39.0302 50.0092 33.8902 50.0292 29.2402 48.2092C31.8902 47.5192 34.2302 45.3692 35.0402 42.7492" stroke="#FF5900" stroke-miterlimit="10"/>
<path d="M48.0801 34.0898C48.2301 34.1698 48.2501 34.3798 48.2601 34.5498C48.3201 35.6098 48.7701 36.6498 49.5101 37.4198C50.2501 38.1898 51.1401 38.1198 52.2001 38.2298C48.9101 39.6998 45.1701 39.6098 41.5701 39.4898C38.4701 39.3898 35.3401 39.2798 32.3701 38.3898C33.3401 37.9398 34.6301 37.3598 35.4601 36.6898C36.1601 36.1198 36.8201 35.4398 37.0701 34.5798" stroke="#FF5900" stroke-miterlimit="10"/>
<path d="M36.8896 33.4695C38.1596 33.0795 39.4096 32.5895 40.6196 32.0195" stroke="#FF5900" stroke-miterlimit="10"/>
<path d="M44.5 32.1406C44.95 32.2306 45.32 32.5206 45.71 32.7406C46.09 32.9606 46.5 33.1206 46.9 33.2806C47.28 33.4306 47.66 33.5806 48.03 33.7206" stroke="#FF5900" stroke-miterlimit="10"/>
<path d="M41.4395 29.8396L41.5095 28.0696C41.5195 27.8096 41.5295 27.5396 41.5695 27.2796C41.6095 27.0096 41.7195 26.7096 41.9695 26.5996C42.0695 26.5596 42.1795 26.5496 42.2795 26.5496C42.5695 26.5396 42.8895 26.5296 43.1195 26.6996C43.3795 26.8996 43.4595 27.2596 43.4895 27.5796C43.5795 28.3296 43.5995 29.0796 43.5595 29.8296" stroke="#FF5900" stroke-miterlimit="10"/>
<path d="M25.2002 61.6102C28.8502 60.8802 31.9702 57.9902 32.9802 54.4102" stroke="#FF5900" stroke-miterlimit="10"/>
<path d="M26.0801 61.5387C28.4601 62.4487 31.0401 62.7087 33.5801 62.8787C41.2201 63.3887 48.9201 63.1587 56.5201 62.1887C57.2401 62.0987 58.8801 61.7587 58.9201 61.0287C56.1101 60.3187 53.6601 58.3187 52.4001 55.6987C52.1701 55.2287 51.9801 54.7287 51.9101 54.2188" stroke="#FF5900" stroke-miterlimit="10"/>
</svg>
