<svg width="120" height="123" viewBox="0 0 120 123" fill="none" xmlns="http://www.w3.org/2000/svg">
<g clip-path="url(#clip0_736_2393)">
<ellipse cx="60" cy="61.0898" rx="56" ry="58" fill="#FF5900"/>
<path d="M65.0487 -0.000338154V0.359672H68.5822V0.719683H70.7422V1.07969H72.5423V1.4397H73.9156V1.79971H74.9957V2.15972H76.4357V2.51974H77.5158V2.87975H78.5958V3.23976H80.0358V3.59977H80.7559V3.95978H81.7692V4.31979H82.4892V4.6798H83.2093V5.03981H84.2893V5.39982H85.0093V5.75983H85.7293V6.11984H86.4494V6.47985H86.8094V6.83986H87.8227V7.19987H88.1827V7.55988H88.9028V7.91989H89.6228V8.2799H90.3428V8.63991H90.7028V8.99992H91.4228V9.35993H92.1428V9.71994H92.5029V10.08H92.8629V10.44H93.5829V10.8H93.9429V11.16H94.3029V11.52H94.9563V11.88H95.3163V12.24H95.6763V12.6H96.3963V12.96H96.7563V13.32H97.1163V13.6801H97.4763V14.0401H98.1964V14.4001H98.5564V14.7601H98.9164V15.1201H99.2764V15.4801H99.6364V15.8401H99.9964V16.2001H100.356V16.5601H100.716V16.9202H101.076V17.2802H101.73V18.0002H102.09V18.2935H102.45V18.6535H102.81V19.0135H103.17V19.3736H103.53V19.7336H103.89V20.0936H104.25V20.4536H104.61V20.8136H104.97V21.5336H105.33V21.8936H105.69V22.2536H106.05V22.6137H106.41V23.3337H106.77V23.6937H107.13V24.0537H107.49V24.4137H107.85V25.1337H108.21V25.4937H108.503V26.2138H108.863V26.5738H109.223V27.2938H109.583V27.6538H109.943V28.3738H110.303V28.7338H110.663V29.4539H111.023V30.1739H111.383V30.8939H111.743V31.2539H112.103V31.9739H112.463V32.6939H112.823V33.414H113.183V34.134H113.543V34.854H113.903V35.574H114.263V36.6541H114.624V37.3741H114.984V38.0941H115.344V39.1741H115.637V40.2542H115.997V40.9742H116.357V42.0542H116.717V43.1342H117.077V44.5743H117.437V46.0143H117.797V47.0944H118.157V48.8944H118.517V51.0545H118.877V52.8545H119.237V56.828H119.597V66.5749H119.237V69.4683H118.877V71.6284H118.517V73.7885H118.157V75.5219H117.797V77.3219H117.437V78.4019H117.077V79.482H116.717V80.922H116.357V81.642H115.997V82.7221H115.637V83.8021H115.344V84.8821H114.984V85.6021H114.624V86.6822H114.263V87.4022H113.903V88.1222H113.543V88.8422H113.183V89.5623H112.823V90.2823H112.463V91.0023H112.103V91.7223H111.743V92.0823H111.383V92.8024H111.023V93.1624H110.663V93.8824H110.303V94.6024H109.943V94.9624H109.583V95.6824H109.223V96.0425H108.863V96.7625H108.503V97.1225H108.21V97.8425H107.85V98.2025H107.49V98.5625H107.13V99.2826H106.77V99.6426H106.41V100.003H106.05V100.363H105.69V101.083H105.33V101.443H104.97V101.803H104.61V102.163H104.25V102.523H103.89V102.883H103.53V103.243H103.17V103.603H102.81V103.963H102.45V104.323H102.09V105.043H101.73V105.403H101.436V105.763H101.076V106.123H100.716V106.483H100.356V106.843H99.9964V107.203H99.2764V107.563H98.9164V107.923H98.5564V108.283H98.1964V108.643H97.8363V109.003H97.1163V109.363H96.7563V109.723H96.3963V110.083H96.0363V110.443H95.6763V110.803H94.9563V111.163H94.6629V111.523H93.9429V111.883H93.5829V112.243H93.2229V112.603H92.5029V112.963H92.1428V113.323H91.4228V113.683H91.0628V114.043H89.9828V114.403H89.6228V114.763H89.2628V115.123H88.5427V115.483H87.8227V115.843H87.5294V116.203H86.8094V116.563H86.0893V116.923H85.3693V117.283H84.6493V117.643H83.9293V118.003H82.8492V118.363H82.1292V118.723H81.0492V119.083H80.3958V119.443H79.6758V119.803H78.2358V120.163H77.1557V120.523H75.7157V120.883H74.6357V121.243H73.2623V121.603H71.8223V121.963H69.3022V122.323H66.8488V122.683H53.9284V122.323H51.475V121.963H48.9549V121.603H47.1549V121.243H45.7815V120.883H44.3415V120.523H43.2614V120.163H41.8214V119.803H40.7414V119.443H39.6613V119.083H39.008V118.723H37.9279V118.363H36.8479V118.003H36.4879V117.643H35.4079V117.283H34.6878V116.923H33.6078V116.563H33.2478V116.203H32.5278V115.843H31.8744V115.483H31.1544V115.123H30.4344V114.763H30.0744V114.403H29.3544V114.043H28.6343V113.683H28.2743V113.323H27.9143V112.963H27.1943V112.603H26.4743V112.243H26.1143V111.883H25.7543V111.523H25.1009V111.163H24.7409V110.803H24.0209V110.443H23.6609V110.083H23.3008V109.723H22.9408V109.363H22.5808V109.003H21.8608V108.643H21.5008V108.283H21.1408V107.923H20.7808V107.563H20.4208V107.203H20.0608V106.843H19.7007V106.483H19.3407V106.123H18.9807V105.763H18.6207V105.403H18.3274V105.043H17.6073V104.683H17.2473V103.963H16.5273V103.243H16.1673V102.883H15.8073V102.523H15.4473V102.163H15.0873V101.803H14.7273V101.443H14.3673V101.083H14.0072V100.723H13.6472V100.003H13.2872V99.6426H12.9272V99.2826H12.5672V98.9225H12.2072V98.2025H11.8472V97.8425H11.5538V97.4825H11.1938V96.7625H10.8338V96.4025H10.4738V95.6824H10.1138V95.3224H9.75379V94.6024H9.39378V94.2424H9.03376V93.5224H8.67375V93.1624H8.31374V92.4424H7.95373V91.7223H7.59372V91.0023H7.23371V90.2823H6.8737V89.9223H6.51369V88.8422H6.15368V88.4822H5.79367V87.4022H5.43366V86.6822H5.07365V85.9622H4.71364V85.2421H4.4203V83.8021H4.06029V83.0821H3.70028V82.002H3.34027V80.922H2.98026V79.842H2.62025V78.7619H2.26023V76.9619H1.90022V75.2285H1.54021V73.0685H1.1802V71.2684H0.820193V68.015H0.460182V64.4015H0.00683594V64.0815L0.366846 64.0415V62.9615H0.00683594V57.548H0.366846V54.2946H0.726857V53.9346L0.366846 53.8946V53.5746H0.726857V50.6811H1.08687V49.2411H1.44688V47.441H1.80689V46.001H2.1669V44.561H2.52691V43.1209H2.88692V42.0409H3.24693V40.9609H3.60694V39.8808H3.96695V39.1608H4.32696V38.0808H4.6203V37.3607H4.98031V36.2807H5.34032V35.5607H5.70034V34.8407H6.06035V34.1207H6.42036V33.4006H6.78037V32.6806H7.14038V31.9606H7.50039V31.2406H7.8604V30.5205H8.22041V29.8005H8.58042V29.4405H8.94043V28.7205H9.30044V28.0005H9.66045V27.6405H10.0205V26.9204H10.3805V26.5604H10.7405V25.8404H11.1005V25.4804H11.4605V25.1204H11.7538V24.4004H12.1139V24.0404H12.4739V23.6804H12.8339V22.9603H13.1939V22.6003H13.5539V21.8803H13.9139V21.5203H14.2739V21.1603H14.6339V20.8003H14.9939V20.0802H15.3539V19.7202H15.714V19.3602H16.074V19.0002H16.434V18.6402H16.794V18.2802H17.154V17.9869H17.514V17.6268H17.874V17.2668H18.234V16.9068H18.5274V16.5468H18.8874V16.1868H19.2474V15.8268H19.6074V15.4668H20.3274V15.1068H20.6874V14.7468H21.0474V14.3867H21.4075V14.0267H21.7675V13.6667H22.1275V13.3067H22.8475V12.9467H23.2075V12.5867H23.5675V12.2267H23.9275V11.8667H24.6476V11.5067H25.0076V11.1467H25.6609V10.7866H26.0209V10.4266H26.3809V10.0666H26.7409V9.70661H27.461V9.3466H27.821V8.98659H28.541V8.62658H28.901V8.26657H29.621V7.90656H30.3411V7.54655H31.0611V7.18654H31.4211V6.82653H32.1411V6.46652H32.7945V6.10651H33.5145V5.7465H34.2345V5.38649H35.3145V5.02647H36.0345V4.66646H36.7546V4.30645H37.8346V3.94644H38.5546V3.58643H39.568V3.22642H40.288V2.86641H41.368V2.5064H42.8081V2.14639H43.8881V1.78638H45.3282V1.42637H46.7015V1.06636H48.8616V0.706349H51.3817V0.346339H54.1951V-0.0136719H64.9554L65.0487 -0.000338154ZM62.1553 3.97311H56.8085V4.33312H53.9151V4.69313H50.3816V5.05314H48.5816V5.41315H46.7815V5.77316H45.7682V6.13317H44.3281V6.49318H43.2481V6.85319H41.8081V7.2132H41.088V7.57322H40.008V7.93323H38.9946V8.29324H38.2746V8.65325H37.5546V9.01326H36.8346V9.37327H36.1146V9.73328H35.3945V10.0933H34.6745V10.4533H33.9545V10.8133H33.2345V11.1733H32.5144V11.5333H32.2211V11.8933H31.5011V12.2534H30.7811V12.6134H30.4211V12.9734H29.701V13.3334H29.341V13.6934H28.621V14.0534H28.261V14.4134H27.541V14.7734H27.181V15.1334H26.8209V15.4934H26.1009V15.8535H25.7409V16.2135H25.4476V16.5735H25.0876V16.9335H24.3675V17.2935H24.0075V17.6535H23.6475V18.0135H23.2875V18.3069H22.9275V18.6669H22.5675V19.0269H22.2075V19.3869H21.4875V20.1069H21.1275V20.4669H20.7674V20.8269H20.4074V21.1869H20.0474V21.547H19.6874V21.907H19.3274V22.267H18.9674V22.627H18.6074V22.987H18.314V23.347H17.954V23.707H17.594V24.067H17.234V24.7871H16.874V25.1471H16.514V25.5071H16.154V25.8671H15.794V26.5871H15.434V26.9471H15.0739V27.3071H14.7139V28.0271H14.3539V28.3872H13.9939V29.1072H13.6339V29.4672H13.2739V30.1872H12.9139V30.5472H12.5539V31.2672H12.1939V31.9873H11.8338V32.3473H11.5405V33.0673H11.1805V33.7873H10.8205V34.5073H10.4605V35.2274H10.1005V35.9474H9.74045V36.6674H9.38044V37.3874H9.02043V38.4674H8.66042V39.1875H8.30041V39.9075H7.9404V40.9875H7.58039V41.7075H7.22038V43.1476H6.86037V44.2276H6.50036V45.3076H6.14035V46.7477H5.78034V48.1877H5.42033V49.6278H5.06032V51.7878H4.70031V53.9479H4.40696V68.3883H4.70031V70.5484H5.06032V73.0685H5.42033V74.1485H5.78034V75.8819H6.14035V76.9619H6.50036V78.4019H6.86037V79.482H7.22038V80.562H7.58039V81.642H7.9404V82.7221H8.30041V83.4421H8.66042V84.5221H9.02043V85.2421H9.38044V86.3222H9.74045V87.0422H10.1005V87.7622H10.4605V88.4822H10.8205V89.2023H11.1805V89.5623H11.5405V90.2823H11.8338V91.0023H12.1939V91.7223H12.5539V92.0823H12.9139V92.8024H13.2739V93.1624H13.6339V93.8824H13.9939V94.2424H14.3539V94.9624H14.7139V95.3224H15.0739V95.6824H15.434V96.4025H15.794V96.7625H16.154V97.1225H16.514V97.4825H16.874V98.2025H17.234V98.5625H17.594V98.9225H17.954V99.2826H18.314V99.6426H18.6074V100.003H18.9674V100.363H19.3274V100.723H19.6874V101.083H20.0474V101.443H20.4074V101.803H20.7674V102.163H21.1275V102.523H21.4875V102.883H21.8475V103.243H22.2075V103.603H22.5675V103.963H22.9275V104.323H23.2875V104.683H23.6475V105.043H24.3675V105.403H24.7276V105.763H25.0876V106.123H25.4476V106.483H25.7409V106.843H26.4609V107.203H26.8209V107.563H27.181V107.923H27.901V108.283H28.261V108.643H28.621V109.003H29.341V109.363H29.701V109.723H30.4211V110.083H30.7811V110.443H31.5011V110.803H32.2211V111.163H32.5144V111.523H33.2345V111.883H33.9545V112.243H34.6745V112.603H35.3945V112.963H36.1146V113.323H36.8346V113.683H37.5546V114.043H38.6346V114.403H39.288V114.763H40.008V115.123H41.088V115.483H42.1681V115.843H43.2481V116.203H44.3281V116.563H45.7682V116.923H46.7815V117.283H48.5816V117.643H50.0216V118.003H52.5417V118.363H55.7151V118.723H63.582V118.363H67.8355V118.003H69.6355V117.643H71.7956V117.283H73.2356V116.923H74.609V116.563H75.689V116.203H77.1291V115.843H77.8491V115.483H78.9291V115.123H80.0092V114.763H81.0225V114.403H81.3825V114.043H82.4626V113.683H83.1826V113.323H83.9026V112.963H84.6226V112.603H85.3427V112.243H85.7027V111.883H86.4227V111.523H87.1427V111.163H87.7961V110.803H88.1561V110.443H88.8761V110.083H89.2361V109.723H89.9561V109.363H90.3161V109.003H91.0361V108.643H91.3962V108.283H92.1162V107.923H92.4762V107.563H92.8362V107.203H93.1962V106.843H93.9162V106.483H94.2762V106.123H94.6363V105.763H94.9296V105.403H95.2896V105.043H95.6496V104.683H96.3696V104.323H96.7297V103.963H97.0897V103.603H97.4497V103.243H97.8097V102.883H98.1697V102.523H98.5297V102.163H98.8897V101.803H99.2497V101.443H99.6097V101.083H99.9697V100.723H100.33V100.363H100.69V100.003H101.05V99.6426H101.41V99.2826H101.703V98.9225H102.063V98.2025H102.423V97.8425H102.783V97.4825H103.143V97.1225H103.503V96.7625H103.863V96.0425H104.223V95.6824H104.583V95.3224H104.943V94.6024H105.303V94.2424H105.663V93.5224H106.023V93.1624H106.383V92.4424H106.743V92.0823H107.103V91.3623H107.463V90.6423H107.823V89.9223H108.183V89.5623H108.477V88.8422H108.837V88.1222H109.197V87.4022H109.557V86.6822H109.917V85.9622H110.277V85.2421H110.637V84.1621H110.997V83.4421H111.357V82.3621H111.717V81.282H112.077V80.202H112.437V79.482H112.797V78.0419H113.157V76.9619H113.517V75.8819H113.877V74.5085H114.237V72.7084H114.597V70.9084H114.957V68.3883H115.317V65.4949H115.61V57.9213H115.317V54.6679H114.957V51.4145H114.597V49.9744H114.237V48.1744H113.877V46.7344H113.517V45.2943H113.157V44.5743H112.797V43.1342H112.437V42.4142H112.077V41.3342H111.717V40.2542H111.357V39.1741H110.997V38.4541H110.637V37.7341H110.277V37.0141H109.917V36.2941H109.557V35.574H109.197V34.494H108.837V34.134H108.477V33.414H108.183V32.6939H107.823V31.9739H107.463V31.6139H107.103V30.8939H106.743V30.1739H106.383V29.8139H106.023V29.0938H105.663V28.7338H105.303V28.0138H104.943V27.6538H104.583V27.2938H104.223V26.5738H103.863V26.2138H103.503V25.8537H103.143V25.4937H102.783V24.7737H102.423V24.4137H102.063V24.0537H101.703V23.6937H101.41V22.9737H101.05V22.6137H100.69V22.2536H100.33V21.8936H99.9697V21.5336H99.6097V21.1736H99.2497V20.8136H98.8897V20.4536H98.5297V20.0936H98.1697V19.7336H97.8097V19.3736H97.4497V19.0135H97.0897V18.6535H96.7297V18.2935H96.3696V18.0002H96.0096V17.6402H95.2896V17.2802H94.9296V16.9202H94.6363V16.5601H94.2762V16.2001H93.5562V15.8401H93.1962V15.4801H92.4762V15.1201H92.1162V14.7601H91.7562V14.4001H91.3962V14.0401H90.6761V13.6801H90.3161V13.32H89.5961V12.96H89.2361V12.6H88.5161V12.24H87.7961V11.88H87.5027V11.52H86.7827V11.16H86.0627V10.8H85.7027V10.44H84.9826V10.08H84.2626V9.71994H83.5426V9.35993H82.8226V8.99992H82.1026V8.63991H81.0225V8.2799H80.3692V7.91989H79.2891V7.55988H78.5691V7.19987H77.4891V6.83986H76.4091V6.47985H75.689V6.11984H74.249V5.75983H72.8756V5.39982H70.7156V5.03981H69.2755V4.6798H66.8221V4.31979H62.1286V3.95978L62.1553 3.97311ZM90.3828 9.02659H90.0228V9.3866H90.3828V9.02659ZM20.7274 19.4136H20.3674V19.7736H20.7274V19.4136ZM12.8605 25.1871H12.1405V25.5471H12.8605V25.1871ZM10.7671 27.3471H10.4071V27.7071H10.7671V27.3471ZM9.32711 33.1206H8.9671V33.4806H9.32711V33.1206ZM4.3403 41.4275H3.62027V41.7875H4.3403V41.4275ZM3.26026 50.0811H2.90025V50.4411H3.26026V50.0811ZM2.54024 73.5485H2.18023V74.2685H2.54024V73.5485ZM2.18023 74.6285H1.82022V74.9885H2.18023V74.6285ZM13.2206 96.9225H12.8605V97.2825H13.2206V96.9225ZM73.2756 118.576H72.9156V118.936H73.2756V118.576Z" fill="white"/>
<path d="M2.527 73.5488H2.16699V74.2689H2.527V73.5488Z" fill="white"/>
<path d="M12.8606 25.1875H12.1406V25.5475H12.8606V25.1875Z" fill="white"/>
<path d="M4.34014 41.4277H3.62012V41.7877H4.34014V41.4277Z" fill="white"/>
<path d="M3.2604 50.082H2.90039V50.442H3.2604V50.082Z" fill="white"/>
<path d="M9.31411 33.1211H8.9541V33.4811H9.31411V33.1211Z" fill="white"/>
<path d="M10.7672 27.3477H10.4072V27.7077H10.7672V27.3477Z" fill="white"/>
<path d="M20.7272 19.4141H20.3672V19.7741H20.7272V19.4141Z" fill="white"/>
<path d="M2.16763 74.6289H1.80762V74.9889H2.16763V74.6289Z" fill="white"/>
<path d="M13.2204 96.9219H12.8604V97.2819H13.2204V96.9219Z" fill="white"/>
<path d="M90.3834 9.02734H90.0234V9.38735H90.3834V9.02734Z" fill="white"/>
<path d="M73.276 118.576H72.916V118.936H73.276V118.576Z" fill="white"/>
<path d="M56.1019 8.2936V7.93359H56.8219L56.8619 8.2936H57.1819V7.93359H63.2487V8.2936H66.8622V8.65361H68.5956V9.01363H70.7556V9.37364H71.8357V9.73365H73.6357V10.0937H74.6491V10.4537H76.0891V10.8137H76.8091V11.1737H77.8892V11.5337H78.6092V11.8937H79.6892V12.2537H80.4092V12.6137H81.0626V12.9737H81.7826V13.3338H82.5026V13.6938H83.5827V14.0538H84.3027V14.4138H84.6627V14.7738H85.3827V15.1338H85.7427V15.4938H86.4627V15.8538H87.1828V16.2138H87.8361V16.5738H88.1961V16.9339H88.9162V17.2939H89.2762V17.6539H89.6362V18.0139H89.9962V18.3072H90.7162V18.6672H91.0762V19.0273H91.4362V19.3873H92.1563V19.7473H92.5163V20.1073H92.8763V20.4673H93.2363V20.8273H93.5963V21.1873H94.3163V21.9073H94.9697V22.2673H95.3297V22.6274H95.6897V22.9874H96.0497V23.3474H96.4097V23.7074H96.7697V24.0674H97.1297V24.4274H97.4897V24.7874H97.8497V25.5074H98.2098V25.8674H98.5698V26.2275H98.9298V26.5875H99.2898V26.9475H99.6498V27.3075H100.01V28.0275H100.37V28.3875H100.73V28.7475H101.09V29.1075H101.45V29.8276H101.743V30.1876H102.103V30.9076H102.463V31.2676H102.823V31.9876H103.183V32.3476H103.543V33.0677H103.903V33.4277H104.263V34.1477H104.623V34.8677H104.983V35.5877H105.343V35.9477H105.703V37.0278H106.063V37.3878H106.423V38.1078H106.783V38.8278H107.143V39.9079H107.503V40.6279H107.863V41.7079H108.223V42.4279H108.517V43.508H108.877V44.948H109.237V46.028H109.597V47.1081H109.957V48.1881H110.317V49.6281H110.677V52.1482H111.037V53.9483H111.397V57.9217H111.757V58.2817L111.397 58.3217V58.6417H111.757V64.4152H111.397V68.3887H111.037V70.9088H110.677V72.3488H110.317V73.7888H109.957V75.5222H109.597V76.9623H109.237V78.0423H108.877V78.7623H108.517V80.2024H108.223V80.9224H107.863V82.0024H107.503V82.7224H107.143V83.8025H106.783V84.5225H106.423V85.2425H106.063V85.6025H105.703V86.3225H105.343V87.0426H104.983V87.7626H104.623V88.1226H104.263V88.8426H103.903V89.5626H103.543V90.2827H103.183V90.6427H102.823V91.3627H102.463V91.7227H102.103V92.4427H101.743V92.8027H101.45V93.5228H101.09V93.8828H100.73V94.2428H100.37V94.6028H100.01V95.3228H99.6498V95.6828H99.2898V96.0428H98.9298V96.4028H98.5698V96.7628H98.2098V97.1229H97.8497V97.8429H97.4897V98.2029H97.1297V98.5629H96.7697V98.9229H96.4097V99.2829H96.0497V99.6429H95.6897V100.003H95.3297V100.363H94.9697V100.723H94.6763V101.083H94.3163V101.443H93.5963V101.803H93.2363V102.163H92.8763V102.523H92.5163V102.883H92.1563V103.243H91.7962V103.603H91.0762V103.963H90.7162V104.323H90.3562V104.683H89.6362V105.043H89.2762V105.403H88.9162V105.763H88.1961V106.123H87.8361V106.483H87.1828V106.843H86.8228V107.203H86.1027V107.563H85.3827V107.923H85.0227V108.283H84.3027V108.643H83.5827V109.003H82.8626V109.363H82.1426V109.723H81.4226V110.083H80.7693V110.443H80.0492V110.803H78.9692V111.163H78.2492V111.523H77.1691V111.883H76.0891V112.243H75.3691V112.603H73.9291V112.963H72.5557V113.323H70.7556V113.683H69.6756V114.043H67.1555V114.403H65.0621V114.763H64.7021L64.6621 114.403H64.3421V114.763H55.7552V114.403H52.9418V114.043H50.4217V113.683H48.9817V113.323H47.5416V112.963H46.4616V112.603H45.0882V112.243H44.0082V111.883H42.9282V111.523H41.8481V111.163H41.1281V110.803H40.0481V110.443H39.328V110.083H38.6747V109.723H37.9547V109.363H37.2347V109.003H36.5146V108.643H35.7946V108.283H35.0746V107.923H34.3546V107.563H33.6345V107.203H32.9145V106.843H32.5545V106.483H31.9012V106.123H31.5412V105.763H30.8211V105.403H30.4611V105.043H30.1011V104.683H29.3811V104.323H29.0211V103.963H28.3011V103.603H27.9411V103.243H27.581V102.883H27.221V102.523H26.501V102.163H26.141V101.803H25.781V101.443H25.4876V101.083H25.1276V100.723H24.7676V100.363H24.4076V100.003H24.0476V99.6429H23.6876V99.2829H23.3276V98.9229H22.9676V98.5629H22.6076V98.2029H22.2476V97.8429H21.8875V97.4829H21.5275V97.1229H21.1675V96.7628H20.8075V96.4028H20.4475V96.0428H20.0875V95.6828H19.7275V94.9628H19.3675V94.6028H19.0075V94.2428H18.6474V93.5228H18.3541V93.1627H17.9941V92.8027H17.6341V92.4427H17.2741V91.7227H16.9141V91.0027H16.5541V90.2827H16.194V89.9226H15.834V89.2026H15.474V88.8426H15.114V87.7626H14.754V87.4026H14.394V86.6826H14.034V86.3225H13.674V85.2425H13.314V84.8825H12.9539V83.8025H12.5939V83.0824H12.2339V82.3624H11.8739V81.2824H11.5806V80.5624H11.2206V79.4823H10.8606V78.4023H10.5005V77.3223H10.1405V75.8822H9.78052V74.8689H9.42051V73.0688H9.0605V71.2688H8.70049V68.7487H8.34048V65.8553H7.98047V56.4683H8.34048V53.5749H8.70049V51.0548H9.0605V49.6148H9.42051V48.1748H9.78052V46.7347H10.1405V45.2947H10.5005V44.5747H10.8606V43.4946H11.2206V42.4146H11.5806V41.3346H11.8739V40.2545H12.2339V39.5345H12.5939V38.8145H12.9539V38.0945H13.314V37.3745H13.674V36.6544H14.034V35.9344H14.394V35.2144H14.754V34.4944H15.114V34.1344H15.474V33.4143H15.834V32.6943H16.194V32.3343H16.5541V31.6143H16.9141V31.2543H17.2741V30.5343H17.6341V30.1742H17.9941V29.4542H18.3541V29.0942H18.6474V28.7342H19.0075V28.0142H19.3675V27.6542H19.7275V27.2942H20.0875V26.9341H20.4475V26.2141H20.8075V25.8541H21.1675V25.4941H21.5275V25.1341H21.8875V24.7741H22.2476V24.4141H22.6076V24.0541H22.9676V23.6941H23.3276V23.334H23.6876V22.974H24.0476V22.614H24.4076V22.254H24.7676V21.894H25.1276V21.534H25.4876V21.174H25.781V20.814H26.141V20.454H26.861V20.0939H27.221V19.7339H27.581V19.3739H27.9411V19.0139H28.6611V18.6539H29.0211V18.2939H29.3811V18.0006H29.7411V17.6405H30.4611V17.2805H30.8211V16.9205H31.5412V16.5605H32.2612V16.2005H32.5545V15.8405H32.9145V15.4805H33.6345V15.1205H33.9946V14.7605H35.0746V14.4004H35.4346V14.0404H36.1546V13.6804H36.8746V13.3204H37.5947V12.9604H38.3147V12.6004H39.0347V12.2404H40.0481V11.8804H40.7681V11.5204H41.8481V11.1604H42.5681V10.8003H43.6482V10.4403H44.7282V10.0803H45.8082V9.72031H47.5416V9.3603H48.6217V9.00029H50.7817V8.64028H52.5818V8.28027H56.1152L56.1019 8.2936ZM64.6888 10.107H54.6485V10.467H51.8351V10.827H49.675V11.187H48.235V11.547H47.1549V11.907H45.4216V12.2671H44.7015V12.6271H43.2615V12.9871H42.1815V13.3471H41.4614V13.7071H40.3814V14.0671H39.6614V14.4271H39.008V14.7871H37.928V15.1471H37.568V15.5071H36.848V15.8672H36.128V16.2272H35.4079V16.5872H35.0479V16.9472H34.3279V17.3072H33.6079V17.6672H32.8879V18.0272H32.5278V18.3206H32.2345V18.6806H31.5145V19.0406H31.1545V19.4006H30.4345V19.7606H30.0744V20.1206H29.7144V20.4806H29.3544V20.8406H28.6344V21.2006H28.2744V21.5607H27.9144V21.9207H27.1944V22.2807H26.8344V22.6407H26.4743V23.0007H26.1143V23.3607H25.7543V23.7207H25.461V24.0807H25.101V24.4407H24.741V24.8008H24.3809V25.1608H24.0209V25.5208H23.6609V26.2408H22.9409V26.9608H22.5809V27.3208H22.2209V27.6808H21.8609V28.0408H21.5009V28.4009H21.1409V29.1209H20.7808V29.4809H20.4208V29.8409H20.0608V30.5609H19.7008V30.9209H19.3408V31.2809H18.9808V32.001H18.6208V32.361H18.3274V32.721H17.9674V33.441H17.6074V33.801H17.2474V34.521H16.8874V35.2411H16.5274V35.9611H16.1674V36.3211H15.8074V37.0411H15.4474V37.7611H15.0873V38.4811H14.7273V39.2012H14.3673V40.2812H14.0073V41.0012H13.6473V41.7212H13.2873V42.4413H12.9273V43.8813H12.5673V44.9613H12.2073V45.6814H11.8472V46.7614H11.5539V48.2014H11.1939V49.6415H10.8339V52.1615H10.4739V54.3216H10.1139V57.935H9.75385V58.6551L10.1139 58.6951V59.0151H9.75385V61.9085L10.1139 61.9485V62.2685H9.75385V63.7085H10.1139V67.682H10.4739V69.8421H10.8339V72.0021H11.1939V73.8022H11.5539V75.2422H11.8472V76.6156H12.2073V77.3356H12.5673V78.4156H12.9273V79.4957H13.2873V80.5757H13.6473V81.2957H14.0073V82.3758H14.3673V83.4558H14.7273V83.8158H15.0873V84.5358H15.4474V85.2558H15.8074V85.9759H16.1674V86.6959H16.5274V87.4159H16.8874V88.1359H17.2474V88.4959H17.6074V89.216H17.9674V89.576H18.3274V90.296H18.6208V90.656H18.9808V91.016H19.3408V91.736H19.7008V92.096H20.0608V92.8161H20.4208V93.1761H20.7808V93.5361H21.1409V93.8961H21.5009V94.6161H21.8609V94.9761H22.2209V95.3361H22.5809V95.6961H22.9409V96.0562H23.3009V96.4162H23.6609V96.7762H24.0209V97.1362H24.3809V97.4962H24.741V97.8562H25.101V98.2162H25.461V98.5762H25.7543V98.9362H26.1143V99.2963H26.4743V99.6563H26.8344V100.016H27.1944V100.376H27.9144V100.736H28.2744V101.096H28.6344V101.456H28.9944V101.816H29.3544V102.176H29.7144V102.536H30.4345V102.896H30.7945V103.256H31.5145V103.616H31.8745V103.976H32.5278V104.336H32.8879V104.696H33.6079V105.056H33.9679V105.416H34.6879V105.776H35.0479V106.136H35.7679V106.496H36.488V106.856H37.208V107.216H37.928V107.576H38.648V107.937H39.3014V108.297H40.0214V108.657H41.1014V109.017H41.8215V109.377H42.9015V109.737H43.9815V110.097H45.0615V110.457H46.4349V110.817H47.515V111.177H48.955V111.537H50.395V111.897H52.5551V112.257H55.0085V112.617H65.4088V112.257H67.5022V111.897H70.0223V111.537H71.4623V111.177H72.9024V110.817H74.2757V110.457H75.3558V110.097H76.4358V109.737H77.5158V109.377H78.2358V109.017H79.3159V108.657H80.0359V108.297H80.7559V107.937H81.4093V107.576H82.1293V107.216H82.8493V106.856H83.5693V106.496H84.2894V106.136H84.6494V105.776H85.3694V105.416H86.0894V105.056H86.4494V104.696H87.1694V104.336H87.5294V103.976H88.1828V103.616H88.5428V103.256H88.9028V102.896H89.6228V102.536H89.9829V102.176H90.3429V101.816H91.0629V101.456H91.4229V101.096H91.7829V100.736H92.1429V100.376H92.5029V100.016H92.8629V99.6563H93.223V99.2963H93.583V98.9362H93.943V98.5762H94.303V98.2162H94.663V97.8562H94.9563V97.4962H95.3163V97.1362H95.6763V96.7762H96.0364V96.4162H96.3964V96.0562H96.7564V95.6961H97.1164V95.3361H97.4764V94.9761H97.8364V94.6161H98.1964V93.8961H98.5564V93.5361H98.9164V93.1761H99.2764V92.456H99.6365V92.096H99.9965V91.736H100.356V91.376H100.716V90.656H101.077V90.296H101.437V89.576H101.73V88.8559H102.09V88.4959H102.45V87.7759H102.81V87.0559H103.17V86.6959H103.53V85.9759H103.89V85.2558H104.25V84.5358H104.61V83.8158H104.97V82.7358H105.33V82.0157H105.69V81.2957H106.05V80.2157H106.41V79.4957H106.77V78.4156H107.13V77.3356H107.49V75.8956H107.85V74.8822H108.21V73.8022H108.503V71.6421H108.863V70.2021H109.223V69.8821L108.863 69.8421V69.4821H109.223V66.962H109.583V56.135H109.223V52.8816H108.863V50.7215H108.503V49.2815H108.21V47.8414H107.85V46.4014H107.49V45.3213H107.13V44.2413H106.77V43.5213H106.41V42.4413H106.05V41.3612H105.69V40.6412H105.33V39.9212H104.97V39.2012H104.61V38.1211H104.25V37.4011H103.89V37.0411H103.53V36.3211H103.17V35.6011H102.81V34.881H102.45V34.521H102.09V33.801H101.73V33.081H101.437V32.721H101.077V32.001H100.716V31.6409H100.356V30.9209H99.9965V30.5609H99.6365V30.2009H99.2764V29.4809H98.9164V29.1209H98.5564V28.7609H98.1964V28.4009H97.8364V27.6808H97.4764V27.3208H97.1164V26.9608H96.7564V26.6008H96.3964V26.2408H96.0364V25.8808H95.6763V25.5208H95.3163V25.1608H94.9563V24.8008H94.663V24.4407H94.303V24.0807H93.943V23.7207H93.583V23.3607H93.223V23.0007H92.8629V22.6407H92.5029V22.2807H92.1429V21.9207H91.4229V21.5607H91.0629V21.2006H90.7029V20.8406H90.3429V20.4806H89.9829V20.1206H89.2628V19.7606H88.9028V19.4006H88.5428V19.0406H87.8228V18.6806H87.5294V18.3206H86.8094V18.0272H86.4494V17.6672H85.7294V17.3072H85.3694V16.9472H84.6494V16.5872H83.9293V16.2272H83.2093V15.8672H82.8493V15.5071H81.7693V15.1471H81.0493V14.7871H80.3959V14.4271H79.6759V14.0671H78.9559V13.7071H77.8758V13.3471H76.7958V12.9871H76.0758V12.6271H74.9958V12.2671H73.9157V11.907H72.9024V11.547H71.1023V11.187H70.0223V10.827H67.8622V10.467H67.6489V10.827H67.1422V10.467H64.6888V10.107ZM84.6894 15.1605H84.3294V15.5205H84.6894V15.1605ZM96.0897 23.7474H95.7297V24.1074H96.0897V23.7474ZM9.32717 57.6684H8.96716V58.0284H9.32717V57.6684ZM12.5006 80.3224H12.1406V80.6824H12.5006V80.3224ZM38.6347 109.203H38.2747V109.563H38.6347V109.203Z" fill="white"/>
<path d="M9.31411 57.668H8.9541V58.028H9.31411V57.668Z" fill="white"/>
<path d="M96.0895 23.748H95.7295V24.1081H96.0895V23.748Z" fill="white"/>
<path d="M84.6764 15.1602H84.3164V15.5202H84.6764V15.1602Z" fill="white"/>
<path d="M12.5006 80.3223H12.1406V80.6823H12.5006V80.3223Z" fill="white"/>
<path d="M38.6217 109.203H38.2617V109.563H38.6217V109.203Z" fill="white"/>
<path d="M85.4097 42.5082C85.4097 42.3882 85.4097 42.2682 85.4097 42.1482H85.7697V41.7881H86.1297V41.4281H86.8498V41.0681H87.5698V40.7081H87.8631V40.3481H88.2231V39.9881H88.9432V39.6281H89.3032V39.2681H90.0232V38.9081H90.3832V38.5481H91.1032V38.188H91.4632V37.828H92.1832V37.468H92.5433V37.108H93.2633V36.748H93.6233V36.388H94.3433V36.028H94.7033V35.668H95.3567V36.028H95.7167V36.748H96.0767V37.468H96.4367V37.828H96.7967V38.9081H96.4367V39.6281H96.0767V40.3481H95.7167V40.7081H95.3567V41.4281H94.9967V42.1482H94.7033V42.5082H94.3433V43.2282H93.9833V43.5882H93.6233V44.3082H93.2633V44.6682H92.9033V45.3883H92.5433V45.7483H92.1832V46.8283H92.5433V46.4683H93.2633V46.1083H93.9833V45.7483H94.3433V45.3883H94.9967V45.0282H95.7167V44.6682H96.0767V44.3082H96.4367V43.9482H97.1567V43.5882H97.8768V43.2282H98.2368V42.8682H98.9568V42.5082H99.6768V42.8682H100.037V43.5882H100.397V43.9482H100.757V45.0282H100.397V45.3883H99.6768V45.7483H98.9568V46.1083H98.5968V46.4683H97.8768V46.8283H97.1567V47.1883H96.4367V47.5483H96.0767V47.9083H95.3567V48.2683H94.7033V48.6283H94.3433V48.9884H93.6233V49.3484H92.9033V49.7084H92.1832V50.0684H91.8232V50.4284H91.1032V50.7884H90.3832V51.1484H90.0232V51.5084H88.9432V51.8684H88.5831V52.2284H87.2098V51.5084H86.8498V50.7884H86.4898V49.7084H86.8498V48.9884H87.2098V48.6283H87.5698V48.2683H87.8631V47.5483H88.2231V47.1883H88.5831V46.8283H88.9432V46.1083H89.3032V45.7483H89.6632V45.0282H90.0232V44.6682H90.3832V44.3082H90.7432V43.5882H91.1032V43.2282H91.4632V42.5082H91.8232V42.1482H92.1832V41.0681H91.8232V41.4281H91.4632V41.7881H90.7432V42.1482H90.3832V42.5082H89.6632V42.8682H89.3032V43.2282H88.5831V43.5882H87.8631V43.9482H87.5698V44.3082H86.8498V44.6682H86.1297V45.0282H85.7697V45.3883H85.0497V45.7483H83.9697V45.3883H83.6097V44.6682H83.2497V43.9482H82.8896V43.5882H83.6097V43.2282H83.9697V42.8682H84.6897V42.5082C84.9297 42.5082 85.1697 42.5082 85.4097 42.5082C85.4097 42.6282 85.4097 42.7482 85.4097 42.8682H85.7697V42.5082C85.6497 42.5082 85.5297 42.5082 85.4097 42.5082ZM85.4097 44.3082H85.0497V44.6682H85.4097V44.3082Z" fill="white"/>
<path d="M62.5157 19.4143C62.6357 19.4143 62.7557 19.4143 62.8757 19.4143V20.1344H63.2357V21.2144H63.5957V23.0144H63.9557V29.148H63.5957V30.588H63.2357V31.308H62.8757V32.028H62.5157V32.3881H62.1556V32.7481H61.4356V33.1081H60.7156V33.4681H59.3422V33.8281H57.1822V33.4681H55.7421V33.1081H55.3821V32.7481H54.6621V32.3881H54.3021V32.028H53.9421V31.308H53.5821V30.588H53.2221V29.148H52.9287V21.5744H53.2221V20.4944H53.5821V19.7744H53.9421V19.0543H54.3021V18.6943H54.6621V18.3343H55.0221V18.041H55.7421V17.681H56.4621V17.3209H57.5422V16.9609H58.6222V17.3209H60.3556V17.681H61.0756V18.041H61.4356V18.3343H62.1556V19.0543H62.5157C62.5157 19.1743 62.5157 19.2943 62.5157 19.4143C62.3957 19.4143 62.2757 19.4143 62.1556 19.4143V19.7744H62.5157C62.5157 19.6543 62.5157 19.5343 62.5157 19.4143ZM56.4621 20.8544V21.9344H56.1021V29.148H56.4621V29.868H56.8222V30.588H57.1822V30.948H59.7022V30.588H60.0623V30.228H60.3556V29.508H60.7156V25.5345L61.0756 25.4945V24.8145L60.7156 24.7745V24.4545H61.0756V24.0945H60.7156V21.9344H60.3556V20.8544H60.0623V20.4944H59.7022V20.1344H58.2622V19.7744H57.9022V20.1344H57.1822V20.4944H56.8222V20.8544H56.4621ZM56.4621 32.4014H56.1021V32.7614H56.4621V32.4014Z" fill="white"/>
<path d="M103.237 52.6152V53.6953H103.597V54.7753H103.957V59.4688H103.597V60.1888H103.237V60.9088H102.877V61.2688H102.517V61.6288H102.157V61.9888H101.797V62.3488H101.144V62.7089H100.424V63.0689H99.3437V63.4289H98.2636V63.7889H96.1036V64.1489H92.9301V63.7889H91.8501V63.4289H91.4901V63.0689H90.7701V62.7089H90.4101V62.3488H90.0501V61.6288H89.69V60.9088H89.33V59.8288H88.97V58.3887H88.61V55.8687L88.25 55.8287V55.5087H88.61V55.1486H90.0501V54.7886H91.4901V54.4286H93.6502V54.0686H95.3835V53.7086H97.1836V53.3486H98.9836V52.9886H100.424V52.6286H103.237V52.6152ZM98.9703 56.2287H97.1703V56.5887H95.0102V56.9487H93.6368V57.3087H91.8368V57.6687H91.4768V59.1088H91.8368V59.8288H92.1968V60.5488H92.5568V60.9088H96.0902V60.5488H97.8903V60.1888H99.3303V59.8288H100.05V59.4688H100.77V58.7487H101.13V56.2287H100.77V55.8687H99.6903V56.2287H99.3703L99.3303 55.8687H98.9703V56.2287ZM91.1034 61.6288H90.7434V61.9888H91.1034V61.6288Z" fill="white"/>
<path d="M25.0612 51.1758V51.5358H26.7946V51.8958H27.8746V52.2558H28.5947V52.6158H28.9547V52.9758H29.6747V53.3358H30.0347V53.6959H30.3947V54.0559H30.7547V54.4159H31.1147V55.1359H31.4747V56.2159H31.8348V58.376H31.4747V59.816H31.1147V60.5361H30.7547V60.8961H30.3947V61.6161H29.6747V61.9761H29.3147V62.3361H28.5947V62.6961H27.5146V63.0561H23.9812V62.6961H22.5412V62.3361H21.1011V61.9761H20.3811V61.6161H19.6611V61.2561H19.3011V60.8961H18.581V60.5361H18.2877V60.176H17.9277V59.456H17.5677V59.096H17.2077V58.016H16.8477V57.696L17.2077 57.656V57.296H16.8477V56.2159H17.2077V54.0559H17.5677V53.3358H17.9277V52.9758H18.2877V52.6158H18.581V52.2558H18.9411V51.8958H19.6611V51.5358H20.7411V51.1758H25.0746H25.0612ZM23.6079 54.0559H21.0878V54.4159H20.3678V54.7759H20.0077V55.1359H19.6477V55.4959H19.2877V56.5759H19.6477V57.296H20.0077V57.656H20.3678V58.016H21.0878V58.376H21.4478V58.736H22.5278V59.096H23.2478V59.456H28.2347V59.096H28.5947V58.736H28.9547V56.5759H28.5947V56.2159H28.2347V55.8559H27.5146V55.4959H27.1546V55.1359H26.0746V54.7759H25.4212V54.4159H23.6212V54.0559H23.6079Z" fill="white"/>
<path d="M31.1144 64.8828V65.9628H31.4744V67.7629H30.3944V68.1229H28.2343V68.4829H26.4343V68.8429H25.7142V71.7363H26.0742V72.4564H26.4343V72.8164H27.1543V72.4564H29.6744V72.0964H30.7544V71.7363H32.4878V72.0964H32.8478V73.8964H33.2078V74.2564H32.8478V74.6164H32.1944V74.9764H30.7544V75.3365H28.9543V75.6298H27.1543V75.9898H25.0609V76.3498H23.9809V76.7098H22.1808V77.0698H20.3808V77.4298H18.9407V77.7899H18.2874V77.0698H17.9273V74.9764H18.5807V74.6164H20.0207V74.2564H21.4608V73.8964H22.9008V73.5364H23.2608V71.7363H22.9008V70.2963H22.5408V69.5763H21.4608V69.9363H19.6607V70.2963H17.5673V70.6563H16.8473V69.2163H16.4873V68.1362H16.8473V67.7762H17.2073V67.4162H19.3007V67.0562H20.3808V66.6962H22.5408V66.3362H24.3409V65.9762H26.0742V65.6162H27.8743V65.2562H29.6744V64.8961H31.1144V64.8828ZM25.0609 66.6829H24.7009V67.0429H25.0609V66.6829Z" fill="white"/>
<path d="M46.4223 19.4141V21.9341H46.1289V24.0942H45.7689V27.7076H46.1289V28.0676H46.7823V28.4277H47.1423V28.7877H47.5023V29.1477H47.8623V29.5077H48.2223V29.8677H48.5823V30.2277H48.9423V30.5877H49.6623V30.9477H50.0224V31.3077H50.3824V31.6678H50.7424V32.0278H51.1024V32.3878H51.4624V32.7478H52.1824V33.1078H52.5424V33.8278H52.1824V34.1878H51.1024V34.5478H49.3023V34.1878H48.9423V33.8278H48.5823V33.4678H48.2223V33.1078H47.8623V32.7478H47.5023V32.3878H47.1423V32.0278H46.4223V31.6678H46.1289V31.3077H45.7689V30.9477H45.4089V30.5877H45.0489V30.9477H44.6889V32.3878H45.0489V34.1878H45.4089V35.6279H45.7689V36.7079H45.4089V37.0679H44.6889V37.4279H43.9688V37.7879H43.2488V37.0679H42.8888V36.3479H42.5288V35.6279H42.1688V34.5478H41.8088V33.8278H41.4488V33.1078H41.0888V32.0278H40.7288V31.3077H40.3687V30.5877H40.0087V29.5077H39.6487V28.7877H39.2887V28.0676H38.9954V26.9876H38.6354V25.9076H38.2753V25.1876H37.9153V24.4675H37.5553V23.7475H37.1953V23.0675L37.9153 23.0275V22.6675H38.6354V22.3075H39.6487L39.6887 21.9475H40.0087V22.3075H40.3687V23.3875H40.7288V24.1075H41.0888V24.8276H41.4488V25.9076H41.8088V26.6276H42.1688V27.7076H42.5288V28.0676H42.8888V26.6276H43.2488V24.1075H43.6088V21.5875H43.9688V20.1474H44.3289V19.7874H45.4089V19.4274H46.4223V19.4141ZM43.6088 31.6811H43.2488V32.0411H43.6088V31.6811ZM45.0489 34.5745H44.6889V34.9345H45.0489V34.5745Z" fill="white"/>
<path d="M31.4884 28.8014V28.4414H32.2084V28.8014H32.8618V29.1614H33.5818V29.5214H33.9418V29.8814H34.3018V30.6015H34.6618V30.9615H34.3018V31.3215H33.9418V31.6815H33.2218V32.0415H31.8484V31.6815H30.7684V32.0415H30.0483V32.4015H29.6883V32.7615H29.3283V34.2016H29.6883V34.5616H30.0483V34.9216H32.2084V34.5616H33.9418V34.2016H37.1952V34.5616H37.9152V34.9216H38.6353V35.6416H39.2886V36.3616H39.6486V37.0817H40.0086V40.3351H39.6486V41.0551H39.2886V41.7751H38.9953V42.1351H38.6353V42.4952H38.2753V42.8552H37.9152V43.2152H37.5552V43.5752H36.8352V43.9352H36.4752V44.2952H35.0352V44.6552H33.9551V44.2952H33.2351V43.9352H32.8751V43.5752H32.2217V43.2152H31.8617V42.4952H32.2217V41.7751H32.5151V41.4151H32.8751V41.0551H33.5951V40.6951H33.9551V41.0551H34.3151V41.4151H35.7552V41.0551H36.1152V40.6951H36.4752V40.3351H36.8352V39.9751H37.1952V38.535H36.8352V38.175H36.4752V37.815H32.8618V38.175H31.1284V38.535H30.0483V38.175H29.6883V38.535H29.3283V38.175H28.6083V37.815H27.8883V37.455H27.5283V37.095H27.1683V36.735H26.8083V36.015H26.4482V32.4015H26.8083V32.0415H27.1683V31.3215H27.5283V30.6015H27.8883V30.2415H28.6083V29.8814H28.9683V29.5214H29.6883V29.1614H30.4084V28.8014H31.4884ZM37.1819 42.8685H36.8219V43.2285H37.1819V42.8685Z" fill="white"/>
<path d="M88.5827 67.416H88.9427V66.6959H89.3027V66.3359H90.0227V66.6959H91.8227V67.056H92.9028V67.416H94.3428V67.776H95.7162V68.136H97.1562V68.496H98.5963V68.856H100.396V69.216H101.77V69.576H102.85V72.4694H100.756V72.1094H98.2363V71.7494H97.1562V72.1094H96.7962V72.4694H97.1562V72.8295H97.5162V73.1895H98.2363V73.5495H98.5963V73.9095H98.9563V74.2695H99.3163V74.6295H99.6763V74.9895H100.036V75.3495H100.756V75.6429H101.116V76.3629H101.476V77.4429H101.116V78.523H100.756V79.603H100.396V79.243H100.036V78.883H99.6763V78.1629H99.3163V77.8029H98.9563V77.4429H98.5963V77.0829H98.2363V76.7229H97.8763V76.3629H97.5162V76.0029H97.1562V75.6429H96.7962V75.3495H96.4362V74.9895H96.0762V74.6295H95.7162V74.2695H95.3562V73.9095H94.7028V74.2695H92.9028V74.6295H91.4627V74.9895H90.0227V75.3495H88.5827V75.6429H86.4893V75.3495H86.8493V73.5495H87.2093V72.8295H87.5693V72.4694H88.9427V72.1094H90.3827V71.7494H92.1828V71.3894H92.9028V70.6694H92.5428V70.3094H91.4627V69.9494H90.0227V69.5894H88.5827V69.2294H88.2226V68.9093L88.5827 68.8693V67.4293V67.416ZM92.9161 69.576H92.5561V69.936H92.9161V69.576Z" fill="white"/>
<path d="M82.1557 41.0673H81.7957V41.4273H81.4356V41.7873H80.7823V41.4273H80.0623V41.0673H79.7023V40.7073H78.9822V40.3473H78.6222V39.9872H77.9022V39.6272H77.5422V39.2672H77.1689L77.1822 38.8939L76.4488 38.9072V38.5339H76.0888V38.1739H75.7288V37.8139H75.3688V37.4538H75.0088V37.0938H75.3688V36.7338H75.7288V36.0138H76.0888V35.6538H76.4488V34.9338H76.8088V34.5738H77.1822L77.1689 34.2137H77.5422V33.4937H77.9022V33.1204H78.2622V32.4004H78.6222V32.0404H78.9822V31.3203H79.3422V30.9603H79.7023V30.6003H80.0623V29.8803H80.4223V29.5203H80.7823V28.8003H81.0756V28.4402H81.4356V27.7069L81.7957 27.7202V26.9869H82.1557V26.6269H82.5157V26.2668H82.8757V25.5468H83.2357V25.1868H83.5957V24.8268H83.9557V24.4668H84.3157V24.8268H84.6891V25.1868H85.0491V25.5468H85.7691V25.9068H86.1291V26.2668H86.4891V26.6269H86.8491V26.9869H87.5692V27.3469H87.8625V27.7202L88.2225 27.7069V28.0802H88.5825V28.4402H88.9425V28.8003H89.6625V29.1603H90.0226V30.6003H89.6625V30.9603H89.3025V31.6803H88.9425V32.0404H88.5825V31.6803H88.2225V31.3203H87.8625V30.9603H87.2091V30.6003H86.8491V30.2403H86.4891V29.8803H86.1291V29.5203H85.4091V29.1603H84.6891V29.5203H84.3157V29.8803H83.9557V30.2403H83.5957V30.9603H83.2357V31.3203H82.8757V32.0404H83.2357V32.4004H83.5957V32.7604H83.9557V33.1337L84.3157 33.1204V33.4937H84.6891V33.8537H85.0491V34.2137H85.4091V34.5738H85.7691V35.6538H85.4091V36.0138H85.0491V36.3738H84.6891V36.7338H84.3157V36.3738H83.9557V36.0138H83.5957V35.6538H82.8757V35.2938H82.5157V34.9338H82.1557V34.5738H81.7957V34.2137H80.7823V34.9338H80.4223V35.2938H80.0623V35.6538H79.7023V36.3738H79.3422V37.8139H80.0623V38.1739H80.4223V38.5339H80.7823V38.9072L81.0756 38.8939V39.2672H81.7957V39.6272H82.1557V41.0673Z" fill="white"/>
<path d="M71.1161 19.0547V19.4147H72.5561V19.7747H73.2761V20.1347H72.9161V21.5748H72.5561V23.0281H72.1961V24.4682H71.8361V25.9082H71.4761V27.3483H71.1161V28.8016H70.756V30.2417H70.396V32.7618H71.8361V33.1351L72.5561 33.1218V33.4951H73.6361V33.8551H73.9295V34.9352H73.6361V35.6552H73.2761V36.3752H72.5561V36.0152H71.8361V35.6552H70.396V35.2952H69.3027V34.9352H68.2226V34.5751H67.1426V34.2151H66.4893V32.7618H66.8493V31.3217H67.1426V29.5217H67.5026V28.4416H67.8626V27.3483H68.2226V26.2682H68.5827V24.8282H68.9427V23.3881H69.3027V21.9348H69.6627V20.8547H70.036V19.0547H71.1161Z" fill="white"/>
<path d="M20.3672 40.7079H20.7272V39.9879H21.0872V39.2679H21.4472V38.8945H21.8072V39.2679H22.1672V39.6279H22.8873V39.9879H23.6073V40.3479H23.9806L23.9673 40.7079H24.7006V41.0679H25.4207V41.4279H26.074L26.0607 41.7879H26.794V42.148H27.5141V42.508H27.8741V42.868H28.5941V43.228H29.3141V43.588H30.0341V43.948H30.7542V44.308H31.4875V44.6814L31.8475 44.668V45.0414H32.4875V45.4014H32.8475V45.7614H33.2076V46.1214H33.5809V48.6415H33.2076V49.3615H32.8475V50.4549H32.4875V51.1749H32.2075V51.5349H30.3941V51.1749H30.0341V50.8549L30.3941 50.8149V49.3615H32.2075V47.9215H31.4875V47.5614H30.3941V47.2014H29.3141V46.8414H28.5941V46.4814H27.8741V46.1214H27.5141V45.7614H26.794V45.4014H26.0607L26.074 45.0414H25.4207V44.668L24.7006 44.6814V44.308H23.9673L23.9806 43.948H23.6073V43.588H22.8873V43.228H22.1672V42.868H21.4472V42.508H21.0872V42.148H20.3672V40.7079Z" fill="white"/>
<path d="M15.3811 56.5879H13.5811V58.748H15.3811V56.5879Z" fill="white"/>
<path d="M15.3811 53.334V53.694H15.7411V54.014L15.3811 54.054V54.414H15.7411V54.774H15.3811V55.134H14.6611V55.494H14.3011V55.134H13.5811V53.694H13.9411V53.334H15.3811Z" fill="white"/>
<path d="M85.4098 44.3086H85.0498V44.6686H85.4098V44.3086Z" fill="white"/>
<path d="M56.4616 32.4004H56.1016V32.7604H56.4616V32.4004Z" fill="white"/>
<path d="M91.1032 61.6289H90.7432V61.9889H91.1032V61.6289Z" fill="white"/>
<path d="M25.0612 66.6816H24.7012V67.0417H25.0612V66.6816Z" fill="white"/>
<path d="M45.0485 34.5742H44.6885V34.9342H45.0485V34.5742Z" fill="white"/>
<path d="M43.6081 31.6816H43.248V32.0417H43.6081V31.6816Z" fill="white"/>
<path d="M37.1813 42.8672H36.8213V43.2272H37.1813V42.8672Z" fill="white"/>
<path d="M92.9166 69.5762H92.5566V69.9362H92.9166V69.5762Z" fill="white"/>
</g>
<defs>
<clipPath id="clip0_736_2393">
<rect width="119.698" height="122.91" fill="white"/>
</clipPath>
</defs>
</svg>
