<svg width="43" height="44" viewBox="0 0 43 44" fill="none" xmlns="http://www.w3.org/2000/svg">
<g clip-path="url(#clip0_514_1181)">
<path d="M23.3681 -2.7311e-06V0.128876H24.6375V0.257754H25.4134V0.386632H26.0601V0.51551H26.5535V0.644389H26.9414V0.773267H27.4588V0.902145H27.8468V1.03102H28.2347V1.1599H28.7521V1.28878H29.0107V1.41766H29.3748V1.54654H29.6334V1.67542H29.8921V1.80429H30.2801V1.93317H30.5387V2.06205H30.7974V2.19093H31.056V2.31981H31.1854V2.44868H31.5494V2.57756H31.6787V2.70644H31.9374V2.83532H32.1961V2.9642H32.4547V3.09308H32.584V3.22195H32.8427V3.35083H33.1014V3.47971H33.2307V3.60859H33.36V3.73747H33.6187V3.86635H33.748V3.99522H33.8773V4.1241H34.1121V4.25298H34.2414V4.38186H34.3707V4.51074H34.6294V4.63962H34.7587V4.76849H34.888V4.89737H35.0174V5.02625H35.276V5.15513H35.4053V5.28401H35.5347V5.41289H35.664V5.54176H35.7933V5.67064H35.9227V5.79952H36.052V5.9284H36.1813V6.05728H36.3107V6.18616H36.5454V6.44391H36.6747V6.54892H36.804V6.6778H36.9334V6.80668H37.0627V6.93556H37.192V7.06444H37.3213V7.19332H37.4507V7.32219H37.58V7.45107H37.7093V7.70883H37.8387V7.83771H37.968V7.96659H38.0973V8.09546H38.2267V8.35322H38.356V8.4821H38.4853V8.61098H38.6146V8.73985H38.744V8.99761H38.8733V9.12649H38.9787V9.38425H39.108V9.51313H39.2373V9.77088H39.3667V9.89976H39.496V10.1575H39.6253V10.2864H39.7547V10.5442H39.884V10.8019H40.0133V11.0597H40.1426V11.1885H40.272V11.4463H40.4013V11.7041H40.5306V11.9618H40.66V12.2196H40.7893V12.4773H40.9186V12.7351H41.048V13.1217H41.1773V13.3795H41.3066V13.6372H41.4359V14.0239H41.5413V14.4105H41.6706V14.6683H41.8V15.0549H41.9293V15.4415H42.0586V15.957H42.188V16.4726H42.3173V16.8592H42.4466V17.5036H42.576V18.2768H42.7053V18.9212H42.8346V20.3437H42.9639V23.8329H42.8346V24.8687H42.7053V25.642H42.576V26.4153H42.4466V27.0358H42.3173V27.6802H42.188V28.0668H42.0586V28.4535H41.9293V28.969H41.8V29.2267H41.6706V29.6134H41.5413V30H41.4359V30.3866H41.3066V30.6444H41.1773V31.031H41.048V31.2888H40.9186V31.5465H40.7893V31.8043H40.66V32.0621H40.5306V32.3198H40.4013V32.5776H40.272V32.8353H40.1426V32.9642H40.0133V33.222H39.884V33.3508H39.7547V33.6086H39.6253V33.8663H39.496V33.9952H39.3667V34.253H39.2373V34.3819H39.108V34.6396H38.9787V34.7685H38.8733V35.0263H38.744V35.1551H38.6146V35.284H38.4853V35.5418H38.356V35.6706H38.2267V35.7995H38.0973V35.9284H37.968V36.1862H37.8387V36.315H37.7093V36.4439H37.58V36.5728H37.4507V36.7017H37.3213V36.8306H37.192V36.9594H37.0627V37.0883H36.9334V37.2172H36.804V37.3461H36.6747V37.6038H36.5454V37.7327H36.44V37.8616H36.3107V37.9905H36.1813V38.1193H36.052V38.2482H35.9227V38.3771H35.664V38.506H35.5347V38.6348H35.4053V38.7637H35.276V38.8926H35.1467V39.0215H34.888V39.1504H34.7587V39.2792H34.6294V39.4081H34.5V39.537H34.3707V39.6659H34.1121V39.7948H34.0067V39.9236H33.748V40.0525H33.6187V40.1814H33.4894V40.3103H33.2307V40.4391H33.1014V40.568H32.8427V40.6969H32.7134V40.8258H32.3254V40.9547H32.1961V41.0835H32.0667V41.2124H31.8081V41.3413H31.5494V41.4702H31.444V41.599H31.1854V41.7279H30.9267V41.8568H30.6681V41.9857H30.4094V42.1146H30.1507V42.2434H29.7627V42.3723H29.5041V42.5012H29.1161V42.6301H28.8814V42.759H28.6227V42.8878H28.1054V43.0167H27.7174V43.1456H27.2001V43.2745H26.8121V43.4033H26.3187V43.5322H25.8014V43.6611H24.8961V43.79H24.0148V43.9189H19.3733V43.79H18.4919V43.6611H17.5866V43.5322H16.94V43.4033H16.4466V43.2745H15.9293V43.1456H15.5413V43.0167H15.024V42.8878H14.636V42.759H14.248V42.6301H14.0133V42.5012H13.6253V42.3723H13.2373V42.2434H13.108V42.1146H12.72V41.9857H12.4613V41.8568H12.0733V41.7279H11.944V41.599H11.6853V41.4702H11.4506V41.3413H11.192V41.2124H10.9333V41.0835H10.804V40.9547H10.5453V40.8258H10.2867V40.6969H10.1573V40.568H10.028V40.4391H9.76934V40.3103H9.51068V40.1814H9.38136V40.0525H9.25203V39.9236H9.01732V39.7948H8.88799V39.6659H8.62933V39.537H8.5V39.4081H8.37067V39.2792H8.24134V39.1504H8.11201V39.0215H7.85335V38.8926H7.72402V38.7637H7.59469V38.6348H7.46536V38.506H7.33603V38.3771H7.2067V38.2482H7.07737V38.1193H6.94804V37.9905H6.81871V37.8616H6.68938V37.7327H6.584V37.6038H6.32534V37.4749H6.19602V37.2172H5.93736V36.9594H5.80803V36.8306H5.6787V36.7017H5.54937V36.5728H5.42004V36.4439H5.29071V36.315H5.16138V36.1862H5.03205V36.0573H4.90272V35.7995H4.77339V35.6706H4.64406V35.5418H4.51473V35.4129H4.3854V35.1551H4.25607V35.0263H4.15069V34.8974H4.02136V34.6396H3.89203V34.5107H3.7627V34.253H3.63337V34.1241H3.50404V33.8663H3.37471V33.7375H3.24538V33.4797H3.11605V33.3508H2.98672V33.0931H2.85739V32.8353H2.72807V32.5776H2.59874V32.3198H2.46941V32.1909H2.34008V31.8043H2.21075V31.6754H2.08142V31.2888H1.95209V31.031H1.82276V30.7733H1.69343V30.5155H1.58805V30H1.45872V29.7422H1.32939V29.3556H1.20006V28.969H1.07073V28.5823H0.941401V28.1957H0.812071V27.5513H0.682741V26.9308H0.553412V26.1575H0.424082V25.5131H0.294753V24.3484H0.165423V23.0549H0.00256348V22.9403L0.131893 22.926V22.5394H0.00256348V20.6014H0.131893V19.4368H0.261223V19.3079L0.131893 19.2936V19.179H0.261223V18.1432H0.390552V17.6277H0.519882V16.9833H0.649212V16.4678H0.778541V15.9523H0.907871V15.4368H1.0372V15.0501H1.16653V14.6635H1.29586V14.2768H1.42519V14.0191H1.55452V13.6325H1.6599V13.3747H1.78923V12.9881H1.91856V12.7303H2.04789V12.4726H2.17722V12.2148H2.30655V11.957H2.43588V11.6993H2.56521V11.4415H2.69454V11.1838H2.82386V10.926H2.95319V10.6683H3.08252V10.5394H3.21185V10.2816H3.34118V10.0239H3.47051V9.89499H3.59984V9.63723H3.72917V9.50835H3.8585V9.25059H3.98783V9.12172H4.11716V8.99284H4.22254V8.73508H4.35187V8.6062H4.4812V8.47733H4.61053V8.21957H4.73986V8.09069H4.86919V7.83293H4.99852V7.70406H5.12785V7.57518H5.25718V7.4463H5.38651V7.18854H5.51584V7.05966H5.64517V6.93079H5.7745V6.80191H5.90383V6.67303H6.03316V6.54415H6.16249V6.43914H6.29181V6.31026H6.42114V6.18138H6.55047V6.0525H6.65585V5.92363H6.78518V5.79475H6.91451V5.66587H7.04384V5.53699H7.3025V5.40811H7.43183V5.27923H7.56116V5.15036H7.69049V5.02148H7.81982V4.8926H7.94915V4.76372H8.20781V4.63484H8.33714V4.50596H8.46647V4.37709H8.5958V4.24821H8.85446V4.11933H8.98379V3.99045H9.2185V3.86157H9.34783V3.73269H9.47716V3.60382H9.60648V3.47494H9.86514V3.34606H9.99447V3.21718H10.2531V3.0883H10.3825V2.95942H10.6411V2.83055H10.8998V2.70167H11.1584V2.57279H11.2878V2.44391H11.5464V2.31503H11.7811V2.18616H12.0398V2.05728H12.2985V1.9284H12.6864V1.79952H12.9451V1.67064H13.2038V1.54176H13.5918V1.41289H13.8504V1.28401H14.2145V1.15513H14.4731V1.02625H14.8611V0.897372H15.3784V0.768494H15.7664V0.639615H16.2837V0.510737H16.7771V0.381859H17.5531V0.252981H18.4584V0.124102H19.4691V-0.004776H23.3346L23.3681 -2.7311e-06ZM22.3287 1.42243H20.4079V1.55131H19.3685V1.68019H18.0991V1.80907H17.4525V1.93795H16.8058V2.06682H16.4418V2.1957H15.9245V2.32458H15.5365V2.45346H15.0192V2.58234H14.7605V2.71121H14.3725V2.84009H14.0085V2.96897H13.7498V3.09785H13.4912V3.22673H13.2325V3.35561H12.9738V3.48448H12.7152V3.61336H12.4565V3.74224H12.1979V3.87112H11.9392V4H11.6805V4.12888H11.5752V4.25775H11.3165V4.38663H11.0579V4.51551H10.9285V4.64439H10.6699V4.77327H10.5405V4.90215H10.2819V5.03102H10.1525V5.1599H9.89388V5.28878H9.76455V5.41766H9.63523V5.54654H9.37656V5.67542H9.24724V5.80429H9.14186V5.93317H9.01253V6.06205H8.75387V6.19093H8.62454V6.31981H8.49521V6.44869H8.36588V6.5537H8.23655V6.68258H8.10722V6.81145H7.97789V6.94033H7.71923V7.19809H7.5899V7.32697H7.46057V7.45585H7.33124V7.58472H7.20191V7.7136H7.07258V7.84248H6.94325V7.97136H6.81392V8.10024H6.68459V8.22912H6.57921V8.35799H6.44988V8.48687H6.32055V8.61575H6.19123V8.87351H6.0619V9.00239H5.93257V9.13126H5.80324V9.26014H5.67391V9.5179H5.54458V9.64678H5.41525V9.77565H5.28592V10.0334H5.15659V10.1623H5.02726V10.42H4.89793V10.5489H4.7686V10.8067H4.63927V10.9356H4.50994V11.1933H4.38061V11.4511H4.25128V11.58H4.1459V11.8377H4.01657V12.0955H3.88724V12.3532H3.75791V12.611H3.62858V12.8687H3.49925V13.1265H3.36992V13.3842H3.24059V13.7709H3.11126V14.0286H2.98193V14.2864H2.8526V14.673H2.72328V14.9308H2.59395V15.4463H2.46462V15.8329H2.33529V16.2196H2.20596V16.7351H2.07663V17.2506H1.9473V17.7661H1.81797V18.5394H1.68864V19.3126H1.58326V24.4821H1.68864V25.2554H1.81797V26.1575H1.9473V26.5442H2.07663V27.1647H2.20596V27.5513H2.33529V28.0668H2.46462V28.4535H2.59395V28.8401H2.72328V29.2267H2.8526V29.6134H2.98193V29.8711H3.11126V30.2578H3.24059V30.5155H3.36992V30.9021H3.49925V31.1599H3.62858V31.4177H3.75791V31.6754H3.88724V31.9332H4.01657V32.0621H4.1459V32.3198H4.25128V32.5776H4.38061V32.8353H4.50994V32.9642H4.63927V33.222H4.7686V33.3508H4.89793V33.6086H5.02726V33.7375H5.15659V33.9952H5.28592V34.1241H5.41525V34.253H5.54458V34.5107H5.67391V34.6396H5.80324V34.7685H5.93257V34.8974H6.0619V35.1551H6.19123V35.284H6.32055V35.4129H6.44988V35.5418H6.57921V35.6706H6.68459V35.7995H6.81392V35.9284H6.94325V36.0573H7.07258V36.1862H7.20191V36.315H7.33124V36.4439H7.46057V36.5728H7.5899V36.7017H7.71923V36.8306H7.84856V36.9594H7.97789V37.0883H8.10722V37.2172H8.23655V37.3461H8.36588V37.4749H8.49521V37.6038H8.75387V37.7327H8.8832V37.8616H9.01253V37.9905H9.14186V38.1193H9.24724V38.2482H9.5059V38.3771H9.63523V38.506H9.76455V38.6348H10.0232V38.7637H10.1525V38.8926H10.2819V39.0215H10.5405V39.1504H10.6699V39.2792H10.9285V39.4081H11.0579V39.537H11.3165V39.6659H11.5752V39.7948H11.6805V39.9236H11.9392V40.0525H12.1979V40.1814H12.4565V40.3103H12.7152V40.4391H12.9738V40.568H13.2325V40.6969H13.4912V40.8258H13.8792V40.9547H14.1139V41.0835H14.3725V41.2124H14.7605V41.3413H15.1485V41.4702H15.5365V41.599H15.9245V41.7279H16.4418V41.8568H16.8058V41.9857H17.4525V42.1146H17.9698V42.2434H18.8751V42.3723H20.0151V42.5012H22.8412V42.3723H24.3692V42.2434H25.0159V42.1146H25.7918V41.9857H26.3092V41.8568H26.8025V41.7279H27.1905V41.599H27.7078V41.4702H27.9665V41.3413H28.3545V41.2124H28.7425V41.0835H29.1065V40.9547H29.2358V40.8258H29.6238V40.6969H29.8825V40.568H30.1412V40.4391H30.3998V40.3103H30.6585V40.1814H30.7878V40.0525H31.0465V39.9236H31.3051V39.7948H31.5398V39.6659H31.6692V39.537H31.9278V39.4081H32.0571V39.2792H32.3158V39.1504H32.4451V39.0215H32.7038V38.8926H32.8331V38.7637H33.0918V38.6348H33.2211V38.506H33.3504V38.3771H33.4798V38.2482H33.7384V38.1193H33.8678V37.9905H33.9971V37.8616H34.1025V37.7327H34.2318V37.6038H34.3611V37.4749H34.6198V37.3461H34.7491V37.2172H34.8784V37.0883H35.0078V36.9594H35.1371V36.8306H35.2664V36.7017H35.3958V36.5728H35.5251V36.4439H35.6544V36.315H35.7838V36.1862H35.9131V36.0573H36.0424V35.9284H36.1717V35.7995H36.3011V35.6706H36.4304V35.5418H36.5358V35.4129H36.6651V35.1551H36.7944V35.0263H36.9238V34.8974H37.0531V34.7685H37.1824V34.6396H37.3118V34.3819H37.4411V34.253H37.5704V34.1241H37.6997V33.8663H37.8291V33.7375H37.9584V33.4797H38.0877V33.3508H38.2171V33.0931H38.3464V32.9642H38.4757V32.7064H38.6051V32.4487H38.7344V32.1909H38.8637V32.0621H38.9691V31.8043H39.0984V31.5465H39.2278V31.2888H39.3571V31.031H39.4864V30.7733H39.6157V30.5155H39.7451V30.1289H39.8744V29.8711H40.0037V29.4845H40.1331V29.0979H40.2624V28.7112H40.3917V28.4535H40.521V27.9379H40.6504V27.5513H40.7797V27.1647H40.909V26.673H41.0384V26.0286H41.1677V25.3842H41.297V24.4821H41.4264V23.4463H41.5317V20.7351H41.4264V19.5704H41.297V18.4057H41.1677V17.8902H41.0384V17.2458H40.909V16.7303H40.7797V16.2148H40.6504V15.957H40.521V15.4415H40.3917V15.1838H40.2624V14.7971H40.1331V14.4105H40.0037V14.0239H39.8744V13.7661H39.7451V13.5084H39.6157V13.2506H39.4864V12.9928H39.3571V12.7351H39.2278V12.3484H39.0984V12.2196H38.9691V11.9618H38.8637V11.7041H38.7344V11.4463H38.6051V11.3174H38.4757V11.0597H38.3464V10.8019H38.2171V10.673H38.0877V10.4153H37.9584V10.2864H37.8291V10.0286H37.6997V9.89976H37.5704V9.77088H37.4411V9.51313H37.3118V9.38425H37.1824V9.25537H37.0531V9.12649H36.9238V8.86873H36.7944V8.73985H36.6651V8.61098H36.5358V8.4821H36.4304V8.22434H36.3011V8.09546H36.1717V7.96659H36.0424V7.83771H35.9131V7.70883H35.7838V7.57995H35.6544V7.45107H35.5251V7.32219H35.3958V7.19332H35.2664V7.06444H35.1371V6.93556H35.0078V6.80668H34.8784V6.6778H34.7491V6.54892H34.6198V6.44391H34.4905V6.31503H34.2318V6.18616H34.1025V6.05728H33.9971V5.9284H33.8678V5.79952H33.6091V5.67064H33.4798V5.54176H33.2211V5.41289H33.0918V5.28401H32.9625V5.15513H32.8331V5.02625H32.5745V4.89737H32.4451V4.76849H32.1865V4.63962H32.0571V4.51074H31.7985V4.38186H31.5398V4.25298H31.4345V4.1241H31.1758V3.99522H30.9171V3.86635H30.7878V3.73747H30.5291V3.60859H30.2705V3.47971H30.0118V3.35083H29.7532V3.22195H29.4945V3.09308H29.1065V2.9642H28.8718V2.83532H28.4838V2.70644H28.2252V2.57756H27.8372V2.44868H27.4492V2.31981H27.1905V2.19093H26.6732V2.06205H26.1798V1.93317H25.4039V1.80429H24.8865V1.67542H24.0052V1.54654H22.3191V1.41766L22.3287 1.42243ZM32.4691 3.2315H32.3398V3.36038H32.4691V3.2315ZM7.4462 6.94988H7.31687V7.07876H7.4462V6.94988ZM4.62011 9.0167H4.36145V9.14558H4.62011V9.0167ZM3.86808 9.78997H3.73875V9.91885H3.86808V9.78997ZM3.35076 11.8568H3.22143V11.9857H3.35076V11.8568ZM1.55931 14.8305H1.30065V14.9594H1.55931V14.8305ZM1.17132 17.9284H1.04199V18.0573H1.17132V17.9284ZM0.912661 26.3294H0.783331V26.5871H0.912661V26.3294ZM0.783331 26.716H0.654002V26.8449H0.783331V26.716ZM4.74944 34.6969H4.62011V34.8258H4.74944V34.6969ZM26.3235 42.4487H26.1942V42.5776H26.3235V42.4487Z" fill="#FF5900"/>
<path d="M0.907894 26.3294H0.778564V26.5871H0.907894V26.3294Z" fill="#FF5900"/>
<path d="M4.62011 9.01671H4.36145V9.14559H4.62011V9.01671Z" fill="#FF5900"/>
<path d="M1.55932 14.8306H1.30066V14.9594H1.55932V14.8306Z" fill="#FF5900"/>
<path d="M1.17132 17.9284H1.04199V18.0573H1.17132V17.9284Z" fill="#FF5900"/>
<path d="M3.346 11.8568H3.21667V11.9857H3.346V11.8568Z" fill="#FF5900"/>
<path d="M3.8681 9.78998H3.73877V9.91886H3.8681V9.78998Z" fill="#FF5900"/>
<path d="M7.44622 6.94988H7.31689V7.07876H7.44622V6.94988Z" fill="#FF5900"/>
<path d="M0.7785 26.716H0.64917V26.8449H0.7785V26.716Z" fill="#FF5900"/>
<path d="M4.74945 34.6969H4.62012V34.8258H4.74945V34.6969Z" fill="#FF5900"/>
<path d="M32.469 3.23151H32.3397V3.36038H32.469V3.23151Z" fill="#FF5900"/>
<path d="M26.3235 42.4487H26.1942V42.5776H26.3235V42.4487Z" fill="#FF5900"/>
<path d="M20.154 2.96897V2.8401H20.4127L20.427 2.96897H20.542V2.8401H22.7214V2.96897H24.0195V3.09785H24.6422V3.22673H25.4182V3.35561H25.8062V3.48449H26.4528V3.61337H26.8169V3.74224H27.3342V3.87112H27.5928V4H27.9808V4.12888H28.2395V4.25776H28.6275V4.38663H28.8861V4.51551H29.1209V4.64439H29.3795V4.77327H29.6382V4.90215H30.0262V5.03103H30.2848V5.15991H30.4142V5.28878H30.6728V5.41766H30.8021V5.54654H31.0608V5.67542H31.3195V5.8043H31.5542V5.93317H31.6835V6.06205H31.9422V6.19093H32.0715V6.31981H32.2008V6.44869H32.3301V6.5537H32.5888V6.68258H32.7181V6.81146H32.8475V6.94033H33.1061V7.06921H33.2355V7.19809H33.3648V7.32697H33.4941V7.45585H33.6234V7.58473H33.8821V7.84248H34.1168V7.97136H34.2461V8.10024H34.3755V8.22912H34.5048V8.358H34.6341V8.48687H34.7635V8.61575H34.8928V8.74463H35.0221V8.87351H35.1514V9.13127H35.2808V9.26014H35.4101V9.38902H35.5394V9.5179H35.6688V9.64678H35.7981V9.77566H35.9274V10.0334H36.0568V10.1623H36.1861V10.2912H36.3154V10.42H36.4447V10.6778H36.5501V10.8067H36.6795V11.0644H36.8088V11.1933H36.9381V11.4511H37.0674V11.58H37.1968V11.8377H37.3261V11.9666H37.4554V12.2243H37.5848V12.4821H37.7141V12.7399H37.8434V12.8687H37.9727V13.2554H38.1021V13.3842H38.2314V13.642H38.3607V13.8998H38.4901V14.2864H38.6194V14.5442H38.7487V14.9308H38.8781V15.1885H38.9834V15.5752H39.1128V16.0907H39.2421V16.4773H39.3714V16.864H39.5008V17.2506H39.6301V17.7661H39.7594V18.6683H39.8887V19.3127H40.0181V20.7351H40.1474V20.864L40.0181 20.8783V20.9928H40.1474V23.0597H40.0181V24.4821H39.8887V25.3843H39.7594V25.8998H39.6301V26.4153H39.5008V27.0358H39.3714V27.5513H39.2421V27.938H39.1128V28.1957H38.9834V28.7112H38.8781V28.969H38.7487V29.3556H38.6194V29.6134H38.4901V30H38.3607V30.2578H38.2314V30.5155H38.1021V30.6444H37.9727V30.9021H37.8434V31.1599H37.7141V31.4177H37.5848V31.5465H37.4554V31.8043H37.3261V32.0621H37.1968V32.3198H37.0674V32.4487H36.9381V32.7064H36.8088V32.8353H36.6795V33.0931H36.5501V33.222H36.4447V33.4797H36.3154V33.6086H36.1861V33.7375H36.0568V33.8664H35.9274V34.1241H35.7981V34.253H35.6688V34.3819H35.5394V34.5107H35.4101V34.6396H35.2808V34.7685H35.1514V35.0263H35.0221V35.1551H34.8928V35.284H34.7635V35.4129H34.6341V35.5418H34.5048V35.6707H34.3755V35.7995H34.2461V35.9284H34.1168V36.0573H34.0114V36.1862H33.8821V36.315H33.6234V36.4439H33.4941V36.5728H33.3648V36.7017H33.2355V36.8306H33.1061V36.9594H32.9768V37.0883H32.7181V37.2172H32.5888V37.3461H32.4595V37.4749H32.2008V37.6038H32.0715V37.7327H31.9422V37.8616H31.6835V37.9905H31.5542V38.1193H31.3195V38.2482H31.1901V38.3771H30.9315V38.506H30.6728V38.6348H30.5435V38.7637H30.2848V38.8926H30.0262V39.0215H29.7675V39.1504H29.5088V39.2792H29.2502V39.4081H29.0155V39.537H28.7568V39.6659H28.3688V39.7948H28.1102V39.9236H27.7222V40.0525H27.3342V40.1814H27.0755V40.3103H26.5582V40.4391H26.0648V40.568H25.4182V40.6969H25.0302V40.8258H24.1249V40.9547H23.3729V41.0835H23.2435L23.2292 40.9547H23.1142V41.0835H20.0295V40.9547H19.0188V40.8258H18.1135V40.6969H17.5961V40.568H17.0788V40.4391H16.6908V40.3103H16.1975V40.1814H15.8095V40.0525H15.4215V39.9236H15.0335V39.7948H14.7748V39.6659H14.3869V39.537H14.1282V39.4081H13.8935V39.2792H13.6348V39.1504H13.3762V39.0215H13.1175V38.8926H12.8589V38.7637H12.6002V38.6348H12.3415V38.506H12.0829V38.3771H11.8242V38.2482H11.6949V38.1193H11.4602V37.9905H11.3308V37.8616H11.0722V37.7327H10.9429V37.6038H10.8135V37.4749H10.5549V37.3461H10.4255V37.2172H10.1669V37.0883H10.0376V36.9594H9.90822V36.8306H9.77889V36.7017H9.52023V36.5728H9.3909V36.4439H9.26157V36.315H9.1562V36.1862H9.02687V36.0573H8.89754V35.9284H8.76821V35.7995H8.63888V35.6707H8.50955V35.5418H8.38022V35.4129H8.25089V35.284H8.12156V35.1551H7.99223V35.0263H7.8629V34.8974H7.73357V34.7685H7.60424V34.6396H7.47491V34.5107H7.34558V34.3819H7.21625V34.253H7.08692V33.9952H6.95759V33.8664H6.82826V33.7375H6.69893V33.4797H6.59355V33.3508H6.46422V33.222H6.33489V33.0931H6.20556V32.8353H6.07623V32.5776H5.9469V32.3198H5.81757V32.1909H5.68824V31.9332H5.55892V31.8043H5.42959V31.4177H5.30026V31.2888H5.17093V31.031H5.0416V30.9021H4.91227V30.5155H4.78294V30.3866H4.65361V30H4.52428V29.7422H4.39495V29.4845H4.26562V29.0979H4.16024V28.8401H4.03091V28.4535H3.90158V28.0668H3.77225V27.6802H3.64292V27.1647H3.51359V26.8019H3.38426V26.1575H3.25493V25.5131H3.1256V24.611H2.99627V23.5752H2.86694V20.2148H2.99627V19.179H3.1256V18.2769H3.25493V17.7613H3.38426V17.2458H3.51359V16.7303H3.64292V16.2148H3.77225V15.957H3.90158V15.5704H4.03091V15.1838H4.16024V14.7971H4.26562V14.4105H4.39495V14.1527H4.52428V13.895H4.65361V13.6372H4.78294V13.3795H4.91227V13.1217H5.0416V12.864H5.17093V12.6062H5.30026V12.3485H5.42959V12.2196H5.55892V11.9618H5.68824V11.7041H5.81757V11.5752H5.9469V11.3174H6.07623V11.1885H6.20556V10.9308H6.33489V10.8019H6.46422V10.5442H6.59355V10.4153H6.69893V10.2864H6.82826V10.0286H6.95759V9.89976H7.08692V9.77088H7.21625V9.64201H7.34558V9.38425H7.47491V9.25537H7.60424V9.12649H7.73357V8.99761H7.8629V8.86874H7.99223V8.73986H8.12156V8.61098H8.25089V8.4821H8.38022V8.35322H8.50955V8.22434H8.63888V8.09547H8.76821V7.96659H8.89754V7.83771H9.02687V7.70883H9.1562V7.57995H9.26157V7.45107H9.3909V7.3222H9.64956V7.19332H9.77889V7.06444H9.90822V6.93556H10.0376V6.80668H10.2962V6.6778H10.4255V6.54893H10.5549V6.44391H10.6842V6.31504H10.9429V6.18616H11.0722V6.05728H11.3308V5.9284H11.5895V5.79952H11.6949V5.67064H11.8242V5.54177H12.0829V5.41289H12.2122V5.28401H12.6002V5.15513H12.7295V5.02625H12.9882V4.89738H13.2468V4.7685H13.5055V4.63962H13.7642V4.51074H14.0228V4.38186H14.3869V4.25298H14.6455V4.12411H15.0335V3.99523H15.2922V3.86635H15.6802V3.73747H16.0681V3.60859H16.4561V3.47971H17.0788V3.35084H17.4668V3.22196H18.2428V3.09308H18.8894V2.9642H20.1588L20.154 2.96897ZM23.2388 3.61814H19.6319V3.74702H18.6212V3.8759H17.8452V4.00477H17.3279V4.13365H16.9399V4.26253H16.3172V4.39141H16.0586V4.52029H15.5412V4.64916H15.1533V4.77804H14.8946V4.90692H14.5066V5.0358H14.2479V5.16468H14.0132V5.29356H13.6253V5.42243H13.4959V5.55131H13.2373V5.68019H12.9786V5.80907H12.7199V5.93795H12.5906V6.06683H12.332V6.1957H12.0733V6.32458H11.8146V6.45346H11.6853V6.55847H11.5799V6.68735H11.3213V6.81623H11.1919V6.94511H10.9333V7.07399H10.8039V7.20286H10.6746V7.33174H10.5453V7.46062H10.2866V7.5895H10.1573V7.71838H10.028V7.84726H9.76931V7.97613H9.63998V8.10501H9.51065V8.23389H9.38132V8.36277H9.25199V8.49165H9.14662V8.62053H9.01728V8.7494H8.88796V8.87828H8.75863V9.00716H8.6293V9.13604H8.49997V9.3938H8.24131V9.65155H8.11198V9.78043H7.98265V9.90931H7.85332V10.0382H7.72399V10.1671H7.59466V10.4248H7.46533V10.5537H7.336V10.6826H7.20667V10.9403H7.07734V11.0692H6.94801V11.1981H6.81868V11.4558H6.68935V11.5847H6.58397V11.7136H6.45464V11.9714H6.32531V12.1002H6.19598V12.358H6.06665V12.6158H5.93732V12.8735H5.80799V13.0024H5.67867V13.2601H5.54934V13.5179H5.42001V13.7757H5.29068V14.0334H5.16135V14.42H5.03202V14.6778H4.90269V14.9356H4.77336V15.1933H4.64403V15.7088H4.5147V16.0955H4.38537V16.3532H4.25604V16.7399H4.15066V17.2554H4.02133V17.7709H3.892V18.673H3.76267V19.4463H3.63334V20.7399H3.50401V20.9976L3.63334 21.0119V21.1265H3.50401V22.1623L3.63334 22.1766V22.2912H3.50401V22.8067H3.63334V24.2291H3.76267V25.0024H3.892V25.7757H4.02133V26.42H4.15066V26.9356H4.25604V27.4272H4.38537V27.685H4.5147V28.0716H4.64403V28.4582H4.77336V28.8449H4.90269V29.1026H5.03202V29.4893H5.16135V29.8759H5.29068V30.0048H5.42001V30.2625H5.54934V30.5203H5.67867V30.778H5.80799V31.0358H5.93732V31.2936H6.06665V31.5513H6.19598V31.6802H6.32531V31.938H6.45464V32.0668H6.58397V32.3246H6.68935V32.4535H6.81868V32.5823H6.94801V32.8401H7.07734V32.969H7.20667V33.2267H7.336V33.3556H7.46533V33.4845H7.59466V33.6134H7.72399V33.8711H7.85332V34H7.98265V34.1289H8.11198V34.2578H8.24131V34.3866H8.37064V34.5155H8.49997V34.6444H8.6293V34.7733H8.75863V34.9022H8.88796V35.031H9.01728V35.1599H9.14662V35.2888H9.25199V35.4177H9.38132V35.5465H9.51065V35.6754H9.63998V35.8043H9.76931V35.9332H10.028V36.0621H10.1573V36.1909H10.2866V36.3198H10.416V36.4487H10.5453V36.5776H10.6746V36.7065H10.9333V36.8353H11.0626V36.9642H11.3213V37.0931H11.4506V37.222H11.6853V37.3508H11.8146V37.4797H12.0733V37.6086H12.2026V37.7375H12.4613V37.8664H12.5906V37.9952H12.8493V38.1241H13.1079V38.253H13.3666V38.3819H13.6253V38.5107H13.8839V38.6396H14.1186V38.7685H14.3773V38.8974H14.7653V39.0263H15.0239V39.1551H15.4119V39.284H15.7999V39.4129H16.1879V39.5418H16.6813V39.6707H17.0693V39.7995H17.5866V39.9284H18.1039V40.0573H18.8799V40.1862H19.7612V40.315H23.4974V40.1862H24.2494V40.0573H25.1547V39.9284H25.6721V39.7995H26.1894V39.6707H26.6828V39.5418H27.0707V39.4129H27.4587V39.284H27.8467V39.1551H28.1054V39.0263H28.4934V38.8974H28.752V38.7685H29.0107V38.6396H29.2454V38.5107H29.5041V38.3819H29.7627V38.253H30.0214V38.1241H30.28V37.9952H30.4094V37.8664H30.668V37.7375H30.9267V37.6086H31.056V37.4797H31.3147V37.3508H31.444V37.222H31.6787V37.0931H31.808V36.9642H31.9374V36.8353H32.196V36.7065H32.3254V36.5776H32.4547V36.4487H32.7133V36.3198H32.8427V36.1909H32.972V36.0621H33.1013V35.9332H33.2307V35.8043H33.36V35.6754H33.4893V35.5465H33.6187V35.4177H33.748V35.2888H33.8773V35.1599H34.0066V35.031H34.112V34.9022H34.2414V34.7733H34.3707V34.6444H34.5V34.5155H34.6293V34.3866H34.7587V34.2578H34.888V34.1289H35.0173V34H35.1467V33.8711H35.276V33.6134H35.4053V33.4845H35.5346V33.3556H35.664V33.0979H35.7933V32.969H35.9226V32.8401H36.052V32.7112H36.1813V32.4535H36.3106V32.3246H36.44V32.0668H36.5453V31.8091H36.6747V31.6802H36.804V31.4224H36.9333V31.1647H37.0627V31.0358H37.192V30.778H37.3213V30.5203H37.4506V30.2625H37.58V30.0048H37.7093V29.6181H37.8386V29.3604H37.968V29.1026H38.0973V28.716H38.2266V28.4582H38.3559V28.0716H38.4853V27.685H38.6146V27.1695H38.7439V26.8067H38.8733V26.42H38.9786V25.6468H39.108V25.1313H39.2373V25.0167L39.108 25.0024V24.8735H39.2373V23.9714H39.3666V20.0955H39.2373V18.9308H39.108V18.1575H38.9786V17.642H38.8733V17.1265H38.7439V16.611H38.6146V16.2243H38.4853V15.8377H38.3559V15.58H38.2266V15.1933H38.0973V14.8067H37.968V14.5489H37.8386V14.2912H37.7093V14.0334H37.58V13.6468H37.4506V13.389H37.3213V13.2601H37.192V13.0024H37.0627V12.7446H36.9333V12.4869H36.804V12.358H36.6747V12.1002H36.5453V11.8425H36.44V11.7136H36.3106V11.4558H36.1813V11.327H36.052V11.0692H35.9226V10.9403H35.7933V10.8115H35.664V10.5537H35.5346V10.4248H35.4053V10.2959H35.276V10.1671H35.1467V9.90931H35.0173V9.78043H34.888V9.65155H34.7587V9.52267H34.6293V9.3938H34.5V9.26492H34.3707V9.13604H34.2414V9.00716H34.112V8.87828H34.0066V8.7494H33.8773V8.62053H33.748V8.49165H33.6187V8.36277H33.4893V8.23389H33.36V8.10501H33.2307V7.97613H33.1013V7.84726H32.8427V7.71838H32.7133V7.5895H32.584V7.46062H32.4547V7.33174H32.3254V7.20286H32.0667V7.07399H31.9374V6.94511H31.808V6.81623H31.5494V6.68735H31.444V6.55847H31.1853V6.45346H31.056V6.32458H30.7973V6.1957H30.668V6.06683H30.4094V5.93795H30.1507V5.80907H29.892V5.68019H29.7627V5.55131H29.3747V5.42243H29.1161V5.29356H28.8814V5.16468H28.6227V5.0358H28.364V4.90692H27.976V4.77804H27.5881V4.64916H27.3294V4.52029H26.9414V4.39141H26.5534V4.26253H26.1894V4.13365H25.5427V4.00477H25.1547V3.8759H24.3788V3.74702H24.3021V3.8759H24.1201V3.74702H23.2388V3.61814ZM30.4237 5.42721H30.2944V5.55609H30.4237V5.42721ZM34.5192 8.50119H34.3898V8.63007H34.5192V8.50119ZM3.35073 20.6444H3.2214V20.7733H3.35073V20.6444ZM4.49075 28.7542H4.36142V28.8831H4.49075V28.7542ZM13.8791 39.0931H13.7498V39.222H13.8791V39.0931Z" fill="#FF5900"/>
<path d="M3.346 20.6444H3.21667V20.7733H3.346V20.6444Z" fill="#FF5900"/>
<path d="M34.5192 8.50119H34.3899V8.63007H34.5192V8.50119Z" fill="#FF5900"/>
<path d="M30.419 5.42721H30.2897V5.55609H30.419V5.42721Z" fill="#FF5900"/>
<path d="M4.49078 28.7542H4.36145V28.8831H4.49078V28.7542Z" fill="#FF5900"/>
<path d="M13.8743 39.0931H13.745V39.222H13.8743V39.0931Z" fill="#FF5900"/>
<path d="M30.6824 15.2172C30.6824 15.1742 30.6824 15.1313 30.6824 15.0883H30.8117V14.9594H30.9411V14.8305H31.1997V14.7017H31.4584V14.5728H31.5638V14.4439H31.6931V14.315H31.9518V14.1862H32.0811V14.0573H32.3397V13.9284H32.4691V13.7995H32.7277V13.6706H32.8571V13.5418H33.1157V13.4129H33.2451V13.284H33.5037V13.1551H33.633V13.0263H33.8917V12.8974H34.021V12.7685H34.2557V12.8974H34.3851V13.1551H34.5144V13.4129H34.6437V13.5418H34.7731V13.9284H34.6437V14.1862H34.5144V14.4439H34.3851V14.5728H34.2557V14.8305H34.1264V15.0883H34.021V15.2172H33.8917V15.4749H33.7624V15.6038H33.633V15.8616H33.5037V15.9905H33.3744V16.2482H33.2451V16.3771H33.1157V16.7637H33.2451V16.6348H33.5037V16.506H33.7624V16.3771H33.8917V16.2482H34.1264V16.1193H34.3851V15.9905H34.5144V15.8616H34.6437V15.7327H34.9024V15.6038H35.161V15.4749H35.2904V15.3461H35.549V15.2172H35.8077V15.3461H35.937V15.6038H36.0664V15.7327H36.1957V16.1193H36.0664V16.2482H35.8077V16.3771H35.549V16.506H35.4197V16.6348H35.161V16.7637H34.9024V16.8926H34.6437V17.0215H34.5144V17.1504H34.2557V17.2792H34.021V17.4081H33.8917V17.537H33.633V17.6659H33.3744V17.7947H33.1157V17.9236H32.9864V18.0525H32.7277V18.1814H32.4691V18.3103H32.3397V18.4391H31.9518V18.568H31.8224V18.6969H31.3291V18.4391H31.1997V18.1814H31.0704V17.7947H31.1997V17.537H31.3291V17.4081H31.4584V17.2792H31.5638V17.0215H31.6931V16.8926H31.8224V16.7637H31.9518V16.506H32.0811V16.3771H32.2104V16.1193H32.3397V15.9905H32.4691V15.8616H32.5984V15.6038H32.7277V15.4749H32.8571V15.2172H32.9864V15.0883H33.1157V14.7017H32.9864V14.8305H32.8571V14.9594H32.5984V15.0883H32.4691V15.2172H32.2104V15.3461H32.0811V15.4749H31.8224V15.6038H31.5638V15.7327H31.4584V15.8616H31.1997V15.9905H30.9411V16.1193H30.8117V16.2482H30.5531V16.3771H30.1651V16.2482H30.0358V15.9905H29.9064V15.7327H29.7771V15.6038H30.0358V15.4749H30.1651V15.3461H30.4237V15.2172C30.51 15.2172 30.5962 15.2172 30.6824 15.2172C30.6824 15.2601 30.6824 15.3031 30.6824 15.3461H30.8117V15.2172C30.7686 15.2172 30.7255 15.2172 30.6824 15.2172ZM30.6824 15.8616H30.5531V15.9905H30.6824V15.8616Z" fill="#FF5900"/>
<path d="M22.458 6.94988C22.5011 6.94988 22.5443 6.94988 22.5874 6.94988V7.20764H22.7167V7.59427H22.846V8.23867H22.9754V10.4344H22.846V10.9499H22.7167V11.2076H22.5874V11.4654H22.458V11.5943H22.3287V11.7232H22.07V11.852H21.8114V11.9809H21.318V12.1098H20.542V11.9809H20.0247V11.852H19.8954V11.7232H19.6367V11.5943H19.5074V11.4654H19.3781V11.2076H19.2487V10.9499H19.1194V10.4344H19.014V7.72315H19.1194V7.33652H19.2487V7.07876H19.3781V6.82101H19.5074V6.69213H19.6367V6.56325H19.7661V6.45824H20.0247V6.32936H20.2834V6.20048H20.6714V6.0716H21.0594V6.20048H21.6821V6.32936H21.9407V6.45824H22.07V6.56325H22.3287V6.82101H22.458C22.458 6.86396 22.458 6.90692 22.458 6.94988C22.4149 6.94988 22.3718 6.94988 22.3287 6.94988V7.07876H22.458C22.458 7.0358 22.458 6.99284 22.458 6.94988ZM20.2834 7.4654V7.85203H20.1541V10.4344H20.2834V10.6921H20.4127V10.9499H20.542V11.0788H21.4474V10.9499H21.5767V10.821H21.6821V10.5632H21.8114V9.14081L21.9407 9.1265V8.88306L21.8114 8.86874V8.75418H21.9407V8.6253H21.8114V7.85203H21.6821V7.4654H21.5767V7.33652H21.4474V7.20764H20.93V7.07876H20.8007V7.20764H20.542V7.33652H20.4127V7.4654H20.2834ZM20.2834 11.599H20.1541V11.7279H20.2834V11.599Z" fill="#FF5900"/>
<path d="M37.0866 18.8353V19.222H37.2159V19.6086H37.3452V21.2888H37.2159V21.5465H37.0866V21.8043H36.9573V21.9332H36.8279V22.0621H36.6986V22.1909H36.5693V22.3198H36.3346V22.4487H36.0759V22.5776H35.6879V22.7064H35.2999V22.8353H34.5239V22.9642H33.3839V22.8353H32.9959V22.7064H32.8666V22.5776H32.6079V22.4487H32.4786V22.3198H32.3493V22.0621H32.22V21.8043H32.0906V21.4177H31.9613V20.9022H31.832V20L31.7026 19.9857V19.8711H31.832V19.7422H32.3493V19.6134H32.8666V19.4845H33.6426V19.3556H34.2653V19.2267H34.9119V19.0979H35.5586V18.969H36.0759V18.8401H37.0866V18.8353ZM35.5538 20.1289H34.9071V20.2578H34.1312V20.3866H33.6378V20.5155H32.9911V20.6444H32.8618V21.1599H32.9911V21.4177H33.1205V21.6754H33.2498V21.8043H34.5191V21.6754H35.1658V21.5465H35.6831V21.4177H35.9418V21.2888H36.2004V21.031H36.3298V20.1289H36.2004V20H35.8124V20.1289H35.6975L35.6831 20H35.5538V20.1289ZM32.7277 22.0621H32.5984V22.1909H32.7277V22.0621Z" fill="#FF5900"/>
<path d="M9.00288 18.3198V18.4487H9.62558V18.5776H10.0136V18.7064H10.2722V18.8353H10.4016V18.9642H10.6602V19.0931H10.7895V19.222H10.9189V19.3508H11.0482V19.4797H11.1775V19.7375H11.3069V20.1241H11.4362V20.8974H11.3069V21.4129H11.1775V21.6706H11.0482V21.7995H10.9189V22.0573H10.6602V22.1862H10.5309V22.315H10.2722V22.4439H9.88423V22.5728H8.61489V22.4439H8.09757V22.315H7.58025V22.1862H7.32159V22.0573H7.06293V21.9284H6.9336V21.7995H6.67494V21.6706H6.56956V21.5418H6.44023V21.284H6.31091V21.1551H6.18158V20.7685H6.05225V20.6539L6.18158 20.6396V20.5107H6.05225V20.1241H6.18158V19.3508H6.31091V19.0931H6.44023V18.9642H6.56956V18.8353H6.67494V18.7064H6.80427V18.5776H7.06293V18.4487H7.45092V18.3198H9.00767H9.00288ZM8.48077 19.3508H7.57546V19.4797H7.3168V19.6086H7.18747V19.7375H7.05814V19.8663H6.92881V20.253H7.05814V20.5107H7.18747V20.6396H7.3168V20.7685H7.57546V20.8974H7.70479V21.0263H8.09278V21.1551H8.35144V21.284H10.1429V21.1551H10.2722V21.0263H10.4016V20.253H10.2722V20.1241H10.1429V19.9952H9.88423V19.8663H9.75491V19.7375H9.36692V19.6086H9.13221V19.4797H8.48556V19.3508H8.48077Z" fill="#FF5900"/>
<path d="M11.1776 23.2267V23.6134H11.3069V24.2578H10.9189V24.3866H10.143V24.5155H9.4963V24.6444H9.23764V25.6802H9.36697V25.9379H9.4963V26.0668H9.75496V25.9379H10.6603V25.8091H11.0483V25.6802H11.671V25.8091H11.8003V26.4535H11.9296V26.5823H11.8003V26.7112H11.5656V26.8401H11.0483V26.969H10.4016V27.074H9.75496V27.2029H9.00294V27.3317H8.61495V27.4606H7.9683V27.5895H7.32165V27.7184H6.80433V27.8473H6.56962V27.5895H6.44029V26.8401H6.675V26.7112H7.19232V26.5823H7.70964V26.4535H8.22696V26.3246H8.35629V25.6802H8.22696V25.1647H8.09763V24.9069H7.70964V25.0358H7.06299V25.1647H6.31096V25.2936H6.0523V24.778H5.92297V24.3914H6.0523V24.2625H6.18163V24.1337H6.93366V24.0048H7.32165V23.8759H8.09763V23.747H8.74428V23.6181H9.36697V23.4893H10.0136V23.3604H10.6603V23.2315H11.1776V23.2267ZM9.00294 23.8711H8.87361V24H9.00294V23.8711Z" fill="#FF5900"/>
<path d="M16.6765 6.94988V7.85203H16.5711V8.6253H16.4418V9.91886H16.5711V10.0477H16.8058V10.1766H16.9351V10.3055H17.0645V10.4344H17.1938V10.5632H17.3231V10.6921H17.4525V10.821H17.5818V10.9499H17.8405V11.0788H17.9698V11.2076H18.0991V11.3365H18.2284V11.4654H18.3578V11.5943H18.4871V11.7232H18.7458V11.852H18.8751V12.1098H18.7458V12.2387H18.3578V12.3675H17.7111V12.2387H17.5818V12.1098H17.4525V11.9809H17.3231V11.852H17.1938V11.7232H17.0645V11.5943H16.9351V11.4654H16.6765V11.3365H16.5711V11.2076H16.4418V11.0788H16.3124V10.9499H16.1831V11.0788H16.0538V11.5943H16.1831V12.2387H16.3124V12.7542H16.4418V13.1408H16.3124V13.2697H16.0538V13.3986H15.7951V13.5274H15.5365V13.2697H15.4071V13.0119H15.2778V12.7542H15.1485V12.3675H15.0192V12.1098H14.8898V11.852H14.7605V11.4654H14.6312V11.2076H14.5018V10.9499H14.3725V10.5632H14.2432V10.3055H14.1138V10.0477H14.0085V9.6611H13.8791V9.27446H13.7498V9.01671H13.6205V8.75895H13.4911V8.50119H13.3618V8.25776L13.6205 8.24344V8.11456H13.8791V7.98568H14.2432L14.2575 7.8568H14.3725V7.98568H14.5018V8.37232H14.6312V8.63007H14.7605V8.88783H14.8898V9.27446H15.0192V9.53222H15.1485V9.91886H15.2778V10.0477H15.4071V9.53222H15.5365V8.63007H15.6658V7.72793H15.7951V7.21241H15.9245V7.08353H16.3124V6.95466H16.6765V6.94988ZM15.6658 11.3413H15.5365V11.4702H15.6658V11.3413ZM16.1831 12.3771H16.0538V12.506H16.1831V12.3771Z" fill="#FF5900"/>
<path d="M11.3117 10.3103V10.1814H11.5704V10.3103H11.8051V10.4391H12.0637V10.568H12.1931V10.6969H12.3224V10.9547H12.4517V11.0835H12.3224V11.2124H12.1931V11.3413H11.9344V11.4702H11.441V11.3413H11.0531V11.4702H10.7944V11.599H10.6651V11.7279H10.5357V12.2434H10.6651V12.3723H10.7944V12.5012H11.5704V12.3723H12.1931V12.2434H13.3618V12.3723H13.6205V12.5012H13.8791V12.7589H14.1139V13.0167H14.2432V13.2745H14.3725V14.4391H14.2432V14.6969H14.1139V14.9547H14.0085V15.0835H13.8791V15.2124H13.7498V15.3413H13.6205V15.4702H13.4912V15.599H13.2325V15.7279H13.1032V15.8568H12.5858V15.9857H12.1979V15.8568H11.9392V15.7279H11.8099V15.599H11.5752V15.4702H11.4458V15.2124H11.5752V14.9547H11.6805V14.8258H11.8099V14.6969H12.0685V14.568H12.1979V14.6969H12.3272V14.8258H12.8445V14.6969H12.9738V14.568H13.1032V14.4391H13.2325V14.3103H13.3618V13.7947H13.2325V13.6659H13.1032V13.537H11.8051V13.6659H11.1824V13.7947H10.7944V13.6659H10.6651V13.7947H10.5357V13.6659H10.2771V13.537H10.0184V13.4081H9.88909V13.2792H9.75976V13.1504H9.63043V12.8926H9.5011V11.599H9.63043V11.4702H9.75976V11.2124H9.88909V10.9547H10.0184V10.8258H10.2771V10.6969H10.4064V10.568H10.6651V10.4391H10.9237V10.3103H11.3117ZM13.357 15.3461H13.2277V15.4749H13.357V15.3461Z" fill="#FF5900"/>
<path d="M31.8225 24.1337H31.9518V23.8759H32.0811V23.747H32.3398V23.8759H32.9864V24.0048H33.3744V24.1337H33.8917V24.2625H34.3851V24.3914H34.9024V24.5203H35.4197V24.6492H36.0664V24.778H36.5598V24.9069H36.9477V25.9427H36.1957V25.8138H35.2904V25.685H34.9024V25.8138H34.7731V25.9427H34.9024V26.0716H35.0318V26.2005H35.2904V26.3294H35.4197V26.4582H35.5491V26.5871H35.6784V26.716H35.8077V26.8449H35.9371V26.9737H36.1957V27.0788H36.325V27.3365H36.4544V27.7232H36.325V28.1098H36.1957V28.4964H36.0664V28.3675H35.9371V28.2387H35.8077V27.9809H35.6784V27.852H35.5491V27.7232H35.4197V27.5943H35.2904V27.4654H35.1611V27.3365H35.0318V27.2076H34.9024V27.0788H34.7731V26.9737H34.6438V26.8449H34.5144V26.716H34.3851V26.5871H34.2558V26.4582H34.0211V26.5871H33.3744V26.716H32.8571V26.8449H32.3398V26.9737H31.8225V27.0788H31.0704V26.9737H31.1998V26.3294H31.3291V26.0716H31.4584V25.9427H31.9518V25.8138H32.4691V25.685H33.1158V25.5561H33.3744V25.2983H33.2451V25.1695H32.8571V25.0406H32.3398V24.9117H31.8225V24.7828H31.6931V24.6683L31.8225 24.6539V24.1384V24.1337ZM33.3792 24.9069H33.2499V25.0358H33.3792V24.9069Z" fill="#FF5900"/>
<path d="M29.5136 14.7017H29.3843V14.8305H29.2549V14.9594H29.0202V14.8305H28.7616V14.7017H28.6322V14.5728H28.3736V14.4439H28.2443V14.315H27.9856V14.1862H27.8563V14.0573H27.7221L27.7269 13.9236L27.4635 13.9284V13.7947H27.3342V13.6659H27.2048V13.537H27.0755V13.4081H26.9462V13.2792H27.0755V13.1504H27.2048V12.8926H27.3342V12.7637H27.4635V12.506H27.5928V12.3771H27.7269L27.7221 12.2482H27.8563V11.9905H27.9856V11.8568H28.1149V11.599H28.2443V11.4702H28.3736V11.2124H28.5029V11.0835H28.6322V10.9547H28.7616V10.6969H28.8909V10.568H29.0202V10.3103H29.1256V10.1814H29.2549V9.91885L29.3843 9.92363V9.6611H29.5136V9.53222H29.6429V9.40334H29.7723V9.14558H29.9016V9.01671H30.0309V8.88783H30.1602V8.75895H30.2896V8.88783H30.4237V9.01671H30.553V9.14558H30.8117V9.27446H30.941V9.40334H31.0703V9.53222H31.1997V9.6611H31.4583V9.78998H31.5637V9.92363L31.693 9.91885V10.0525H31.8224V10.1814H31.9517V10.3103H32.2104V10.4391H32.3397V10.9547H32.2104V11.0835H32.081V11.3413H31.9517V11.4702H31.8224V11.3413H31.693V11.2124H31.5637V11.0835H31.329V10.9547H31.1997V10.8258H31.0703V10.6969H30.941V10.568H30.6824V10.4391H30.4237V10.568H30.2896V10.6969H30.1602V10.8258H30.0309V11.0835H29.9016V11.2124H29.7723V11.4702H29.9016V11.599H30.0309V11.7279H30.1602V11.8616L30.2896 11.8568V11.9905H30.4237V12.1193H30.553V12.2482H30.6824V12.3771H30.8117V12.7637H30.6824V12.8926H30.553V13.0215H30.4237V13.1504H30.2896V13.0215H30.1602V12.8926H30.0309V12.7637H29.7723V12.6348H29.6429V12.506H29.5136V12.3771H29.3843V12.2482H29.0202V12.506H28.8909V12.6348H28.7616V12.7637H28.6322V13.0215H28.5029V13.537H28.7616V13.6659H28.8909V13.7947H29.0202V13.9284L29.1256 13.9236V14.0573H29.3843V14.1862H29.5136V14.7017Z" fill="#FF5900"/>
<path d="M25.5475 6.821V6.94988H26.0648V7.07876H26.3235V7.20763H26.1941V7.72315H26.0648V8.24343H25.9355V8.75895H25.8062V9.27446H25.6768V9.78997H25.5475V10.3103H25.4182V10.8258H25.2888V11.7279H25.8062V11.8616L26.0648 11.8568V11.9905H26.4528V12.1193H26.5582V12.506H26.4528V12.7637H26.3235V13.0215H26.0648V12.8926H25.8062V12.7637H25.2888V12.6348H24.8961V12.506H24.5081V12.3771H24.1201V12.2482H23.8854V11.7279H24.0147V11.2124H24.1201V10.568H24.2494V10.1814H24.3787V9.78997H24.5081V9.40334H24.6374V8.88783H24.7667V8.37231H24.8961V7.85203H25.0254V7.46539H25.1595V6.821H25.5475Z" fill="#FF5900"/>
<path d="M7.31689 14.5728H7.44622V14.315H7.57555V14.0573H7.70488V13.9236H7.83421V14.0573H7.96354V14.1862H8.2222V14.315H8.48086V14.4439H8.61498L8.61019 14.5728H8.87364V14.7017H9.1323V14.8306H9.36701L9.36222 14.9594H9.62567V15.0883H9.88433V15.2172H10.0137V15.3461H10.2723V15.4749H10.531V15.6038H10.7896V15.7327H11.0483V15.8616H11.3117V15.9952L11.4411 15.9905V16.1241H11.671V16.253H11.8003V16.3819H11.9297V16.5107H12.0638V17.4129H11.9297V17.6706H11.8003V18.0621H11.671V18.3198H11.5704V18.4487H10.919V18.3198H10.7896V18.2053L10.919 18.1909V17.6706H11.5704V17.1551H11.3117V17.0263H10.919V16.8974H10.531V16.7685H10.2723V16.6396H10.0137V16.5107H9.88433V16.3819H9.62567V16.253H9.36222L9.36701 16.1241H9.1323V15.9905L8.87364 15.9952V15.8616H8.61019L8.61498 15.7327H8.48086V15.6038H8.2222V15.4749H7.96354V15.3461H7.70488V15.2172H7.57555V15.0883H7.31689V14.5728Z" fill="#FF5900"/>
<path d="M5.52543 20.2578H4.87878V21.031H5.52543V20.2578Z" fill="#FF5900"/>
<path d="M5.52543 19.0931V19.222H5.65476V19.3365L5.52543 19.3508V19.4797H5.65476V19.6086H5.52543V19.7375H5.26677V19.8663H5.13744V19.7375H4.87878V19.222H5.00811V19.0931H5.52543Z" fill="#FF5900"/>
<path d="M30.6824 15.8616H30.5531V15.9905H30.6824V15.8616Z" fill="#FF5900"/>
<path d="M20.2834 11.599H20.1541V11.7279H20.2834V11.599Z" fill="#FF5900"/>
<path d="M32.7277 22.0621H32.5984V22.1909H32.7277V22.0621Z" fill="#FF5900"/>
<path d="M9.00299 23.8711H8.87366V24H9.00299V23.8711Z" fill="#FF5900"/>
<path d="M16.1832 12.3771H16.0538V12.506H16.1832V12.3771Z" fill="#FF5900"/>
<path d="M15.6658 11.3413H15.5365V11.4702H15.6658V11.3413Z" fill="#FF5900"/>
<path d="M13.357 15.3461H13.2277V15.4749H13.357V15.3461Z" fill="#FF5900"/>
<path d="M33.3792 24.9069H33.2499V25.0358H33.3792V24.9069Z" fill="#FF5900"/>
</g>
<defs>
<clipPath id="clip0_514_1181">
<rect width="43" height="44" fill="white"/>
</clipPath>
</defs>
</svg>
