<svg width="84" height="82" viewBox="0 0 84 82" fill="none" xmlns="http://www.w3.org/2000/svg">
<path d="M41.59 79.42C63.1788 79.42 80.68 62.2009 80.68 40.96C80.68 19.7191 63.1788 2.5 41.59 2.5C20.0012 2.5 2.5 19.7191 2.5 40.96C2.5 62.2009 20.0012 79.42 41.59 79.42Z" stroke="#FF5900" stroke-width="5" stroke-miterlimit="10"/>
<path d="M6.32842 41.0496L15.0486 40.6979L15.0898 41.7198L8.4348 46.7478L8.43823 46.8329L15.2849 46.5568L15.3275 47.6127L6.60735 47.9645L6.56613 46.9426L13.2375 41.8969L13.2341 41.8117L6.37033 42.0886L6.32842 41.0496Z" fill="#FF5900"/>
<path d="M15.5303 38.1346L15.4047 39.2354L7.097 35.062L7.22068 33.9781L16.255 31.7837L16.1294 32.8845L8.53448 34.6427L8.52675 34.7105L15.5303 38.1346ZM12.1896 37.3416L12.6959 32.9045L13.6273 33.0108L13.121 37.4479L12.1896 37.3416Z" fill="#FF5900"/>
<path d="M15.6123 16.4351L16.2808 15.6166L20.7562 19.2718C21.2183 19.6492 21.5419 20.0951 21.727 20.6094C21.9117 21.1198 21.9478 21.6572 21.8351 22.2218C21.7203 22.7846 21.4463 23.3311 21.0132 23.8614C20.5801 24.3916 20.0993 24.7692 19.5708 24.9942C19.0401 25.2173 18.5054 25.2904 17.9666 25.2135C17.4275 25.1326 16.9268 24.9035 16.4648 24.5261L11.9894 20.8709L12.6579 20.0524L17.0673 23.6537C17.3973 23.9233 17.7504 24.0905 18.1264 24.1556C18.5002 24.2188 18.8705 24.1764 19.2372 24.0284C19.6034 23.8764 19.9402 23.6122 20.2475 23.236C20.5548 22.8597 20.7464 22.477 20.8222 22.0877C20.8958 21.6967 20.8634 21.3254 20.725 20.974C20.5861 20.6185 20.3517 20.306 20.0217 20.0364L15.6123 16.4351Z" fill="#FF5900"/>
<path d="M24.559 20.4246L19.4799 13.3276L21.8779 11.6114C22.4324 11.2146 22.9553 10.9836 23.4466 10.9184C23.9363 10.8509 24.384 10.9201 24.7898 11.1258C25.1955 11.3315 25.548 11.6434 25.8473 12.0615C26.1465 12.4797 26.3264 12.9117 26.3869 13.3574C26.4474 13.8032 26.3671 14.245 26.1459 14.6828C25.923 15.1183 25.5367 15.5327 24.9869 15.9262L23.0463 17.3151L22.4907 16.5388L24.4036 15.1698C24.7825 14.8987 25.0478 14.625 25.1994 14.3488C25.3534 14.0709 25.4096 13.7931 25.3681 13.5154C25.3272 13.2337 25.2051 12.9508 25.0017 12.6667C24.7984 12.3825 24.5675 12.1722 24.3091 12.0357C24.0507 11.8992 23.7635 11.8567 23.4475 11.9082C23.1299 11.9574 22.7793 12.1192 22.3958 12.3936L20.8849 13.4749L25.4184 19.8096L24.559 20.4246ZM25.618 14.8458L29.6461 16.7839L28.6481 17.4982L24.6477 15.5402L25.618 14.8458Z" fill="#FF5900"/>
<path d="M36.5395 10.9656C36.7352 11.865 36.742 12.6776 36.5598 13.4034C36.3777 14.1292 36.0421 14.7314 35.5532 15.21C35.0642 15.6886 34.4561 16.007 33.7288 16.1653C33.0015 16.3237 32.3161 16.2868 31.6724 16.0547C31.0288 15.8227 30.4733 15.4144 30.0059 14.83C29.5385 14.2456 29.207 13.5037 29.0112 12.6043C28.8154 11.7049 28.8086 10.8923 28.9908 10.1665C29.173 9.44068 29.5086 8.83849 29.9975 8.35991C30.4865 7.88133 31.0946 7.56289 31.8219 7.40458C32.5491 7.24627 33.2346 7.28314 33.8782 7.51519C34.5219 7.74725 35.0774 8.15548 35.5447 8.7399C36.0121 9.32432 36.3437 10.0662 36.5395 10.9656ZM35.5401 11.1831C35.3794 10.4448 35.1202 9.84845 34.7626 9.39424C34.4078 8.93942 33.9923 8.62716 33.5164 8.45746C33.0432 8.28716 32.5484 8.25821 32.0321 8.37059C31.5158 8.48298 31.0765 8.71526 30.7141 9.06744C30.3545 9.41901 30.1065 9.87567 29.97 10.4374C29.8363 10.9986 29.8498 11.6484 30.0105 12.3868C30.1713 13.1252 30.429 13.7218 30.7839 14.1766C31.1415 14.6308 31.5569 14.9431 32.0301 15.1134C32.5061 15.2831 33.0022 15.3117 33.5185 15.1993C34.0349 15.0869 34.4728 14.855 34.8324 14.5034C35.1948 14.1512 35.4428 13.6945 35.5765 13.1334C35.713 12.5716 35.7009 11.9215 35.5401 11.1831Z" fill="#FF5900"/>
<path d="M39.0026 15.5023L38.2723 6.80563L41.2108 6.55887C41.8931 6.50158 42.4611 6.5779 42.9149 6.78782C43.3713 6.99467 43.7217 7.29738 43.9662 7.69593C44.2106 8.09449 44.3543 8.54997 44.3974 9.06237C44.4404 9.57477 44.3748 10.0493 44.2005 10.4858C44.029 10.9222 43.7371 11.2831 43.3249 11.5686C42.9125 11.8512 42.3679 12.021 41.6913 12.0778L39.5851 12.2547L39.5067 11.3204L41.5789 11.1464C42.046 11.1072 42.4144 10.995 42.6839 10.8099C42.9534 10.6248 43.1404 10.3895 43.2447 10.1042C43.3516 9.81587 43.3905 9.49759 43.3612 9.14938C43.332 8.80117 43.2407 8.49524 43.0875 8.23157C42.937 7.96767 42.7123 7.76987 42.4133 7.63818C42.114 7.50365 41.728 7.45624 41.2553 7.49594L39.4038 7.65141L40.0557 15.4139L39.0026 15.5023Z" fill="#FF5900"/>
<path d="M45.4061 15.243L47.4997 6.77053L48.5256 7.02405L46.6569 14.5864L50.5953 15.5595L50.3704 16.4697L45.4061 15.243Z" fill="#FF5900"/>
<path d="M51.2134 16.5774L55.1497 8.78822L59.8506 11.1638L59.4278 12.0006L55.6701 10.1016L54.3401 12.7335L57.8543 14.5094L57.4315 15.3462L53.9172 13.5702L52.5795 16.2173L56.398 18.147L55.9752 18.9837L51.2134 16.5774Z" fill="#FF5900"/>
<path d="M62.5665 12.6152L59.926 19.9441L60.0052 20.0088L66.6591 15.9578L67.5172 16.6586L59.5146 21.3908L58.6697 20.7008L61.7084 11.9144L62.5665 12.6152Z" fill="#FF5900"/>
<path d="M61.4122 23.8402L68.851 19.2763L71.6054 23.7658L70.8063 24.256L68.6045 20.6674L66.091 22.2095L68.1501 25.5657L67.351 26.0559L65.2919 22.6997L62.7639 24.2507L65.0013 27.8975L64.2022 28.3878L61.4122 23.8402Z" fill="#FF5900"/>
<path d="M65.365 29.3294L73.6952 26.7269L74.0104 27.7356L66.575 30.0586L67.7848 33.9308L66.89 34.2104L65.365 29.3294Z" fill="#FF5900"/>
<path d="M74.2106 39.7421C74.6366 39.655 74.9533 39.4203 75.1607 39.038C75.3681 38.6556 75.4496 38.2012 75.4054 37.6746C75.3731 37.2896 75.2825 36.958 75.1337 36.6797C74.9851 36.4042 74.7951 36.1949 74.5636 36.0519C74.3323 35.9117 74.0779 35.8532 73.8005 35.8765C73.5683 35.896 73.3734 35.9679 73.2156 36.0924C73.0609 36.2194 72.9358 36.3753 72.8401 36.5601C72.7473 36.7446 72.6735 36.9361 72.6189 37.1346C72.5671 37.3328 72.5268 37.5144 72.4979 37.6793L72.3343 38.5825C72.2938 38.814 72.2329 39.0728 72.1514 39.3591C72.0702 39.6481 71.9497 39.9277 71.7899 40.1977C71.6332 40.4703 71.4217 40.7018 71.1555 40.8924C70.8893 41.083 70.5523 41.1953 70.1447 41.2296C69.6747 41.269 69.2397 41.1816 68.8397 40.9671C68.4399 40.7555 68.1085 40.4241 67.8454 39.973C67.5825 39.5246 67.423 38.9664 67.3669 38.2983C67.3146 37.6755 67.3698 37.1278 67.5326 36.6551C67.6955 36.1853 67.9458 35.8051 68.2835 35.5144C68.6214 35.2266 69.0267 35.0458 69.4995 34.9718L69.5907 36.0589C69.2647 36.1148 69.0022 36.248 68.8032 36.4586C68.6073 36.6718 68.4695 36.9314 68.3897 37.2374C68.313 37.5461 68.2891 37.8731 68.3181 38.2185C68.3519 38.6204 68.4473 38.9759 68.6044 39.2849C68.7643 39.5936 68.9696 39.8315 69.2202 39.9986C69.4737 40.1655 69.759 40.2356 70.0761 40.209C70.3648 40.1848 70.593 40.0844 70.7607 39.9078C70.9283 39.7312 71.0577 39.5065 71.1488 39.2337C71.2399 38.9609 71.3151 38.6681 71.3744 38.3552L71.5903 37.2595C71.7285 36.5636 71.9622 36.0023 72.2913 35.5756C72.6204 35.1488 73.0779 34.9108 73.6639 34.8616C74.1508 34.8207 74.5865 34.9167 74.971 35.1496C75.3585 35.385 75.6716 35.7179 75.9102 36.1483C76.1518 36.5814 76.2959 37.0753 76.3425 37.6302C76.3896 38.1907 76.3309 38.6974 76.1665 39.1502C76.0049 39.6028 75.7622 39.971 75.4382 40.2548C75.1145 40.5414 74.7338 40.7102 74.2962 40.7612L74.2106 39.7421Z" fill="#FF5900"/>
<path d="M68.0303 42.0178H76.7575V47.2848H75.82V43.0746H72.8712V47.0121H71.9337V43.0746H68.9678V47.353H68.0303V42.0178Z" fill="#FF5900"/>
<path d="M68.0303 48.967H76.7575V51.9158C76.7575 52.5977 76.6411 53.1573 76.4081 53.5948C76.178 54.0323 75.8612 54.3562 75.4578 54.5664C75.0544 54.7766 74.5956 54.8817 74.0814 54.8817C73.5672 54.8817 73.1112 54.7766 72.7135 54.5664C72.3158 54.3562 72.0033 54.0337 71.776 53.5991C71.5516 53.1644 71.4394 52.609 71.4394 51.9329V49.5465H72.3939V51.8988C72.3939 52.3647 72.4621 52.7397 72.5985 53.0238C72.7348 53.3107 72.928 53.5181 73.178 53.646C73.4308 53.7766 73.732 53.842 74.0814 53.842C74.4308 53.842 74.7362 53.7766 74.9976 53.646C75.259 53.5153 75.4607 53.3065 75.6027 53.0195C75.7476 52.7326 75.82 52.3533 75.82 51.8817V50.0238H68.0303V48.967ZM71.9507 53.0749L68.0303 55.2227V53.9954L71.9507 51.8817V53.0749Z" fill="#FF5900"/>
<path d="M8.93628 29.7091L8.02615 29.4842L9.59634 23.1299L10.5065 23.3548L9.84813 26.0189L17.4104 27.8876L17.1569 28.9136L9.59461 27.0449L8.93628 29.7091Z" fill="#FF5900"/>
<path d="M10.6396 62.9998C13.2196 58.3498 16.7496 54.3198 19.9496 50.0698C23.6296 45.1698 26.8896 39.9598 29.6896 34.5098C30.2496 36.8798 31.8996 38.7998 33.3396 40.7598C41.1896 51.3898 44.0297 64.9798 51.4197 75.9398" stroke="#FF5900" stroke-miterlimit="10"/>
<path d="M37.9502 47.7091C41.7502 45.1491 45.6302 42.7491 49.6002 40.5391C49.8402 42.2091 50.7002 43.6791 51.5502 45.0891C56.7702 53.7691 61.9802 62.4391 67.2002 71.1191" stroke="#FF5900" stroke-miterlimit="10"/>
<path d="M37.3097 29.5012C36.4597 30.9212 36.1597 32.6012 36.4697 34.1812C36.5597 34.6212 36.6997 35.0712 36.9897 35.4412C37.2297 35.7512 37.5697 35.9912 37.9297 36.1912C39.7797 37.2112 42.3297 37.0912 44.0497 35.9012C44.2597 35.7512 44.4597 35.5912 44.6097 35.3912C44.9097 34.9812 44.9397 34.4612 44.9497 33.9712C44.9697 32.9712 44.9097 31.9412 44.4897 31.0212C44.0697 30.1012 43.1997 29.2812 42.0997 29.0912C41.3197 28.9612 37.7197 28.8112 37.3097 29.5012Z" fill="#FF5900" stroke="#FF5900" stroke-miterlimit="10"/>
<path d="M25.0801 41.7305C25.7001 42.7505 26.3801 43.7305 27.1101 44.6805C27.3901 44.0305 27.7201 43.4005 28.1001 42.7905C28.2701 42.5205 28.5401 42.2205 28.8501 42.3105C29.0201 42.3605 29.1301 42.5105 29.2401 42.6505C29.9101 43.5605 30.7301 44.3505 31.6601 44.9805C31.7801 44.5305 31.9001 44.0805 32.0201 43.6305C32.1801 43.0405 32.4401 42.3405 33.0401 42.2405C33.5701 43.2605 34.4601 44.0805 35.5101 44.5305L35.6401 44.1005" stroke="#FF5900" stroke-miterlimit="10"/>
<path d="M41.5898 44.8086C42.2098 45.8286 42.8898 46.8086 43.6198 47.7586C43.8998 47.1086 44.2298 46.4786 44.6098 45.8686C44.7798 45.5986 45.0498 45.2986 45.3598 45.3886C45.5298 45.4386 45.6398 45.5886 45.7498 45.7286C46.4198 46.6386 47.2398 47.4286 48.1698 48.0586C48.2898 47.6086 48.4098 47.1586 48.5298 46.7086C48.6898 46.1186 48.9498 45.4186 49.5498 45.3186C50.0798 46.3386 50.9698 47.1586 52.0198 47.6086L52.1498 47.1786" stroke="#FF5900" stroke-miterlimit="10"/>
</svg>
