<svg width="83" height="82" viewBox="0 0 83 82" fill="none" xmlns="http://www.w3.org/2000/svg">
<path d="M20.7576 44.6399C20.4215 45.368 20.2732 46.1559 20.1447 46.9538C19.9272 48.41 19.8185 49.926 20.2831 51.3224C20.8663 53.0578 22.3886 54.4542 24.1778 54.8032C25.967 55.1523 27.9243 54.3843 28.9622 52.8883C29.8519 51.6016 30.0298 49.956 30.0496 48.3901C30.0496 47.8615 30.0496 47.3329 29.9705 46.8142C29.7629 45.5076 29.1006 44.3008 28.29 43.2635C26.0856 40.431 22.1909 41.5081 20.7576 44.6499V44.6399Z" fill="#FF5900" stroke="#FF5900" stroke-width="0.25" stroke-miterlimit="10"/>
<path d="M47.3982 51.0629C47.7837 52.2298 48.535 53.2571 49.395 54.1248C49.6125 54.3443 49.8299 54.5437 50.0869 54.7033C50.4033 54.9028 50.769 55.0125 51.1446 55.0724C52.4297 55.2918 53.7938 54.9427 54.8219 54.1348C56.018 53.1873 56.6902 51.6912 56.9571 50.1752C57.5699 46.6146 57.0658 41.1689 52.321 41.488C47.5761 41.8072 46.1131 47.1731 47.3982 51.0629Z" fill="#FF5900"/>
<path d="M17.6039 60.6366C19.8181 58.5222 22.7837 57.3552 25.7887 56.8366C27.0441 56.6172 28.3391 56.4975 29.4956 55.9689C31.6703 54.9715 32.9851 52.7274 33.8846 50.4933C34.7841 48.2591 35.4168 45.8754 36.8402 43.9505C37.7002 42.7835 39.4202 41.7961 40.478 42.7835C41.0908 43.352 41.1304 44.3095 41.0711 45.1473C40.7251 50.3437 38.4515 55.3804 34.794 59.0608C33.6572 60.2078 32.3425 61.2949 31.8285 62.8408C31.5616 63.6587 31.5418 64.5364 31.532 65.4041C31.4825 69.254 31.4232 73.1039 31.3738 76.9538C31.3738 77.0834 31.3738 77.2131 31.3046 77.3228C31.1761 77.5323 30.8993 77.5522 30.6621 77.5522C27.7756 77.5223 24.8991 76.9538 22.2103 75.8866C21.6073 75.6472 20.9945 75.3679 20.5892 74.8493C19.9763 74.0514 20.0455 72.9443 20.0158 71.9469C19.9862 70.9495 19.6896 69.7627 18.7604 69.3936C19.1855 69.5632 19.0076 73.3832 16.4671 72.0965C15.36 71.528 14.2331 70.1417 14.0057 68.8949C13.5114 66.192 15.7652 62.402 17.594 60.6566L17.6039 60.6366Z" fill="#FF5900" stroke="#FF5900" stroke-width="0.25" stroke-miterlimit="10"/>
<path d="M36.3364 45.6869C36.2672 44.8391 36.2672 43.9414 36.6329 43.1735C36.9987 42.4055 37.8389 41.807 38.6693 41.9566C39.4502 42.0963 39.984 42.8144 40.409 43.4826C41.9412 45.8464 43.2263 48.3698 44.2444 51.0029C45.0451 53.0575 45.8755 55.4013 47.8723 56.309C48.841 56.7478 49.9481 56.7678 51.0058 56.8575C54.0999 57.1368 57.1544 58.214 59.596 60.1489C62.0376 62.0838 63.8268 64.9164 64.3013 68.0082C64.6077 70.0429 64.1827 72.4366 62.4429 73.5138C62.0376 73.7731 61.5433 73.9427 61.0688 73.823C59.1907 73.3741 59.853 69.5043 57.9353 69.3348C58.6668 70.8109 58.044 72.6859 56.8677 73.8429C55.6914 74.9999 54.0801 75.5584 52.5084 76.0072C50.2842 76.6455 48.0205 77.1143 45.7272 77.4036C45.8557 77.4036 45.1835 62.9615 43.9182 61.1363C40.5573 56.309 36.8702 51.8307 36.3364 45.6769V45.6869Z" fill="#FF5900"/>
<path d="M35.812 41.3777C34.5764 40.6994 33.5582 39.5923 32.9453 38.2559" stroke="#FF5900" stroke-miterlimit="10"/>
<path d="M38.7285 39.6813L38.5703 35.6719" stroke="#FF5900" stroke-miterlimit="10"/>
<path d="M41.7139 41.4672L43.7897 38.5449" stroke="#FF5900" stroke-miterlimit="10"/>
<path d="M41.1408 79.2185C62.4815 79.2185 79.7816 62.0445 79.7816 40.8593C79.7816 19.674 62.4815 2.5 41.1408 2.5C19.8001 2.5 2.5 19.674 2.5 40.8593C2.5 62.0445 19.8001 79.2185 41.1408 79.2185Z" stroke="#FF5900" stroke-width="5" stroke-miterlimit="10"/>
<path d="M6.76352 41.7119L5.84689 41.5013L7.2927 35.0959L8.20933 35.3066L7.60314 37.9921L15.2195 39.7423L14.986 40.7765L7.3697 39.0263L6.76352 41.7119Z" fill="#FF5900"/>
<path d="M14.8321 36.5776L6.67569 33.5154L8.495 28.5822L9.37118 28.9111L7.91691 32.8545L10.6729 33.8892L12.033 30.2012L12.9091 30.5302L11.5491 34.2181L14.321 35.2588L15.7988 31.2516L16.675 31.5805L14.8321 36.5776Z" fill="#FF5900"/>
<path d="M15.7033 16.6964L16.6373 15.8502L23.6454 19.2679L23.7211 19.1993L21.1054 11.8024L22.0395 10.9562L27.8364 17.4704L27.1043 18.1336L22.7 13.1844L22.6369 13.2415L25.0217 20.0203L24.3149 20.6606L17.8911 17.541L17.828 17.5981L22.2322 22.5474L21.5002 23.2106L15.7033 16.6964Z" fill="#FF5900"/>
<path d="M29.1074 17.1025L26.3325 8.7975L29.2308 7.81167C29.8083 7.61524 30.318 7.55326 30.7599 7.62573C31.201 7.6955 31.5692 7.86679 31.8647 8.1396C32.1593 8.40971 32.3744 8.74752 32.5099 9.15304C32.6291 9.5099 32.6642 9.82615 32.615 10.1018C32.5686 10.3765 32.4654 10.6163 32.3055 10.8213C32.1482 11.0253 31.9617 11.2001 31.7459 11.3458L31.773 11.4269C32.0321 11.3568 32.3169 11.3593 32.6275 11.4343C32.938 11.5093 33.2303 11.6688 33.5041 11.9129C33.778 12.1569 33.9881 12.4979 34.1344 12.9359C34.2735 13.3522 34.3042 13.7588 34.2264 14.1556C34.1486 14.5523 33.9385 14.9174 33.5961 15.2506C33.2536 15.5839 32.7559 15.8616 32.1028 16.0837L29.1074 17.1025ZM29.8132 15.8689L31.8047 15.1915C32.4605 14.9685 32.8835 14.6831 33.0739 14.3353C33.266 13.984 33.3011 13.6258 33.1792 13.2608C33.0852 12.9797 32.927 12.7445 32.7045 12.5552C32.4811 12.3632 32.2132 12.2406 31.9009 12.1873C31.5876 12.1312 31.2502 12.1647 30.8886 12.2877L28.8485 12.9816L29.8132 15.8689ZM28.5558 12.1057L30.4178 11.4724C30.7201 11.3696 30.9728 11.2174 31.1759 11.0158C31.3817 10.8133 31.52 10.5796 31.5907 10.3147C31.6642 10.0489 31.6522 9.76995 31.5546 9.47798C31.4327 9.11301 31.2024 8.84661 30.8638 8.67876C30.5244 8.50822 30.0794 8.51657 29.5289 8.70382L27.6345 9.34818L28.5558 12.1057Z" fill="#FF5900"/>
<path d="M41.5585 5.65586L42.6171 5.59633L42.9369 11.3849C42.9699 11.9825 42.8585 12.524 42.6027 13.0094C42.3496 13.4918 41.9758 13.8825 41.4814 14.1816C40.9868 14.4777 40.3965 14.6451 39.7107 14.6836C39.0249 14.7222 38.4199 14.6221 37.8958 14.3832C37.3714 14.1415 36.9555 13.7952 36.648 13.3443C36.3432 12.8904 36.1743 12.3646 36.1413 11.767L35.8215 5.97847L36.8801 5.91894L37.1952 11.6221C37.2187 12.049 37.3336 12.4236 37.5398 12.746C37.7459 13.0656 38.0278 13.3109 38.3855 13.4821C38.7459 13.6502 39.1694 13.7206 39.656 13.6933C40.1426 13.6659 40.5558 13.5485 40.8954 13.341C41.2349 13.1306 41.488 12.8552 41.6548 12.5146C41.8242 12.1711 41.8971 11.7859 41.8735 11.359L41.5585 5.65586Z" fill="#FF5900"/>
<path d="M46.7149 5.32497L45.8648 13.995L44.8151 13.8902L45.6653 5.22019L46.7149 5.32497Z" fill="#FF5900"/>
<path d="M57.1571 21.0556L55.1264 19.2695L60.8558 12.6381L62.9764 14.5033C63.6148 15.0648 64.0463 15.678 64.271 16.3429C64.4976 17.0057 64.5184 17.6907 64.3333 18.3979C64.1501 19.103 63.762 19.7988 63.1689 20.4852C62.5721 21.176 61.9362 21.6633 61.2612 21.9472C60.588 22.2289 59.9023 22.2982 59.2041 22.1551C58.5077 22.0099 57.8254 21.6434 57.1571 21.0556ZM56.5387 19.258L57.7211 20.298C58.2652 20.7766 58.8075 21.0674 59.348 21.1705C59.8885 21.2736 60.4153 21.207 60.9286 20.9708C61.4418 20.7346 61.9315 20.3466 62.3978 19.807C62.8603 19.2716 63.1718 18.7344 63.3321 18.1954C63.4943 17.6543 63.4925 17.1284 63.3267 16.6178C63.1627 16.1051 62.8237 15.6226 62.3096 15.1705L61.0372 14.0513L56.5387 19.258Z" fill="#FF5900"/>
<path d="M68.7758 20.8626L61.5012 25.6839L60.9246 24.7983L68.1992 19.9769L68.7758 20.8626Z" fill="#FF5900"/>
<path d="M74.4208 29.9232L66.9295 34.3862L66.4134 33.5043L69.8953 25.899L69.8522 25.8255L63.9704 29.3297L63.4371 28.4183L70.9284 23.9553L71.4445 24.8373L67.9566 32.466L67.9996 32.5394L73.8961 29.0266L74.4208 29.9232Z" fill="#FF5900"/>
<path d="M75.3069 39.2635C75.5377 39.0693 75.73 38.8586 75.8836 38.6314C76.041 38.4057 76.1558 38.1652 76.2282 37.9097C76.3015 37.6569 76.329 37.3921 76.3105 37.1153C76.292 36.8385 76.2247 36.554 76.1086 36.2616C75.9182 35.7823 75.6216 35.3964 75.2188 35.1038C74.816 34.8113 74.3281 34.6463 73.7553 34.609C73.1825 34.5716 72.5467 34.6942 71.8479 34.9768C71.149 35.2594 70.6058 35.6151 70.2181 36.0439C69.8305 36.4727 69.5927 36.9372 69.5047 37.4374C69.4168 37.9376 69.4722 38.4378 69.671 38.9382C69.8551 39.4018 70.1158 39.7701 70.453 40.0434C70.7939 40.3182 71.1848 40.481 71.6258 40.5319C72.0705 40.5844 72.5398 40.5108 73.0337 40.3111L73.0899 40.6368L72.1233 38.2033L72.9902 37.8528L74.2142 40.9341L73.3472 41.2847C72.6826 41.5535 72.0481 41.645 71.4439 41.5592C70.8406 41.4761 70.3049 41.2403 69.8366 40.852C69.3719 40.4652 69.012 39.9505 68.7567 39.3079C68.4722 38.5916 68.3903 37.8941 68.5111 37.2156C68.6329 36.5398 68.9436 35.925 69.4433 35.3714C69.9441 34.8205 70.6201 34.3729 71.4713 34.0287C72.1096 33.7706 72.7177 33.624 73.2953 33.5891C73.8767 33.5558 74.4101 33.6243 74.8955 33.7948C75.381 33.9653 75.8054 34.2278 76.1687 34.5821C76.5321 34.9365 76.8168 35.3731 77.0229 35.8919C77.1923 36.3186 77.2859 36.7423 77.3037 37.163C77.3251 37.5854 77.2764 37.9887 77.1577 38.3729C77.0426 38.7587 76.8622 39.1144 76.6165 39.44C76.3734 39.7645 76.0707 40.0428 75.7086 40.2748L75.3069 39.2635Z" fill="#FF5900"/>
<path d="M17.9886 29.7114L17.4739 30.6914L11.2731 23.7454L11.7799 22.7805L20.9582 24.0573L20.4434 25.0373L12.7589 23.8832L12.7272 23.9435L17.9886 29.7114ZM15.175 27.7435L17.2497 23.7932L18.0757 24.2348L16.001 28.1852L15.175 27.7435Z" fill="#FF5900"/>
<path d="M48.8992 16.151L52.3448 8.1094L53.3159 8.53297L50.2404 15.7107L53.9679 17.3367L53.5978 18.2005L48.8992 16.151Z" fill="#FF5900"/>
</svg>
